<?xml version="1.0" encoding="UTF-8"?>
<svg id="Font_Engravings" data-name="Font Engravings" xmlns="http://www.w3.org/2000/svg" viewBox="0 0 309.52 289.587">
  <defs>
    <style>
      .cls-1 {
        fill: none;
        stroke: #000;
        stroke-miterlimit: 10;
      }
    </style>
  </defs>
  <g>
    <path d="M134.892,177.687h7.161c.14,0,.21.07.21.21v1.071c0,.14-.07.21-.21.21h-5.712c-.07,0-.105.035-.105.104v4.768c0,.07.035.104.105.104h5.712c.14,0,.21.07.21.21v1.071c0,.14-.07.21-.21.21h-5.712c-.07,0-.105.035-.105.104v5.04c0,.07.035.105.105.105h5.712c.14,0,.21.07.21.21v1.071c0,.14-.07.21-.21.21h-7.161c-.14,0-.21-.07-.21-.21v-14.28c0-.14.07-.21.21-.21Z"/>
    <path d="M144.257,192.313c-.028-.049-.021-.107.021-.178l2.667-4.474c.056-.069.084-.14.084-.21,0-.069-.028-.14-.084-.21l-2.583-4.347c-.028-.056-.042-.098-.042-.126,0-.084.063-.126.189-.126h1.281c.098,0,.175.049.231.146l1.932,3.424c.028.042.056.062.084.062.028,0,.049-.021.063-.062l1.932-3.424c.056-.098.133-.146.231-.146h1.281c.084,0,.14.024.168.073.028.05.021.108-.021.179l-2.583,4.347c-.056.112-.084.183-.084.21,0,.028.028.099.084.21l2.667,4.474c.028.056.042.098.042.126,0,.084-.063.126-.189.126h-1.302c-.098,0-.175-.049-.231-.147l-1.995-3.569c-.014-.042-.035-.063-.063-.063-.028,0-.056.021-.084.063l-1.995,3.569c-.056.099-.133.147-.231.147h-1.302c-.084,0-.14-.024-.168-.074Z"/>
    <path d="M155.324,196.524h-1.113c-.14,0-.21-.07-.21-.21v-13.461c0-.14.07-.21.21-.21h1.008c.14,0,.21.07.21.21v.735c0,.069.018.108.053.115.035.007.08-.018.136-.073.7-.799,1.736-1.197,3.108-1.197.91,0,1.729.214,2.457.641s1.302,1.025,1.722,1.795c.42.771.63,1.652.63,2.646s-.21,1.876-.63,2.646c-.42.771-.994,1.369-1.722,1.796s-1.547.641-2.457.641c-1.26,0-2.261-.371-3.003-1.113-.056-.056-.102-.077-.136-.062-.035.014-.053.056-.053.126v4.767c0,.14-.07.21-.21.21ZM161.026,190.193c.637-.68.956-1.572.956-2.678s-.319-1.998-.956-2.678c-.637-.679-1.474-1.019-2.51-1.019-.658,0-1.246.137-1.764.409-.518.273-.896.655-1.134,1.145-.056.112-.084.225-.084.336v3.612c0,.112.028.225.084.336.238.49.616.872,1.134,1.145.518.273,1.105.41,1.764.41,1.036,0,1.873-.34,2.51-1.019Z"/>
    <path d="M170.57,182.454c.126,0,.189.07.189.21v1.113c0,.126-.049.189-.147.189s-.199-.011-.304-.032c-.105-.021-.2-.031-.284-.031-.98,0-1.75.413-2.31,1.239-.098.14-.147.314-.147.524v6.511c0,.14-.07.21-.21.21h-1.113c-.14,0-.21-.07-.21-.21v-9.324c0-.14.07-.21.21-.21h1.008c.14,0,.21.07.21.21v.756c0,.057.014.091.042.105.028.014.063,0,.105-.042.686-.826,1.568-1.239,2.646-1.239.14,0,.245.007.315.021Z"/>
    <path d="M174.046,191.988c-.749-.42-1.333-1.019-1.753-1.795-.421-.777-.631-1.67-.631-2.678s.207-1.897.62-2.667c.412-.77.979-1.365,1.701-1.785.721-.42,1.529-.63,2.425-.63.882,0,1.684.21,2.405.63.721.42,1.284.997,1.69,1.732.405.735.608,1.564.608,2.488,0,.21-.007.371-.021.483-.028.112-.099.168-.21.168h-7.413c-.168,0-.231.091-.189.272.112.925.466,1.659,1.061,2.205s1.354.819,2.278.819c1.051,0,1.967-.406,2.751-1.218.154-.154.273-.182.357-.084l.693.756c.098.084.098.175,0,.272-.505.532-1.082.942-1.732,1.229-.651.287-1.341.431-2.069.431-.966,0-1.823-.21-2.572-.63ZM179.475,186.465c-.141-.799-.486-1.438-1.04-1.922-.553-.483-1.229-.725-2.026-.725s-1.48.249-2.047.746c-.567.497-.914,1.137-1.04,1.921l-.021.105c0,.084.069.126.21.126h5.774c.168,0,.231-.084.189-.252Z"/>
    <path d="M184.042,191.988c-.567-.42-.963-.979-1.187-1.68l-.021-.084c0-.084.049-.14.147-.168l1.008-.357.084-.021c.084,0,.147.056.189.168.126.448.367.798.725,1.05.356.252.738.378,1.145.378.588,0,1.035-.144,1.344-.431.308-.286.462-.654.462-1.103s-.15-.798-.451-1.05c-.302-.252-.718-.427-1.25-.525l-.84-.168c-.714-.14-1.281-.458-1.701-.955s-.63-1.096-.63-1.796c0-.518.133-.993.399-1.428.266-.434.64-.773,1.123-1.019.483-.244,1.025-.367,1.628-.367.77,0,1.424.199,1.963.599.539.398.914.97,1.124,1.711l.021.084c0,.084-.056.147-.168.189l-.987.252-.084.021c-.084,0-.14-.056-.168-.168-.112-.42-.312-.748-.598-.986-.287-.238-.655-.357-1.103-.357-.49,0-.886.134-1.187.399-.302.266-.452.602-.452,1.008,0,.42.119.742.357.966.237.225.595.386,1.071.483l.818.168c.784.154,1.418.479,1.9.977.483.497.725,1.151.725,1.963,0,.84-.298,1.53-.893,2.068-.595.539-1.403.809-2.425.809-.826,0-1.522-.21-2.09-.63Z"/>
    <path d="M192.505,191.988c-.567-.42-.963-.979-1.187-1.68l-.021-.084c0-.084.049-.14.147-.168l1.008-.357.084-.021c.084,0,.147.056.189.168.126.448.367.798.725,1.05.356.252.738.378,1.145.378.588,0,1.035-.144,1.344-.431.308-.286.462-.654.462-1.103s-.15-.798-.451-1.05c-.302-.252-.718-.427-1.25-.525l-.84-.168c-.714-.14-1.281-.458-1.701-.955s-.63-1.096-.63-1.796c0-.518.133-.993.399-1.428.266-.434.64-.773,1.123-1.019.483-.244,1.025-.367,1.628-.367.77,0,1.424.199,1.963.599.539.398.914.97,1.124,1.711l.021.084c0,.084-.056.147-.168.189l-.987.252-.084.021c-.084,0-.14-.056-.168-.168-.112-.42-.312-.748-.598-.986-.287-.238-.655-.357-1.103-.357-.49,0-.886.134-1.187.399-.302.266-.452.602-.452,1.008,0,.42.119.742.357.966.237.225.595.386,1.071.483l.818.168c.784.154,1.418.479,1.9.977.483.497.725,1.151.725,1.963,0,.84-.298,1.53-.893,2.068-.595.539-1.403.809-2.425.809-.826,0-1.522-.21-2.09-.63Z"/>
    <path d="M202.143,191.914c-.749-.455-1.337-1.071-1.764-1.848-.428-.777-.641-1.628-.641-2.552s.213-1.774.641-2.552c.427-.777,1.015-1.393,1.764-1.848s1.586-.683,2.51-.683,1.76.228,2.51.683c.748.455,1.336,1.07,1.764,1.848.427.777.641,1.628.641,2.552s-.214,1.774-.641,2.552c-.428.776-1.016,1.393-1.764,1.848-.75.455-1.586.683-2.51.683s-1.761-.228-2.51-.683ZM206.386,190.697c.511-.329.91-.773,1.197-1.334.286-.56.43-1.176.43-1.848s-.144-1.288-.43-1.849c-.287-.56-.687-1.004-1.197-1.333-.512-.329-1.089-.493-1.732-.493s-1.222.164-1.732.493c-.512.329-.91.773-1.197,1.333-.287.561-.431,1.177-.431,1.849s.144,1.288.431,1.848c.287.561.686,1.005,1.197,1.334.511.329,1.088.493,1.732.493s1.221-.164,1.732-.493Z"/>
  </g>
  <g>
    <path d="M73.401,272.274c-.42-.463-.63-1.085-.63-1.865v-4.51c0-.066.033-.1.1-.1h.54c.066,0,.1.033.1.1v4.44c0,.613.138,1.085.415,1.415.276.33.685.495,1.225.495s.949-.165,1.225-.495c.277-.33.415-.802.415-1.415v-4.44c0-.066.033-.1.1-.1h.54c.066,0,.1.033.1.1v4.51c0,.78-.21,1.402-.63,1.865-.42.464-1.003.695-1.75.695s-1.33-.231-1.75-.695Z"/>
    <path d="M79.737,272.549c-.404-.28-.688-.667-.855-1.16l-.01-.04c0-.04.023-.07.07-.09l.51-.21c.013-.007.03-.01.05-.01s.037.006.05.02c.013.014.023.03.03.05.106.36.298.641.575.84.276.2.605.301.985.301.473,0,.838-.12,1.095-.36.256-.24.385-.55.385-.93s-.115-.684-.345-.91-.545-.38-.945-.46l-.51-.101c-.534-.1-.955-.314-1.265-.645s-.465-.755-.465-1.275c0-.354.09-.678.27-.975.18-.297.428-.531.745-.705.317-.174.679-.26,1.085-.26.5,0,.934.128,1.3.385s.633.608.8,1.055c.007.007.01.021.01.04,0,.04-.023.07-.07.09l-.52.221c-.013.007-.03.01-.05.01s-.037-.007-.05-.021c-.014-.013-.023-.029-.03-.05-.12-.313-.305-.56-.555-.74-.25-.18-.529-.27-.835-.27-.406,0-.728.113-.965.34s-.355.517-.355.87c0,.313.093.573.28.78.187.206.463.343.83.41l.51.1c.553.113,1.01.34,1.37.68.36.34.54.8.54,1.38,0,.387-.092.737-.275,1.051-.183.313-.447.56-.79.739-.343.181-.745.271-1.205.271-.527,0-.992-.141-1.395-.42Z"/>
    <path d="M88.086,266.039c.303.159.533.38.69.659.157.28.235.597.235.95,0,.32-.077.612-.23.875-.153.264-.36.469-.62.615-.067.04-.067.076,0,.11.306.153.55.373.73.659.18.287.27.61.27.971,0,.56-.187,1.02-.56,1.38-.374.359-.9.54-1.58.54h-2.02c-.067,0-.1-.033-.1-.101v-6.8c0-.066.033-.1.1-.1h2c.42,0,.781.08,1.085.24ZM85.642,266.559v2.27c0,.034.016.051.05.051h1.22c.433,0,.763-.104.99-.311.227-.206.34-.496.34-.87s-.113-.665-.34-.875-.557-.314-.99-.314h-1.22c-.034,0-.05.017-.05.05ZM85.642,269.639v2.4c0,.033.016.05.05.05h1.26c.474,0,.832-.11,1.075-.33.243-.22.365-.526.365-.92s-.122-.7-.365-.92c-.244-.221-.602-.33-1.075-.33h-1.26c-.034,0-.05.017-.05.05Z"/>
  </g>
  <g>
    <path d="M127.877,272.699v-6.8c0-.066.033-.1.1-.1h.69c.053,0,.097.023.13.069l1.92,3.2c.02.033.037.05.05.05.013,0,.03-.017.05-.05l1.92-3.2c.033-.046.077-.069.13-.069h.69c.066,0,.1.033.1.1v6.8c0,.067-.033.101-.1.101h-.54c-.067,0-.1-.033-.1-.101v-5.56c0-.033-.008-.054-.025-.061-.017-.006-.032.007-.045.04l-1.97,3.21c-.033.047-.07.07-.11.07s-.077-.023-.11-.07l-1.97-3.21c-.014-.033-.028-.046-.045-.04-.017.007-.025.027-.025.061v5.56c0,.067-.034.101-.1.101h-.54c-.067,0-.1-.033-.1-.101Z"/>
    <path d="M136.357,265.899v6.8c0,.067-.034.101-.1.101h-.54c-.067,0-.1-.033-.1-.101v-6.8c0-.066.033-.1.1-.1h.54c.066,0,.1.033.1.1Z"/>
    <path d="M142.267,266.229c.513.287.913.695,1.2,1.225.287.53.43,1.146.43,1.846s-.144,1.314-.43,1.845-.687.938-1.2,1.225c-.514.287-1.1.431-1.76.431h-2.09c-.067,0-.1-.033-.1-.101v-6.8c0-.066.033-.1.1-.1h2.09c.66,0,1.247.144,1.76.43ZM139.107,272.089h1.37c.513,0,.97-.106,1.37-.32.4-.213.712-.53.935-.95.224-.42.335-.927.335-1.52s-.111-1.101-.335-1.521c-.223-.42-.535-.736-.935-.95-.4-.213-.856-.319-1.37-.319h-1.37c-.034,0-.05.017-.05.05v5.48c0,.033.016.05.05.05Z"/>
    <path d="M146.147,265.899v6.8c0,.067-.034.101-.1.101h-.54c-.067,0-.1-.033-.1-.101v-6.8c0-.066.033-.1.1-.1h.54c.066,0,.1.033.1.1Z"/>
    <path d="M151.407,265.899v6.8c0,.067-.034.101-.1.101h-.54c-.067,0-.1-.033-.1-.101v-6.8c0-.066.033-.1.1-.1h.54c.066,0,.1.033.1.1Z"/>
    <path d="M157.536,271.504c.013-.004.02-.019.02-.045v-5.561c0-.066.033-.1.1-.1h.54c.066,0,.1.033.1.1v6.8c0,.067-.034.101-.1.101h-.64c-.047,0-.083-.007-.11-.021-.027-.013-.05-.04-.07-.08l-3.21-5.58c-.013-.02-.026-.028-.04-.024-.014.003-.02.019-.02.045v5.56c0,.067-.034.101-.1.101h-.54c-.067,0-.1-.033-.1-.101v-6.8c0-.066.033-.1.1-.1h.64c.046,0,.082.007.105.02.023.014.048.04.075.08l3.21,5.58c.013.021.027.028.04.025Z"/>
  </g>
  <g>
    <path d="M179.657,272.699v-6.8c0-.066.033-.1.101-.1h.689c.054,0,.097.023.13.069l1.92,3.2c.021.033.037.05.051.05.013,0,.029-.017.05-.05l1.92-3.2c.033-.046.076-.069.13-.069h.69c.066,0,.1.033.1.1v6.8c0,.067-.033.101-.1.101h-.54c-.067,0-.101-.033-.101-.101v-5.56c0-.033-.008-.054-.024-.061-.017-.006-.032.007-.045.04l-1.971,3.21c-.033.047-.069.07-.109.07s-.077-.023-.11-.07l-1.97-3.21c-.014-.033-.028-.046-.045-.04-.017.007-.025.027-.025.061v5.56c0,.067-.033.101-.1.101h-.54c-.067,0-.101-.033-.101-.101Z"/>
    <path d="M188.138,265.899v6.8c0,.067-.034.101-.101.101h-.54c-.066,0-.1-.033-.1-.101v-6.8c0-.066.033-.1.1-.1h.54c.066,0,.101.033.101.1Z"/>
    <path d="M194.048,266.229c.513.287.913.695,1.199,1.225.287.53.431,1.146.431,1.846s-.144,1.314-.431,1.845c-.286.53-.687.938-1.199,1.225-.514.287-1.101.431-1.761.431h-2.09c-.066,0-.1-.033-.1-.101v-6.8c0-.066.033-.1.1-.1h2.09c.66,0,1.247.144,1.761.43ZM190.888,272.089h1.37c.513,0,.97-.106,1.369-.32.4-.213.712-.53.936-.95s.335-.927.335-1.52-.111-1.101-.335-1.521-.535-.736-.936-.95c-.399-.213-.856-.319-1.369-.319h-1.37c-.034,0-.05.017-.05.05v5.48c0,.033.016.05.05.05Z"/>
    <path d="M197.928,265.899v6.8c0,.067-.034.101-.101.101h-.54c-.066,0-.1-.033-.1-.101v-6.8c0-.066.033-.1.1-.1h.54c.066,0,.101.033.101.1Z"/>
    <path d="M203.752,272.489c-.55-.319-.983-.76-1.3-1.319-.316-.561-.476-1.184-.476-1.87s.159-1.311.476-1.87c.316-.561.75-1,1.3-1.32.55-.319,1.151-.479,1.805-.479s1.256.16,1.806.479c.55.32.983.76,1.3,1.32.316.56.475,1.184.475,1.87s-.158,1.31-.475,1.87c-.316.56-.75,1-1.3,1.319-.55.32-1.152.48-1.806.48s-1.255-.16-1.805-.48ZM206.987,271.859c.427-.253.762-.604,1.005-1.055s.365-.952.365-1.505-.122-1.056-.365-1.505c-.243-.45-.578-.802-1.005-1.056-.427-.253-.903-.38-1.431-.38s-1.003.127-1.43.38c-.427.254-.762.605-1.005,1.056-.243.449-.365.951-.365,1.505s.122,1.055.365,1.505.578.802,1.005,1.055c.427.254.903.38,1.43.38s1.004-.126,1.431-.38Z"/>
    <path d="M211.167,272.274c-.42-.463-.63-1.085-.63-1.865v-4.51c0-.066.033-.1.1-.1h.54c.066,0,.101.033.101.1v4.44c0,.613.138,1.085.415,1.415.276.33.685.495,1.225.495s.948-.165,1.225-.495c.277-.33.415-.802.415-1.415v-4.44c0-.066.033-.1.101-.1h.54c.066,0,.1.033.1.1v4.51c0,.78-.21,1.402-.63,1.865-.42.464-1.004.695-1.75.695s-1.33-.231-1.75-.695Z"/>
    <path d="M220.937,265.899v.51c0,.067-.034.101-.101.101h-1.75c-.033,0-.05.017-.05.05v6.14c0,.067-.033.101-.1.101h-.54c-.067,0-.101-.033-.101-.101v-6.14c0-.033-.017-.05-.05-.05h-1.75c-.066,0-.1-.033-.1-.101v-.51c0-.066.033-.1.1-.1h4.34c.066,0,.101.033.101.1Z"/>
  </g>
  <g>
    <path d="M249.725,272.549c-.403-.28-.688-.667-.854-1.16l-.011-.04c0-.04.023-.07.07-.09l.51-.21c.014-.007.03-.01.051-.01.02,0,.036.006.05.02.013.014.022.03.03.05.105.36.298.641.574.84.277.2.605.301.985.301.474,0,.839-.12,1.095-.36.257-.24.385-.55.385-.93s-.114-.684-.344-.91c-.23-.227-.546-.38-.945-.46l-.51-.101c-.534-.1-.955-.314-1.266-.645s-.465-.755-.465-1.275c0-.354.09-.678.27-.975s.429-.531.745-.705c.317-.174.679-.26,1.085-.26.5,0,.934.128,1.301.385.366.257.633.608.799,1.055.008.007.011.021.011.04,0,.04-.023.07-.07.09l-.521.221c-.013.007-.029.01-.049.01-.021,0-.037-.007-.051-.021-.014-.013-.023-.029-.029-.05-.121-.313-.305-.56-.555-.74-.25-.18-.529-.27-.836-.27-.406,0-.729.113-.965.34s-.355.517-.355.87c0,.313.094.573.281.78.186.206.463.343.829.41l.511.1c.553.113,1.01.34,1.369.68.36.34.541.8.541,1.38,0,.387-.092.737-.275,1.051s-.447.56-.791.739c-.343.181-.744.271-1.204.271-.526,0-.991-.141-1.396-.42Z"/>
    <path d="M258.53,265.899v.51c0,.067-.034.101-.101.101h-1.75c-.033,0-.05.017-.05.05v6.14c0,.067-.033.101-.1.101h-.54c-.066,0-.1-.033-.1-.101v-6.14c0-.033-.018-.05-.051-.05h-1.75c-.066,0-.1-.033-.1-.101v-.51c0-.066.033-.1.1-.1h4.34c.066,0,.101.033.101.1Z"/>
    <path d="M261.85,265.909l2.061,6.78.01.04c0,.047-.03.07-.09.07h-.561c-.066,0-.109-.026-.13-.08l-.44-1.5c-.02-.054-.057-.08-.109-.08h-2.88c-.054,0-.091.026-.11.08l-.439,1.5c-.021.054-.064.08-.131.08h-.56c-.073,0-.101-.037-.08-.11l2.06-6.78c.014-.073.057-.109.131-.109h1.14c.073,0,.116.036.13.109ZM259.89,270.429h2.521c.039,0,.053-.021.039-.061l-1.139-3.81c-.014-.033-.034-.05-.061-.05h-.2c-.026,0-.047.017-.06.05l-1.141,3.81c-.006.04.007.061.04.061Z"/>
    <path d="M268.31,265.899v.51c0,.067-.034.101-.101.101h-1.75c-.034,0-.05.017-.05.05v6.14c0,.067-.033.101-.1.101h-.541c-.066,0-.1-.033-.1-.101v-6.14c0-.033-.017-.05-.051-.05h-1.75c-.066,0-.1-.033-.1-.101v-.51c0-.066.033-.1.1-.1h4.341c.066,0,.101.033.101.1Z"/>
    <path d="M270.039,272.274c-.42-.463-.629-1.085-.629-1.865v-4.51c0-.066.033-.1.1-.1h.54c.066,0,.101.033.101.1v4.44c0,.613.138,1.085.414,1.415.277.33.686.495,1.225.495s.949-.165,1.226-.495.415-.802.415-1.415v-4.44c0-.066.033-.1.1-.1h.541c.066,0,.1.033.1.1v4.51c0,.78-.21,1.402-.631,1.865-.42.464-1.003.695-1.75.695s-1.329-.231-1.75-.695Z"/>
    <path d="M276.375,272.549c-.404-.28-.688-.667-.855-1.16l-.01-.04c0-.04.023-.07.07-.09l.51-.21c.014-.007.029-.01.05-.01s.036.006.05.02.023.03.03.05c.106.36.298.641.575.84.276.2.605.301.984.301.474,0,.839-.12,1.096-.36.256-.24.385-.55.385-.93s-.115-.684-.345-.91-.546-.38-.945-.46l-.51-.101c-.534-.1-.955-.314-1.265-.645-.311-.33-.465-.755-.465-1.275,0-.354.09-.678.27-.975s.428-.531.744-.705c.317-.174.68-.26,1.086-.26.5,0,.934.128,1.3.385s.634.608.8,1.055c.007.007.01.021.01.04,0,.04-.023.07-.07.09l-.52.221c-.014.007-.029.01-.05.01s-.036-.007-.05-.021c-.014-.013-.023-.029-.03-.05-.12-.313-.305-.56-.555-.74-.25-.18-.528-.27-.835-.27-.406,0-.729.113-.965.34-.237.227-.355.517-.355.87,0,.313.094.573.28.78.187.206.463.343.829.41l.511.1c.554.113,1.01.34,1.37.68.359.34.54.8.54,1.38,0,.387-.092.737-.275,1.051-.183.313-.446.56-.79.739-.344.181-.744.271-1.205.271-.526,0-.991-.141-1.395-.42Z"/>
  </g>
  <path d="M146.466,72.012c-.056.056-.124.084-.204.084h-9.96c-.08,0-.148-.028-.204-.084-.056-.056-.084-.124-.084-.204v-1.608c0-.928.116-1.732.348-2.412.232-.68.624-1.308,1.176-1.884.552-.576,1.316-1.168,2.292-1.776l1.704-1.056c1.44-.88,2.16-1.904,2.16-3.072,0-.672-.228-1.224-.684-1.656s-1.044-.648-1.764-.648c-.704,0-1.304.208-1.8.624-.496.416-.824,1.008-.984,1.776-.016.096-.056.164-.12.204s-.136.044-.216.012l-2.256-.648c-.176-.048-.24-.16-.192-.336.352-1.328,1.016-2.404,1.992-3.228.976-.824,2.168-1.236,3.576-1.236,1.056,0,2,.22,2.832.66s1.476,1.044,1.932,1.812c.456.768.684,1.64.684,2.616,0,1.312-.356,2.38-1.068,3.204-.712.824-1.612,1.572-2.7,2.244l-1.68,1.056c-.768.464-1.324.888-1.668,1.272-.344.384-.54.864-.588,1.44v.072c0,.112.072.168.216.168h7.056c.08,0,.148.028.204.084.056.056.084.124.084.204v2.112c0,.081-.028.148-.084.204Z"/>
  <path d="M86.516,72.012c-.056.056-.124.084-.204.084h-10.104c-.08,0-.148-.028-.204-.084-.056-.056-.084-.124-.084-.204v-2.112c0-.08.028-.148.084-.204.056-.056.124-.084.204-.084h3.648c.096,0,.144-.048.144-.144v-10.368c0-.096-.024-.156-.072-.18-.048-.024-.112-.004-.192.06l-3.312,2.76c-.08.048-.144.072-.192.072-.112,0-.168-.08-.168-.24v-2.688c0-.16.056-.288.168-.384l3.336-2.856c.096-.096.208-.144.336-.144h2.688c.08,0,.147.028.204.084s.084.124.084.204v13.68c0,.096.048.144.144.144h3.288c.08,0,.148.028.204.084.056.056.084.124.084.204v2.112c0,.081-.028.148-.084.204Z"/>
  <path d="M197.958,71.556c-1.041-.664-1.809-1.58-2.305-2.748-.016-.032-.023-.072-.023-.12,0-.127.056-.216.168-.264l2.136-1.152c.063-.032.111-.048.144-.048.08,0,.16.064.24.192.304.736.732,1.304,1.284,1.704.552.4,1.196.6,1.932.6.832,0,1.516-.228,2.053-.684.535-.456.804-1.052.804-1.788,0-.832-.288-1.464-.864-1.896-.576-.432-1.288-.648-2.136-.648h-.769c-.08,0-.147-.028-.203-.084-.057-.056-.084-.124-.084-.204v-2.088c0-.08.027-.147.084-.204.056-.056.123-.084.203-.084h.769c.783,0,1.396-.204,1.836-.612.439-.408.66-.94.66-1.596s-.225-1.191-.672-1.608c-.448-.416-1.032-.624-1.752-.624-.641,0-1.188.152-1.645.456-.456.304-.796.712-1.02,1.224-.08.192-.2.24-.36.144l-2.063-1.104c-.081-.032-.133-.088-.156-.168-.024-.08-.013-.16.036-.24.464-.944,1.155-1.692,2.075-2.244.92-.552,1.964-.828,3.133-.828,1.151,0,2.136.208,2.951.624.816.416,1.437.98,1.86,1.692s.636,1.508.636,2.388c0,.8-.172,1.508-.516,2.124-.345.616-.836,1.108-1.476,1.476-.081.048-.12.096-.12.144,0,.064.039.12.12.168.768.4,1.363.936,1.787,1.608.424.672.637,1.473.637,2.4,0,.912-.229,1.756-.685,2.532-.456.776-1.124,1.396-2.004,1.86s-1.92.696-3.12.696c-1.344,0-2.536-.333-3.575-.996Z"/>
  <path d="M266.707,65.64h1.487c.08,0,.148.028.204.084.056.056.084.124.084.204v2.136c0,.081-.028.148-.084.204-.056.056-.124.084-.204.084h-1.487c-.097,0-.145.048-.145.144v3.312c0,.081-.028.148-.084.204-.056.056-.124.084-.204.084h-2.304c-.08,0-.148-.028-.204-.084-.057-.056-.084-.124-.084-.204v-3.312c0-.096-.048-.144-.144-.144h-7.345c-.16,0-.28-.063-.359-.192-.081-.128-.089-.256-.024-.384l5.568-12.264c.063-.144.176-.216.336-.216h2.544c.111,0,.188.028.228.084s.036.14-.012.252l-4.584,9.84c-.048.112-.008.168.12.168h3.528c.096,0,.144-.048.144-.144v-3c0-.08.027-.147.084-.204.056-.056.124-.084.204-.084h2.304c.08,0,.148.028.204.084.056.057.084.125.084.204v3c0,.096.048.144.145.144Z"/>
  <line class="cls-1" x1=".354" y1=".354" x2="13.163" y2="13.163"/>
  <g>
    <path d="M119.922,138.728c.513.287.913.695,1.2,1.225.287.53.43,1.145.43,1.845s-.144,1.315-.43,1.845c-.287.53-.687.938-1.2,1.225-.514.287-1.1.43-1.76.43h-2.09c-.067,0-.1-.033-.1-.1v-6.8c0-.067.033-.1.1-.1h2.09c.66,0,1.247.144,1.76.43ZM116.762,144.588h1.37c.513,0,.97-.106,1.37-.32.4-.213.712-.53.935-.95.224-.42.335-.927.335-1.52s-.111-1.1-.335-1.52c-.223-.42-.535-.736-.935-.95-.4-.213-.856-.32-1.37-.32h-1.37c-.034,0-.05.017-.05.05v5.48c0,.033.016.05.05.05Z"/>
    <path d="M123.637,145.108c-.356-.2-.635-.485-.835-.855s-.3-.795-.3-1.275.098-.903.295-1.27c.196-.367.466-.65.81-.85.343-.2.728-.3,1.155-.3.42,0,.802.1,1.145.3.343.2.612.475.805.825.193.35.29.745.29,1.185,0,.1-.003.177-.01.23-.013.054-.047.08-.1.08h-3.53c-.08,0-.11.043-.09.13.053.44.221.79.505,1.05.283.26.645.39,1.085.39.5,0,.937-.193,1.31-.58.073-.073.13-.087.17-.04l.33.36c.046.04.046.083,0,.13-.24.253-.515.449-.825.585-.31.137-.638.205-.985.205-.46,0-.869-.1-1.225-.3ZM126.222,142.478c-.066-.38-.231-.685-.495-.915-.263-.23-.585-.345-.965-.345s-.705.119-.975.355c-.27.237-.435.542-.495.915l-.01.05c0,.04.033.06.1.06h2.75c.08,0,.11-.04.09-.12Z"/>
    <path d="M128.396,145.108c-.27-.2-.458-.467-.565-.8l-.01-.04c0-.04.023-.067.07-.08l.48-.17.04-.01c.04,0,.07.027.09.08.06.213.175.38.345.5s.352.18.545.18c.28,0,.493-.068.64-.205.146-.137.22-.312.22-.525s-.072-.38-.215-.5c-.144-.12-.342-.204-.595-.25l-.4-.08c-.34-.067-.61-.218-.81-.455-.2-.237-.3-.521-.3-.855,0-.247.063-.473.19-.68.126-.207.305-.368.535-.485s.488-.175.775-.175c.367,0,.678.095.935.285.256.19.435.462.535.815l.01.04c0,.04-.027.07-.08.09l-.47.12-.04.01c-.04,0-.067-.027-.08-.08-.054-.2-.148-.356-.285-.47-.137-.113-.312-.17-.525-.17-.233,0-.422.063-.565.19-.144.127-.215.287-.215.48,0,.2.057.354.17.46.113.107.283.184.51.23l.39.08c.373.074.675.229.905.465.23.236.345.548.345.935,0,.4-.142.728-.425.985-.283.257-.668.385-1.155.385-.394,0-.725-.1-.995-.3Z"/>
    <path d="M132.177,139.413c-.11-.11-.165-.238-.165-.385s.055-.273.165-.38c.11-.106.238-.16.385-.16.14,0,.263.054.37.16.107.106.16.233.16.38s-.053.275-.16.385c-.106.11-.23.165-.37.165-.147,0-.275-.055-.385-.165ZM132.182,145.198v-4.44c0-.066.034-.1.1-.1h.53c.066,0,.1.034.1.1v4.44c0,.067-.034.1-.1.1h-.53c-.066,0-.1-.033-.1-.1Z"/>
    <path d="M135.332,147.153c-.307-.137-.567-.322-.78-.555-.04-.053-.04-.1,0-.14l.34-.37c.026-.027.05-.04.07-.04s.043.013.07.04c.333.4.783.6,1.35.6.473,0,.84-.108,1.1-.325.26-.217.39-.545.39-.985v-.69c0-.027-.01-.043-.03-.05-.02-.006-.043.003-.07.03-.367.354-.847.53-1.44.53-.414,0-.79-.097-1.13-.29-.34-.193-.606-.466-.8-.82s-.29-.76-.29-1.22c0-.453.1-.855.3-1.205.2-.35.471-.622.815-.815.343-.193.725-.29,1.145-.29.613,0,1.096.187,1.45.56.027.027.048.037.065.03s.025-.027.025-.06v-.33c0-.026.01-.05.03-.07s.043-.03.07-.03h.49c.066,0,.1.034.1.1v4.68c0,.606-.205,1.078-.615,1.415-.41.336-.945.505-1.605.505-.394,0-.743-.068-1.05-.205ZM137.282,144.338c.233-.126.417-.296.55-.51.033-.053.05-.113.05-.18v-1.55c0-.073-.017-.133-.05-.18-.134-.213-.317-.383-.55-.51-.233-.126-.503-.19-.81-.19-.48,0-.868.153-1.165.46-.296.307-.445.704-.445,1.19,0,.494.148.894.445,1.2.297.307.685.46,1.165.46.307,0,.577-.063.81-.19Z"/>
    <path d="M140.742,145.298h-.53c-.066,0-.1-.033-.1-.1v-4.44c0-.066.034-.1.1-.1h.48c.067,0,.1.034.1.1v.33c0,.027.008.043.025.05.017.007.035-.003.055-.03.16-.18.336-.316.53-.41.193-.093.42-.14.68-.14.493,0,.876.144,1.15.43s.41.653.41,1.1v3.11c0,.067-.034.1-.1.1h-.53c-.067,0-.1-.033-.1-.1v-2.99c0-.327-.083-.575-.25-.745-.167-.17-.407-.255-.72-.255-.22,0-.42.057-.6.17-.18.113-.33.277-.45.49-.034.067-.05.137-.05.21v3.12c0,.067-.034.1-.1.1Z"/>
    <path d="M145.916,145.108c-.356-.2-.635-.485-.835-.855s-.3-.795-.3-1.275.098-.903.295-1.27c.196-.367.466-.65.81-.85.343-.2.728-.3,1.155-.3.42,0,.802.1,1.145.3.343.2.612.475.805.825.193.35.29.745.29,1.185,0,.1-.003.177-.01.23-.013.054-.047.08-.1.08h-3.53c-.08,0-.11.043-.09.13.053.44.221.79.505,1.05.283.26.645.39,1.085.39.5,0,.937-.193,1.31-.58.073-.073.13-.087.17-.04l.33.36c.046.04.046.083,0,.13-.24.253-.515.449-.825.585-.31.137-.638.205-.985.205-.46,0-.869-.1-1.225-.3ZM148.501,142.478c-.066-.38-.231-.685-.495-.915-.263-.23-.585-.345-.965-.345s-.705.119-.975.355c-.27.237-.435.542-.495.915l-.01.05c0,.04.033.06.1.06h2.75c.08,0,.11-.04.09-.12Z"/>
    <path d="M154.011,138.058h.53c.066,0,.1.034.1.1v7.04c0,.067-.034.1-.1.1h-.49c-.066,0-.1-.033-.1-.1v-.35c0-.033-.008-.051-.025-.055s-.038.008-.065.035c-.34.38-.833.57-1.48.57-.427,0-.813-.102-1.16-.305-.347-.203-.62-.488-.82-.855s-.3-.787-.3-1.26.1-.894.3-1.26.473-.651.82-.855c.347-.203.733-.305,1.16-.305.593,0,1.073.177,1.44.53.027.027.048.037.065.03.017-.006.025-.026.025-.06v-2.9c0-.066.033-.1.1-.1ZM153.311,144.538c.24-.133.426-.313.56-.54.026-.054.04-.107.04-.16v-1.72c0-.053-.014-.106-.04-.16-.134-.227-.32-.407-.56-.54-.24-.133-.514-.2-.82-.2-.493,0-.892.162-1.195.485-.303.324-.455.749-.455,1.275s.152.952.455,1.275.702.485,1.195.485c.307,0,.58-.066.82-.2Z"/>
    <path d="M159.476,141.118c.017.007.038-.003.065-.03.367-.354.847-.53,1.44-.53.427,0,.813.102,1.16.305.346.204.62.488.82.855s.3.787.3,1.26-.1.893-.3,1.26-.474.652-.82.855c-.347.204-.733.305-1.16.305-.647,0-1.14-.19-1.48-.57-.027-.026-.048-.038-.065-.035s-.025.021-.025.055v.35c0,.067-.034.1-.1.1h-.49c-.066,0-.1-.033-.1-.1v-7.04c0-.066.034-.1.1-.1h.53c.066,0,.1.034.1.1v2.9c0,.034.008.054.025.06ZM162.066,144.253c.303-.323.455-.749.455-1.275s-.152-.952-.455-1.275c-.303-.323-.702-.485-1.195-.485-.307,0-.58.067-.82.2-.24.133-.427.313-.56.54-.026.053-.04.106-.04.16v1.72c0,.053.013.106.04.16.133.227.32.407.56.54.24.133.514.2.82.2.493,0,.892-.162,1.195-.485Z"/>
    <path d="M167.242,140.658h.55c.08,0,.11.037.09.11l-2.33,6.42c-.02.053-.06.08-.12.08h-.54c-.087,0-.117-.043-.09-.13l.66-1.83c.014-.026.02-.063.02-.11,0-.04-.006-.073-.02-.1l-1.6-4.32-.01-.04c0-.053.03-.08.09-.08h.57c.06,0,.1.027.12.08l1.18,3.39c.02.04.04.06.06.06.033,0,.053-.02.06-.06l1.18-3.39c.02-.053.063-.08.13-.08Z"/>
    <path d="M174.142,138.408l2.061,6.78.01.04c0,.046-.03.07-.09.07h-.56c-.067,0-.11-.026-.131-.08l-.439-1.5c-.021-.053-.057-.08-.11-.08h-2.88c-.054,0-.09.027-.11.08l-.439,1.5c-.021.054-.063.08-.13.08h-.561c-.073,0-.1-.037-.08-.11l2.061-6.78c.013-.073.057-.11.13-.11h1.14c.073,0,.117.037.13.11ZM172.182,142.928h2.521c.04,0,.053-.02.04-.06l-1.14-3.81c-.014-.033-.034-.05-.061-.05h-.2c-.026,0-.047.017-.06.05l-1.141,3.81c-.006.04.007.06.04.06Z"/>
    <path d="M177.882,145.298h-.53c-.066,0-.1-.033-.1-.1v-4.44c0-.066.033-.1.1-.1h.48c.066,0,.1.034.1.1v.33c0,.027.009.043.025.05.017.007.035-.003.055-.03.313-.367.717-.55,1.21-.55.32,0,.596.063.825.19.23.126.412.3.545.52.026.046.061.046.101,0,.187-.227.383-.402.59-.525.206-.123.456-.185.75-.185.493,0,.875.144,1.145.43.271.287.405.653.405,1.1v3.11c0,.067-.033.1-.1.1h-.53c-.067,0-.101-.033-.101-.1v-2.99c0-.327-.085-.575-.255-.745s-.411-.255-.725-.255c-.44,0-.783.213-1.03.64-.04.067-.06.147-.06.24v3.11c0,.067-.034.1-.101.1h-.529c-.067,0-.101-.033-.101-.1v-2.99c0-.327-.083-.575-.25-.745s-.406-.255-.72-.255c-.22,0-.42.057-.6.17-.181.113-.33.277-.45.49-.034.067-.05.14-.05.22v3.11c0,.067-.034.1-.101.1Z"/>
    <path d="M185.847,145.073c-.356-.216-.637-.51-.84-.88s-.305-.775-.305-1.215.102-.845.305-1.215c.203-.37.483-.663.84-.88.356-.216.755-.325,1.195-.325s.838.109,1.195.325c.356.217.637.51.84.88.203.37.305.775.305,1.215s-.102.845-.305,1.215-.483.664-.84.88c-.357.217-.755.325-1.195.325s-.839-.108-1.195-.325ZM187.867,144.493c.243-.156.433-.368.569-.635s.205-.56.205-.88-.068-.613-.205-.88c-.137-.267-.326-.478-.569-.635s-.519-.235-.825-.235-.582.078-.825.235-.434.368-.569.635c-.137.267-.205.56-.205.88s.068.613.205.88c.136.267.326.479.569.635.243.157.519.235.825.235s.582-.079.825-.235Z"/>
    <path d="M191.202,145.298h-.53c-.066,0-.101-.033-.101-.1v-4.44c0-.066.034-.1.101-.1h.479c.067,0,.101.034.101.1v.33c0,.027.008.043.024.05.017.007.035-.003.056-.03.16-.18.336-.316.529-.41.193-.093.421-.14.681-.14.493,0,.876.144,1.149.43s.41.653.41,1.1v3.11c0,.067-.033.1-.1.1h-.53c-.066,0-.1-.033-.1-.1v-2.99c0-.327-.084-.575-.25-.745-.167-.17-.407-.255-.721-.255-.22,0-.42.057-.6.17s-.33.277-.45.49c-.033.067-.05.137-.05.21v3.12c0,.067-.033.1-.1.1Z"/>
    <path d="M201.537,138.538c.303.16.533.38.689.66.157.28.235.597.235.95,0,.32-.077.612-.23.875s-.359.468-.619.615c-.067.04-.067.077,0,.11.306.153.55.373.729.66s.271.61.271.97c0,.56-.188,1.02-.561,1.38s-.9.54-1.58.54h-2.02c-.067,0-.101-.033-.101-.1v-6.8c0-.067.033-.1.101-.1h2c.42,0,.781.08,1.085.24ZM199.092,139.058v2.27c0,.034.017.05.05.05h1.221c.433,0,.763-.104.989-.31s.34-.497.34-.87-.113-.665-.34-.875-.557-.315-.989-.315h-1.221c-.033,0-.05.017-.05.05ZM199.092,142.138v2.4c0,.033.017.05.05.05h1.26c.474,0,.832-.11,1.075-.33.243-.22.365-.526.365-.92s-.122-.7-.365-.92c-.243-.22-.602-.33-1.075-.33h-1.26c-.033,0-.05.017-.05.05Z"/>
    <path d="M204.787,145.108c-.356-.2-.635-.485-.835-.855s-.3-.795-.3-1.275.098-.903.295-1.27c.196-.367.466-.65.81-.85.344-.2.729-.3,1.155-.3.42,0,.802.1,1.145.3.344.2.612.475.806.825.193.35.29.745.29,1.185,0,.1-.004.177-.011.23-.013.054-.047.08-.1.08h-3.53c-.08,0-.109.043-.09.13.054.44.222.79.505,1.05.283.26.646.39,1.085.39.5,0,.937-.193,1.311-.58.073-.073.13-.087.17-.04l.33.36c.046.04.046.083,0,.13-.24.253-.516.449-.825.585-.311.137-.639.205-.985.205-.46,0-.868-.1-1.225-.3ZM207.372,142.478c-.066-.38-.231-.685-.495-.915s-.585-.345-.965-.345-.705.119-.976.355c-.27.237-.435.542-.494.915l-.011.05c0,.04.033.06.101.06h2.75c.08,0,.109-.04.09-.12Z"/>
    <path d="M209.932,145.298h-.53c-.066,0-.1-.033-.1-.1v-4.44c0-.066.033-.1.1-.1h.48c.066,0,.1.034.1.1v.33c0,.027.009.043.025.05.017.007.035-.003.055-.03.16-.18.337-.316.53-.41.193-.093.42-.14.68-.14.493,0,.877.144,1.15.43s.41.653.41,1.1v3.11c0,.067-.034.1-.101.1h-.529c-.067,0-.101-.033-.101-.1v-2.99c0-.327-.083-.575-.25-.745s-.406-.255-.72-.255c-.22,0-.42.057-.6.17-.181.113-.33.277-.45.49-.034.067-.05.137-.05.21v3.12c0,.067-.034.1-.101.1Z"/>
    <path d="M214.547,145.108c-.271-.2-.459-.467-.565-.8l-.01-.04c0-.04.023-.067.07-.08l.479-.17.04-.01c.04,0,.07.027.09.08.061.213.176.38.346.5s.352.18.545.18c.279,0,.493-.068.64-.205s.22-.312.22-.525-.071-.38-.215-.5c-.144-.12-.342-.204-.595-.25l-.4-.08c-.34-.067-.609-.218-.81-.455s-.3-.521-.3-.855c0-.247.063-.473.189-.68.127-.207.306-.368.535-.485.23-.117.488-.175.775-.175.366,0,.678.095.935.285s.436.462.535.815l.01.04c0,.04-.026.07-.08.09l-.47.12-.04.01c-.04,0-.066-.027-.08-.08-.054-.2-.148-.356-.285-.47-.137-.113-.312-.17-.524-.17-.233,0-.422.063-.565.19-.144.127-.215.287-.215.48,0,.2.057.354.17.46.113.107.283.184.51.23l.391.08c.373.074.675.229.904.465.23.236.346.548.346.935,0,.4-.142.728-.426.985-.283.257-.668.385-1.154.385-.394,0-.726-.1-.995-.3Z"/>
    <path d="M219.137,145.073c-.356-.216-.637-.51-.84-.88s-.305-.775-.305-1.215.102-.845.305-1.215c.203-.37.483-.663.84-.88.356-.216.755-.325,1.195-.325s.838.109,1.195.325c.356.217.637.51.84.88.203.37.305.775.305,1.215s-.102.845-.305,1.215-.483.664-.84.88c-.357.217-.755.325-1.195.325s-.839-.108-1.195-.325ZM221.157,144.493c.243-.156.433-.368.569-.635s.205-.56.205-.88-.068-.613-.205-.88c-.137-.267-.326-.478-.569-.635s-.519-.235-.825-.235-.582.078-.825.235-.434.368-.569.635c-.137.267-.205.56-.205.88s.068.613.205.88c.136.267.326.479.569.635.243.157.519.235.825.235s.582-.079.825-.235Z"/>
    <path d="M224.492,145.298h-.53c-.066,0-.101-.033-.101-.1v-4.44c0-.066.034-.1.101-.1h.479c.067,0,.101.034.101.1v.33c0,.027.008.043.024.05.017.007.035-.003.056-.03.16-.18.336-.316.529-.41.193-.093.421-.14.681-.14.493,0,.876.144,1.149.43s.41.653.41,1.1v3.11c0,.067-.033.1-.1.1h-.53c-.066,0-.1-.033-.1-.1v-2.99c0-.327-.084-.575-.25-.745-.167-.17-.407-.255-.721-.255-.22,0-.42.057-.6.17s-.33.277-.45.49c-.033.067-.05.137-.05.21v3.12c0,.067-.033.1-.1.1Z"/>
  </g>
</svg>