%TF.GenerationSoftware,KiCad,Pcbnew,9.0.4*%
%TF.CreationDate,2026-03-17T17:14:05+01:00*%
%TF.ProjectId,Expresso Enclosure Backpanel,45787072-6573-4736-9f20-456e636c6f73,rev?*%
%TF.SameCoordinates,Original*%
%TF.FileFunction,Profile,NP*%
%FSLAX46Y46*%
G04 Gerber Fmt 4.6, Leading zero omitted, Abs format (unit mm)*
G04 Created by KiCad (PCBNEW 9.0.4) date 2026-03-17 17:14:05*
%MOMM*%
%LPD*%
G01*
G04 APERTURE LIST*
%TA.AperFunction,Profile*%
%ADD10C,0.003527*%
%TD*%
G04 APERTURE END LIST*
D10*
X138389616Y-81274513D02*
X138671463Y-81295945D01*
X138949213Y-81331239D01*
X139222517Y-81380046D01*
X139491025Y-81442017D01*
X139754389Y-81516804D01*
X140012260Y-81604058D01*
X140264290Y-81703430D01*
X140510129Y-81814571D01*
X140749430Y-81937134D01*
X140981843Y-82070769D01*
X141207020Y-82215127D01*
X141424612Y-82369859D01*
X141634270Y-82534618D01*
X141835645Y-82709054D01*
X142028390Y-82892819D01*
X142212155Y-83085563D01*
X142386591Y-83286939D01*
X142551350Y-83496597D01*
X142706082Y-83714188D01*
X142850441Y-83939365D01*
X142984075Y-84171778D01*
X143106638Y-84411079D01*
X143217780Y-84656918D01*
X143317152Y-84908948D01*
X143404406Y-85166819D01*
X143479193Y-85430183D01*
X143541164Y-85698691D01*
X143589971Y-85971994D01*
X143625265Y-86249744D01*
X143646697Y-86531592D01*
X143653919Y-86817189D01*
X143646697Y-87102786D01*
X143625265Y-87384634D01*
X143589971Y-87662384D01*
X143541164Y-87935688D01*
X143479193Y-88204196D01*
X143404406Y-88467560D01*
X143317152Y-88725431D01*
X143217780Y-88977461D01*
X143106638Y-89223300D01*
X142984075Y-89462601D01*
X142850441Y-89695014D01*
X142706082Y-89920191D01*
X142551350Y-90137783D01*
X142386591Y-90347441D01*
X142212155Y-90548817D01*
X142028390Y-90741561D01*
X141835645Y-90925326D01*
X141634270Y-91099762D01*
X141424612Y-91264521D01*
X141207020Y-91419253D01*
X140981843Y-91563611D01*
X140749430Y-91697246D01*
X140510129Y-91819809D01*
X140264290Y-91930950D01*
X140012260Y-92030322D01*
X139754389Y-92117576D01*
X139491025Y-92192363D01*
X139222517Y-92254335D01*
X138949213Y-92303141D01*
X138671463Y-92338435D01*
X138389616Y-92359867D01*
X138104019Y-92367089D01*
X137818422Y-92359867D01*
X137536575Y-92338435D01*
X137258825Y-92303141D01*
X136985522Y-92254335D01*
X136717014Y-92192363D01*
X136453651Y-92117576D01*
X136195779Y-92030322D01*
X135943750Y-91930950D01*
X135697910Y-91819809D01*
X135458610Y-91697246D01*
X135226196Y-91563611D01*
X135001020Y-91419253D01*
X134783428Y-91264521D01*
X134573770Y-91099762D01*
X134372394Y-90925326D01*
X134179649Y-90741561D01*
X133995884Y-90548817D01*
X133821448Y-90347441D01*
X133656689Y-90137783D01*
X133501956Y-89920191D01*
X133357598Y-89695014D01*
X133223963Y-89462601D01*
X133101400Y-89223300D01*
X132990258Y-88977461D01*
X132890886Y-88725431D01*
X132803632Y-88467560D01*
X132728845Y-88204196D01*
X132666873Y-87935688D01*
X132618066Y-87662384D01*
X132582772Y-87384634D01*
X132561340Y-87102786D01*
X132554119Y-86817189D01*
X132561340Y-86531592D01*
X132582772Y-86249744D01*
X132618066Y-85971994D01*
X132666873Y-85698691D01*
X132728845Y-85430183D01*
X132803632Y-85166819D01*
X132890886Y-84908948D01*
X132990258Y-84656918D01*
X133101400Y-84411079D01*
X133223963Y-84171778D01*
X133357598Y-83939365D01*
X133501956Y-83714188D01*
X133656689Y-83496597D01*
X133821448Y-83286939D01*
X133995884Y-83085563D01*
X134179649Y-82892819D01*
X134372394Y-82709054D01*
X134573770Y-82534618D01*
X134783428Y-82369859D01*
X135001020Y-82215127D01*
X135226196Y-82070769D01*
X135458610Y-81937134D01*
X135697910Y-81814571D01*
X135943750Y-81703430D01*
X136195779Y-81604058D01*
X136453651Y-81516804D01*
X136717014Y-81442017D01*
X136985522Y-81380046D01*
X137258825Y-81331239D01*
X137536575Y-81295945D01*
X137818422Y-81274513D01*
X138104019Y-81267291D01*
X138389616Y-81274513D01*
X117079728Y-81274513D02*
X117361575Y-81295945D01*
X117639325Y-81331239D01*
X117912629Y-81380046D01*
X118181136Y-81442017D01*
X118444500Y-81516804D01*
X118702372Y-81604058D01*
X118954401Y-81703430D01*
X119200241Y-81814571D01*
X119439541Y-81937134D01*
X119671954Y-82070769D01*
X119897131Y-82215127D01*
X120114723Y-82369859D01*
X120324381Y-82534618D01*
X120525756Y-82709054D01*
X120718501Y-82892819D01*
X120902265Y-83085563D01*
X121076701Y-83286939D01*
X121241460Y-83496597D01*
X121396193Y-83714188D01*
X121540551Y-83939365D01*
X121674185Y-84171778D01*
X121796748Y-84411079D01*
X121907890Y-84656918D01*
X122007262Y-84908948D01*
X122094516Y-85166819D01*
X122169303Y-85430183D01*
X122231274Y-85698691D01*
X122280081Y-85971994D01*
X122315375Y-86249744D01*
X122336807Y-86531592D01*
X122344028Y-86817189D01*
X122336807Y-87102786D01*
X122315375Y-87384634D01*
X122280081Y-87662384D01*
X122231274Y-87935688D01*
X122169303Y-88204196D01*
X122094516Y-88467560D01*
X122007262Y-88725431D01*
X121907890Y-88977461D01*
X121796748Y-89223300D01*
X121674185Y-89462601D01*
X121540551Y-89695014D01*
X121396193Y-89920191D01*
X121241460Y-90137783D01*
X121076701Y-90347441D01*
X120902265Y-90548817D01*
X120718501Y-90741561D01*
X120525756Y-90925326D01*
X120324381Y-91099762D01*
X120114723Y-91264521D01*
X119897131Y-91419253D01*
X119671954Y-91563611D01*
X119439541Y-91697246D01*
X119200241Y-91819809D01*
X118954401Y-91930950D01*
X118702372Y-92030322D01*
X118444500Y-92117576D01*
X118181136Y-92192363D01*
X117912629Y-92254335D01*
X117639325Y-92303141D01*
X117361575Y-92338435D01*
X117079728Y-92359867D01*
X116794131Y-92367089D01*
X116508533Y-92359867D01*
X116226685Y-92338435D01*
X115948935Y-92303141D01*
X115675632Y-92254335D01*
X115407124Y-92192363D01*
X115143760Y-92117576D01*
X114885888Y-92030322D01*
X114633859Y-91930950D01*
X114388019Y-91819809D01*
X114148718Y-91697246D01*
X113916305Y-91563611D01*
X113691128Y-91419253D01*
X113473536Y-91264521D01*
X113263878Y-91099762D01*
X113062503Y-90925326D01*
X112869758Y-90741561D01*
X112685994Y-90548817D01*
X112511558Y-90347441D01*
X112346799Y-90137783D01*
X112192066Y-89920191D01*
X112047708Y-89695014D01*
X111914073Y-89462601D01*
X111791511Y-89223300D01*
X111680369Y-88977461D01*
X111580997Y-88725431D01*
X111493743Y-88467560D01*
X111418956Y-88204196D01*
X111356985Y-87935688D01*
X111308178Y-87662384D01*
X111272884Y-87384634D01*
X111251452Y-87102786D01*
X111244231Y-86817189D01*
X111251452Y-86531592D01*
X111272884Y-86249744D01*
X111308178Y-85971994D01*
X111356985Y-85698691D01*
X111418956Y-85430183D01*
X111493743Y-85166819D01*
X111580997Y-84908948D01*
X111680369Y-84656918D01*
X111791511Y-84411079D01*
X111914073Y-84171778D01*
X112047708Y-83939365D01*
X112192066Y-83714188D01*
X112346799Y-83496597D01*
X112511558Y-83286939D01*
X112685994Y-83085563D01*
X112869758Y-82892819D01*
X113062503Y-82709054D01*
X113263878Y-82534618D01*
X113473536Y-82369859D01*
X113691128Y-82215127D01*
X113916305Y-82070769D01*
X114148718Y-81937134D01*
X114388019Y-81814571D01*
X114633859Y-81703430D01*
X114885888Y-81604058D01*
X115143760Y-81516804D01*
X115407124Y-81442017D01*
X115675632Y-81380046D01*
X115948935Y-81331239D01*
X116226685Y-81295945D01*
X116508533Y-81274513D01*
X116794131Y-81267291D01*
X117079728Y-81274513D01*
X181074653Y-81274513D02*
X181356501Y-81295945D01*
X181634251Y-81331239D01*
X181907554Y-81380046D01*
X182176062Y-81442017D01*
X182439426Y-81516804D01*
X182697297Y-81604058D01*
X182949327Y-81703430D01*
X183195166Y-81814571D01*
X183434466Y-81937134D01*
X183666879Y-82070769D01*
X183892056Y-82215127D01*
X184109648Y-82369859D01*
X184319305Y-82534618D01*
X184520681Y-82709054D01*
X184713425Y-82892819D01*
X184897190Y-83085563D01*
X185071626Y-83286939D01*
X185236384Y-83496597D01*
X185391117Y-83714188D01*
X185535475Y-83939365D01*
X185669109Y-84171778D01*
X185791672Y-84411079D01*
X185902813Y-84656918D01*
X186002185Y-84908948D01*
X186089439Y-85166819D01*
X186164226Y-85430183D01*
X186226197Y-85698691D01*
X186275004Y-85971994D01*
X186310298Y-86249744D01*
X186331730Y-86531592D01*
X186338951Y-86817189D01*
X186331730Y-87102786D01*
X186310298Y-87384634D01*
X186275004Y-87662384D01*
X186226197Y-87935688D01*
X186164226Y-88204196D01*
X186089439Y-88467560D01*
X186002185Y-88725431D01*
X185902813Y-88977461D01*
X185791672Y-89223300D01*
X185669109Y-89462601D01*
X185535475Y-89695014D01*
X185391117Y-89920191D01*
X185236384Y-90137783D01*
X185071626Y-90347441D01*
X184897190Y-90548817D01*
X184713425Y-90741561D01*
X184520681Y-90925326D01*
X184319305Y-91099762D01*
X184109648Y-91264521D01*
X183892056Y-91419253D01*
X183666879Y-91563611D01*
X183434466Y-91697246D01*
X183195166Y-91819809D01*
X182949327Y-91930950D01*
X182697297Y-92030322D01*
X182439426Y-92117576D01*
X182176062Y-92192363D01*
X181907554Y-92254335D01*
X181634251Y-92303141D01*
X181356501Y-92338435D01*
X181074653Y-92359867D01*
X180789056Y-92367089D01*
X180503459Y-92359867D01*
X180221612Y-92338435D01*
X179943862Y-92303141D01*
X179670559Y-92254335D01*
X179402051Y-92192363D01*
X179138687Y-92117576D01*
X178880816Y-92030322D01*
X178628786Y-91930950D01*
X178382947Y-91819809D01*
X178143646Y-91697246D01*
X177911233Y-91563611D01*
X177686057Y-91419253D01*
X177468465Y-91264521D01*
X177258807Y-91099762D01*
X177057432Y-90925326D01*
X176864688Y-90741561D01*
X176680923Y-90548817D01*
X176506487Y-90347441D01*
X176341729Y-90137783D01*
X176186996Y-89920191D01*
X176042638Y-89695014D01*
X175909004Y-89462601D01*
X175786441Y-89223300D01*
X175675300Y-88977461D01*
X175575927Y-88725431D01*
X175488674Y-88467560D01*
X175413887Y-88204196D01*
X175351916Y-87935688D01*
X175303109Y-87662384D01*
X175267815Y-87384634D01*
X175246383Y-87102786D01*
X175239162Y-86817189D01*
X175246383Y-86531592D01*
X175267815Y-86249744D01*
X175303109Y-85971994D01*
X175351916Y-85698691D01*
X175413887Y-85430183D01*
X175488674Y-85166819D01*
X175575927Y-84908948D01*
X175675300Y-84656918D01*
X175786441Y-84411079D01*
X175909004Y-84171778D01*
X176042638Y-83939365D01*
X176186996Y-83714188D01*
X176341729Y-83496597D01*
X176506487Y-83286939D01*
X176680923Y-83085563D01*
X176864688Y-82892819D01*
X177057432Y-82709054D01*
X177258807Y-82534618D01*
X177468465Y-82369859D01*
X177686057Y-82215127D01*
X177911233Y-82070769D01*
X178143646Y-81937134D01*
X178382947Y-81814571D01*
X178628786Y-81703430D01*
X178880816Y-81604058D01*
X179138687Y-81516804D01*
X179402051Y-81442017D01*
X179670559Y-81380046D01*
X179943862Y-81331239D01*
X180221612Y-81295945D01*
X180503459Y-81274513D01*
X180789056Y-81267291D01*
X181074653Y-81274513D01*
X192714480Y-59823504D02*
X192968398Y-59842812D01*
X193218624Y-59874608D01*
X193464844Y-59918578D01*
X193706744Y-59974408D01*
X193944009Y-60041784D01*
X194176326Y-60120391D01*
X194403380Y-60209916D01*
X194624858Y-60310044D01*
X194840444Y-60420461D01*
X195049826Y-60540853D01*
X195252688Y-60670905D01*
X195448717Y-60810304D01*
X195637598Y-60958736D01*
X195819018Y-61115886D01*
X195992662Y-61281440D01*
X196158216Y-61455084D01*
X196315366Y-61636504D01*
X196463797Y-61825385D01*
X196603196Y-62021414D01*
X196733248Y-62224276D01*
X196853640Y-62433658D01*
X196964057Y-62649245D01*
X197064185Y-62870722D01*
X197153709Y-63097776D01*
X197232316Y-63330093D01*
X197299692Y-63567358D01*
X197355522Y-63809258D01*
X197399492Y-64055478D01*
X197431288Y-64305703D01*
X197450596Y-64559621D01*
X197457102Y-64816916D01*
X197457102Y-99817043D01*
X197450596Y-100074338D01*
X197431288Y-100328256D01*
X197399492Y-100578481D01*
X197355522Y-100824701D01*
X197299692Y-101066600D01*
X197232316Y-101303866D01*
X197153709Y-101536183D01*
X197064185Y-101763237D01*
X196964057Y-101984715D01*
X196853640Y-102200301D01*
X196733248Y-102409683D01*
X196603196Y-102612546D01*
X196463797Y-102808575D01*
X196315366Y-102997457D01*
X196158216Y-103178877D01*
X195992662Y-103352521D01*
X195819018Y-103518075D01*
X195637598Y-103675225D01*
X195448717Y-103823657D01*
X195252688Y-103963056D01*
X195049826Y-104093109D01*
X194840444Y-104213501D01*
X194624858Y-104323918D01*
X194403380Y-104424046D01*
X194176326Y-104513571D01*
X193944009Y-104592179D01*
X193706744Y-104659555D01*
X193464844Y-104715385D01*
X193218624Y-104759355D01*
X192968398Y-104791151D01*
X192714480Y-104810460D01*
X192457185Y-104816966D01*
X105112956Y-104816966D01*
X104855661Y-104810460D01*
X104601743Y-104791151D01*
X104351518Y-104759355D01*
X104105298Y-104715385D01*
X103863398Y-104659555D01*
X103626133Y-104592179D01*
X103393816Y-104513571D01*
X103166762Y-104424046D01*
X102945285Y-104323918D01*
X102729698Y-104213501D01*
X102520317Y-104093109D01*
X102317454Y-103963056D01*
X102121425Y-103823657D01*
X101932544Y-103675225D01*
X101751124Y-103518075D01*
X101577480Y-103352521D01*
X101411926Y-103178877D01*
X101254776Y-102997457D01*
X101106345Y-102808575D01*
X100966946Y-102612546D01*
X100836893Y-102409683D01*
X100716501Y-102200301D01*
X100606084Y-101984715D01*
X100505957Y-101763237D01*
X100416432Y-101536183D01*
X100337825Y-101303866D01*
X100270449Y-101066600D01*
X100214619Y-100824701D01*
X100170649Y-100578481D01*
X100138852Y-100328256D01*
X100119544Y-100074338D01*
X100113038Y-99817043D01*
X100113038Y-64816916D01*
X100119544Y-64559621D01*
X100138852Y-64305703D01*
X100170649Y-64055478D01*
X100214619Y-63809258D01*
X100270449Y-63567358D01*
X100337825Y-63330093D01*
X100416432Y-63097776D01*
X100505957Y-62870722D01*
X100606084Y-62649245D01*
X100716501Y-62433658D01*
X100836893Y-62224276D01*
X100966946Y-62021414D01*
X101106345Y-61825385D01*
X101254776Y-61636504D01*
X101411926Y-61455084D01*
X101577480Y-61281440D01*
X101751124Y-61115886D01*
X101932544Y-60958736D01*
X102121425Y-60810304D01*
X102317454Y-60670905D01*
X102520317Y-60540853D01*
X102729698Y-60420461D01*
X102945285Y-60310044D01*
X103166762Y-60209916D01*
X103393816Y-60120391D01*
X103626133Y-60041784D01*
X103863398Y-59974408D01*
X104105298Y-59918578D01*
X104351518Y-59874608D01*
X104601743Y-59842812D01*
X104855661Y-59823504D01*
X105112956Y-59816998D01*
X192457185Y-59816998D01*
X192714480Y-59823504D01*
X159725609Y-81274513D02*
X160007457Y-81295945D01*
X160285206Y-81331239D01*
X160558510Y-81380046D01*
X160827017Y-81442017D01*
X161090381Y-81516804D01*
X161348252Y-81604058D01*
X161600282Y-81703430D01*
X161846121Y-81814571D01*
X162085422Y-81937134D01*
X162317835Y-82070769D01*
X162543011Y-82215127D01*
X162760603Y-82369859D01*
X162970261Y-82534618D01*
X163171636Y-82709054D01*
X163364381Y-82892819D01*
X163548145Y-83085563D01*
X163722581Y-83286939D01*
X163887340Y-83496597D01*
X164042072Y-83714188D01*
X164186430Y-83939365D01*
X164320065Y-84171778D01*
X164442627Y-84411079D01*
X164553769Y-84656918D01*
X164653141Y-84908948D01*
X164740394Y-85166819D01*
X164815181Y-85430183D01*
X164877153Y-85698691D01*
X164925959Y-85971994D01*
X164961253Y-86249744D01*
X164982685Y-86531592D01*
X164989907Y-86817189D01*
X164982685Y-87102786D01*
X164961253Y-87384634D01*
X164925959Y-87662384D01*
X164877153Y-87935688D01*
X164815181Y-88204196D01*
X164740394Y-88467560D01*
X164653141Y-88725431D01*
X164553769Y-88977461D01*
X164442627Y-89223300D01*
X164320065Y-89462601D01*
X164186430Y-89695014D01*
X164042072Y-89920191D01*
X163887340Y-90137783D01*
X163722581Y-90347441D01*
X163548145Y-90548817D01*
X163364381Y-90741561D01*
X163171636Y-90925326D01*
X162970261Y-91099762D01*
X162760603Y-91264521D01*
X162543011Y-91419253D01*
X162317835Y-91563611D01*
X162085422Y-91697246D01*
X161846121Y-91819809D01*
X161600282Y-91930950D01*
X161348252Y-92030322D01*
X161090381Y-92117576D01*
X160827017Y-92192363D01*
X160558510Y-92254335D01*
X160285206Y-92303141D01*
X160007457Y-92338435D01*
X159725609Y-92359867D01*
X159440012Y-92367089D01*
X159154415Y-92359867D01*
X158872567Y-92338435D01*
X158594817Y-92303141D01*
X158321514Y-92254335D01*
X158053006Y-92192363D01*
X157789642Y-92117576D01*
X157531771Y-92030322D01*
X157279742Y-91930950D01*
X157033902Y-91819809D01*
X156794602Y-91697246D01*
X156562189Y-91563611D01*
X156337012Y-91419253D01*
X156119421Y-91264521D01*
X155909763Y-91099762D01*
X155708387Y-90925326D01*
X155515643Y-90741561D01*
X155331879Y-90548817D01*
X155157443Y-90347441D01*
X154992684Y-90137783D01*
X154837951Y-89920191D01*
X154693594Y-89695014D01*
X154559959Y-89462601D01*
X154437397Y-89223300D01*
X154326255Y-88977461D01*
X154226883Y-88725431D01*
X154139629Y-88467560D01*
X154064842Y-88204196D01*
X154002871Y-87935688D01*
X153954064Y-87662384D01*
X153918770Y-87384634D01*
X153897338Y-87102786D01*
X153890117Y-86817189D01*
X153897338Y-86531592D01*
X153918770Y-86249744D01*
X153954064Y-85971994D01*
X154002871Y-85698691D01*
X154064842Y-85430183D01*
X154139629Y-85166819D01*
X154226883Y-84908948D01*
X154326255Y-84656918D01*
X154437397Y-84411079D01*
X154559959Y-84171778D01*
X154693594Y-83939365D01*
X154837951Y-83714188D01*
X154992684Y-83496597D01*
X155157443Y-83286939D01*
X155331879Y-83085563D01*
X155515643Y-82892819D01*
X155708387Y-82709054D01*
X155909763Y-82534618D01*
X156119421Y-82369859D01*
X156337012Y-82215127D01*
X156562189Y-82070769D01*
X156794602Y-81937134D01*
X157033902Y-81814571D01*
X157279742Y-81703430D01*
X157531771Y-81604058D01*
X157789642Y-81516804D01*
X158053006Y-81442017D01*
X158321514Y-81380046D01*
X158594817Y-81331239D01*
X158872567Y-81295945D01*
X159154415Y-81274513D01*
X159440012Y-81267291D01*
X159725609Y-81274513D01*
M02*
