<?xml version="1.0" encoding="UTF-8"?>
<svg id="Layer_2" data-name="Layer 2" xmlns="http://www.w3.org/2000/svg" viewBox="0 0 841.89 595.28">
  <defs>
    <style>
      .cls-1 {
        fill: #231f20;
        stroke: #231f20;
        stroke-miterlimit: 10;
      }
    </style>
  </defs>
  <path class="cls-1" d="M225.73,58.38c61.84,44.76-28.96,150.07,41.25,211.68,47.64,41.81,79.42-12.9,132.46-9.08,126.73,9.12,160.96,142.96,242.68,169.24,28.94,9.31,72.71-9.13,77.45-4.64,5.17,4.9-15.77,39.09-66.85,31.14-60.74-9.46-147.58-62.43-165.5-51.09-18.86,11.94,2.66,84.27,9.64,114.85,4.64,20.32-70.43,21.82-68.23,9.2,5.74-32.91,10.83-91.36-5.41-107.78-6.43-6.5-93.22-5.24-103.22-1.18-39.64,16.09-18.04,83.26-15.87,106.98,2.15,23.44-85.42,20.73-74.42,1.06,26.5-47.41,50.22-132.93,1.87-193.65-85.21-107.01-8.71-170.8-64.15-188.58-24.62-7.9-44.5-22.97-45.79-42.74-2.12-32.45,39.36-34.67,41.79-37.18,11.22-11.63,40.37-24.11,62.31-8.23Z"/>
</svg>