  0
SECTION
  2
HEADER
  9
$ACADVER
  1
AC1032
  9
$ACADMAINTVER
 90
      329
  9
$DWGCODEPAGE
  3
ANSI_1252
  9
$REQUIREDVERSIONS
160
                 0
  9
$INSBASE
 10
0.0
 20
0.0
 30
0.0
  9
$EXTMIN
 10
1.000000000000000E+20
 20
1.000000000000000E+20
 30
1.000000000000000E+20
  9
$EXTMAX
 10
-1.000000000000000E+20
 20
-1.000000000000000E+20
 30
-1.000000000000000E+20
  9
$LIMMIN
 10
0.0
 20
0.0
  9
$LIMMAX
 10
12.0
 20
9.0
  9
$ORTHOMODE
 70
     0
  9
$REGENMODE
 70
     1
  9
$FILLMODE
 70
     1
  9
$QTEXTMODE
 70
     0
  9
$MIRRTEXT
 70
     0
  9
$LTSCALE
 40
1.0
  9
$ATTMODE
 70
     1
  9
$TEXTSIZE
 40
0.2
  9
$TRACEWID
 40
0.05
  9
$TEXTSTYLE
  7
Standard
  9
$CLAYER
  8
0
  9
$CELTYPE
  6
ByLayer
  9
$CECOLOR
 62
   256
  9
$CELTSCALE
 40
1.0
  9
$DISPSILH
 70
     0
  9
$DIMSCALE
 40
1.0
  9
$DIMASZ
 40
0.18
  9
$DIMEXO
 40
0.0625
  9
$DIMDLI
 40
0.38
  9
$DIMRND
 40
0.0
  9
$DIMDLE
 40
0.0
  9
$DIMEXE
 40
0.18
  9
$DIMTP
 40
0.0
  9
$DIMTM
 40
0.0
  9
$DIMTXT
 40
0.18
  9
$DIMCEN
 40
0.09
  9
$DIMTSZ
 40
0.0
  9
$DIMTOL
 70
     0
  9
$DIMLIM
 70
     0
  9
$DIMTIH
 70
     1
  9
$DIMTOH
 70
     1
  9
$DIMSE1
 70
     0
  9
$DIMSE2
 70
     0
  9
$DIMTAD
 70
     0
  9
$DIMZIN
 70
     0
  9
$DIMBLK
  1

  9
$DIMASO
 70
     1
  9
$DIMSHO
 70
     1
  9
$DIMPOST
  1

  9
$DIMAPOST
  1

  9
$DIMALT
 70
     0
  9
$DIMALTD
 70
     2
  9
$DIMALTF
 40
25.4
  9
$DIMLFAC
 40
1.0
  9
$DIMTOFL
 70
     0
  9
$DIMTVP
 40
0.0
  9
$DIMTIX
 70
     0
  9
$DIMSOXD
 70
     0
  9
$DIMSAH
 70
     0
  9
$DIMBLK1
  1

  9
$DIMBLK2
  1

  9
$DIMSTYLE
  2
Standard
  9
$DIMCLRD
 70
     0
  9
$DIMCLRE
 70
     0
  9
$DIMCLRT
 70
     0
  9
$DIMTFAC
 40
1.0
  9
$DIMGAP
 40
0.09
  9
$DIMJUST
 70
     0
  9
$DIMSD1
 70
     0
  9
$DIMSD2
 70
     0
  9
$DIMTOLJ
 70
     1
  9
$DIMTZIN
 70
     0
  9
$DIMALTZ
 70
     0
  9
$DIMALTTZ
 70
     0
  9
$DIMUPT
 70
     0
  9
$DIMDEC
 70
     4
  9
$DIMTDEC
 70
     4
  9
$DIMALTU
 70
     2
  9
$DIMALTTD
 70
     2
  9
$DIMTXSTY
  7
Standard
  9
$DIMAUNIT
 70
     0
  9
$DIMADEC
 70
     0
  9
$DIMALTRND
 40
0.0
  9
$DIMAZIN
 70
     0
  9
$DIMDSEP
 70
    46
  9
$DIMATFIT
 70
     3
  9
$DIMFRAC
 70
     0
  9
$DIMLDRBLK
  1

  9
$DIMLUNIT
 70
     2
  9
$DIMLWD
 70
    -2
  9
$DIMLWE
 70
    -2
  9
$DIMTMOVE
 70
     0
  9
$DIMFXL
 40
1.0
  9
$DIMFXLON
 70
     0
  9
$DIMJOGANG
 40
0.7853981633974483
  9
$DIMTFILL
 70
     0
  9
$DIMTFILLCLR
 70
     0
  9
$DIMARCSYM
 70
     0
  9
$DIMLTYPE
  6

  9
$DIMLTEX1
  6

  9
$DIMLTEX2
  6

  9
$DIMTXTDIRECTION
 70
     0
  9
$LUNITS
 70
     2
  9
$LUPREC
 70
     4
  9
$SKETCHINC
 40
0.1
  9
$FILLETRAD
 40
0.0
  9
$AUNITS
 70
     0
  9
$AUPREC
 70
     0
  9
$MENU
  1
.
  9
$ELEVATION
 40
0.0
  9
$PELEVATION
 40
0.0
  9
$THICKNESS
 40
0.0
  9
$LIMCHECK
 70
     0
  9
$CHAMFERA
 40
0.0
  9
$CHAMFERB
 40
0.0
  9
$CHAMFERC
 40
0.0
  9
$CHAMFERD
 40
0.0
  9
$SKPOLY
 70
     0
  9
$TDCREATE
 40
2461111.838912037
  9
$TDUCREATE
 40
2461111.797245370
  9
$TDUPDATE
 40
2461111.838912037
  9
$TDUUPDATE
 40
2461111.797245370
  9
$TDINDWG
 40
0.0000000000
  9
$TDUSRTIMER
 40
0.0000000000
  9
$USRTIMER
 70
     1
  9
$ANGBASE
 50
0.0
  9
$ANGDIR
 70
     0
  9
$PDMODE
 70
     0
  9
$PDSIZE
 40
0.0
  9
$PLINEWID
 40
0.0
  9
$SPLFRAME
 70
     0
  9
$SPLINETYPE
 70
     6
  9
$SPLINESEGS
 70
     8
  9
$HANDSEED
  5
B4
  9
$SURFTAB1
 70
     6
  9
$SURFTAB2
 70
     6
  9
$SURFTYPE
 70
     6
  9
$SURFU
 70
     6
  9
$SURFV
 70
     6
  9
$UCSBASE
  2

  9
$UCSNAME
  2

  9
$UCSORG
 10
0.0
 20
0.0
 30
0.0
  9
$UCSXDIR
 10
1.0
 20
0.0
 30
0.0
  9
$UCSYDIR
 10
0.0
 20
1.0
 30
0.0
  9
$UCSORTHOREF
  2

  9
$UCSORTHOVIEW
 70
     0
  9
$UCSORGTOP
 10
0.0
 20
0.0
 30
0.0
  9
$UCSORGBOTTOM
 10
0.0
 20
0.0
 30
0.0
  9
$UCSORGLEFT
 10
0.0
 20
0.0
 30
0.0
  9
$UCSORGRIGHT
 10
0.0
 20
0.0
 30
0.0
  9
$UCSORGFRONT
 10
0.0
 20
0.0
 30
0.0
  9
$UCSORGBACK
 10
0.0
 20
0.0
 30
0.0
  9
$PUCSBASE
  2

  9
$PUCSNAME
  2

  9
$PUCSORG
 10
0.0
 20
0.0
 30
0.0
  9
$PUCSXDIR
 10
1.0
 20
0.0
 30
0.0
  9
$PUCSYDIR
 10
0.0
 20
1.0
 30
0.0
  9
$PUCSORTHOREF
  2

  9
$PUCSORTHOVIEW
 70
     0
  9
$PUCSORGTOP
 10
0.0
 20
0.0
 30
0.0
  9
$PUCSORGBOTTOM
 10
0.0
 20
0.0
 30
0.0
  9
$PUCSORGLEFT
 10
0.0
 20
0.0
 30
0.0
  9
$PUCSORGRIGHT
 10
0.0
 20
0.0
 30
0.0
  9
$PUCSORGFRONT
 10
0.0
 20
0.0
 30
0.0
  9
$PUCSORGBACK
 10
0.0
 20
0.0
 30
0.0
  9
$USERI1
 70
     0
  9
$USERI2
 70
     0
  9
$USERI3
 70
     0
  9
$USERI4
 70
     0
  9
$USERI5
 70
     0
  9
$USERR1
 40
0.0
  9
$USERR2
 40
0.0
  9
$USERR3
 40
0.0
  9
$USERR4
 40
0.0
  9
$USERR5
 40
0.0
  9
$WORLDVIEW
 70
     1
  9
$SHADEDGE
 70
     3
  9
$SHADEDIF
 70
    70
  9
$TILEMODE
 70
     1
  9
$MAXACTVP
 70
    64
  9
$PINSBASE
 10
0.0
 20
0.0
 30
0.0
  9
$PLIMCHECK
 70
     0
  9
$PEXTMIN
 10
1.000000000000000E+20
 20
1.000000000000000E+20
 30
1.000000000000000E+20
  9
$PEXTMAX
 10
-1.000000000000000E+20
 20
-1.000000000000000E+20
 30
-1.000000000000000E+20
  9
$PLIMMIN
 10
0.0
 20
0.0
  9
$PLIMMAX
 10
12.0
 20
9.0
  9
$UNITMODE
 70
     0
  9
$VISRETAIN
 70
     1
  9
$PLINEGEN
 70
     0
  9
$PSLTSCALE
 70
     1
  9
$TREEDEPTH
 70
  3020
  9
$CMLSTYLE
  2
Standard
  9
$CMLJUST
 70
     0
  9
$CMLSCALE
 40
1.0
  9
$PROXYGRAPHICS
 70
     1
  9
$MEASUREMENT
 70
     0
  9
$CELWEIGHT
370
    -1
  9
$ENDCAPS
280
     0
  9
$JOINSTYLE
280
     0
  9
$LWDISPLAY
290
     1
  9
$INSUNITS
 70
     4
  9
$HYPERLINKBASE
  1

  9
$STYLESHEET
  1

  9
$XEDIT
290
     1
  9
$CEPSNTYPE
380
     0
  9
$PSTYLEMODE
290
     1
  9
$FINGERPRINTGUID
  2
{C5D55AAF-D9AD-8246-A836-88FE265F5A8A}
  9
$VERSIONGUID
  2
{402B6161-C726-BB48-B2D5-9D64BDFBB425}
  9
$EXTNAMES
290
     1
  9
$PSVPSCALE
 40
0.0
  9
$OLESTARTUP
290
     0
  9
$SORTENTS
280
   127
  9
$INDEXCTL
280
     0
  9
$HIDETEXT
280
     1
  9
$XCLIPFRAME
280
     2
  9
$HALOGAP
280
     0
  9
$OBSCOLOR
 70
   257
  9
$OBSLTYPE
280
     0
  9
$INTERSECTIONDISPLAY
280
     0
  9
$INTERSECTIONCOLOR
 70
   257
  9
$DIMASSOC
280
     2
  9
$PROJECTNAME
  1

  9
$CAMERADISPLAY
290
     0
  9
$LENSLENGTH
 40
50.0
  9
$CAMERAHEIGHT
 40
0.0
  9
$STEPSPERSEC
 40
2.0
  9
$STEPSIZE
 40
6.0
  9
$3DDWFPREC
 40
2.0
  9
$PSOLWIDTH
 40
0.25
  9
$PSOLHEIGHT
 40
4.0
  9
$LOFTANG1
 40
1.570796326794896
  9
$LOFTANG2
 40
1.570796326794896
  9
$LOFTMAG1
 40
0.0
  9
$LOFTMAG2
 40
0.0
  9
$LOFTPARAM
 70
     7
  9
$LOFTNORMALS
280
     1
  9
$LATITUDE
 40
37.795
  9
$LONGITUDE
 40
-122.394
  9
$NORTHDIRECTION
 40
0.0
  9
$TIMEZONE
 70
 -8000
  9
$LIGHTGLYPHDISPLAY
280
     1
  9
$TILEMODELIGHTSYNCH
280
     1
  9
$CMATERIAL
347
11
  9
$SOLIDHIST
280
     0
  9
$SHOWHIST
280
     1
  9
$DWFFRAME
280
     2
  9
$DGNFRAME
280
     0
  9
$REALWORLDSCALE
290
     1
  9
$INTERFERECOLOR
 62
     1
  9
$INTERFEREOBJVS
345
33
  9
$INTERFEREVPVS
346
30
  9
$CSHADOW
280
     0
  9
$SHADOWPLANELOCATION
 40
0.0
  0
ENDSEC
  0
SECTION
  2
CLASSES
  0
CLASS
  1
ACDBDICTIONARYWDFLT
  2
AcDbDictionaryWithDefault
  3
ObjectDBX Classes
 90
        0
 91
        1
280
     0
281
     0
  0
CLASS
  1
MATERIAL
  2
AcDbMaterial
  3
ObjectDBX Classes
 90
     1153
 91
        3
280
     0
281
     0
  0
CLASS
  1
VISUALSTYLE
  2
AcDbVisualStyle
  3
ObjectDBX Classes
 90
     4095
 91
       24
280
     0
281
     0
  0
CLASS
  1
SCALE
  2
AcDbScale
  3
ObjectDBX Classes
 90
     1153
 91
       17
280
     0
281
     0
  0
CLASS
  1
TABLESTYLE
  2
AcDbTableStyle
  3
ObjectDBX Classes
 90
     4095
 91
        1
280
     0
281
     0
  0
CLASS
  1
MLEADERSTYLE
  2
AcDbMLeaderStyle
  3
ACDB_MLEADERSTYLE_CLASS
 90
     4095
 91
        1
280
     0
281
     0
  0
CLASS
  1
ACDBSECTIONVIEWSTYLE
  2
AcDbSectionViewStyle
  3
ObjectDBX Classes
 90
     1025
 91
        1
280
     0
281
     0
  0
CLASS
  1
ACDBDETAILVIEWSTYLE
  2
AcDbDetailViewStyle
  3
ObjectDBX Classes
 90
     1025
 91
        1
280
     0
281
     0
  0
CLASS
  1
DICTIONARYVAR
  2
AcDbDictionaryVar
  3
ObjectDBX Classes
 90
        0
 91
        5
280
     0
281
     0
  0
CLASS
  1
CELLSTYLEMAP
  2
AcDbCellStyleMap
  3
ObjectDBX Classes
 90
     1152
 91
        1
280
     0
281
     0
  0
ENDSEC
  0
SECTION
  2
TABLES
  0
TABLE
  2
VPORT
  5
8
330
0
100
AcDbSymbolTable
 70
     1
  0
VPORT
  5
57
330
8
100
AcDbSymbolTableRecord
100
AcDbViewportTableRecord
  2
*Active
 70
     0
 10
0.0
 20
0.0
 11
1.0
 21
1.0
 12
0.0
 22
0.0
 13
0.0
 23
0.0
 14
1.0
 24
1.0
 15
0.0
 25
0.0
 16
0.0
 26
0.0
 36
1.0
 17
148.5000119155985
 27
104.9999970067687
 37
0.0
 40
214.1999938938081
 41
1.414285868084602
 42
50.0
 43
0.0
 44
0.0
 50
0.0
 51
0.0
 71
     0
 72
   100
 73
     1
 74
     1
 75
     0
 76
     0
 77
     0
 78
     0
281
     0
 65
     1
110
0.0
120
0.0
130
0.0
111
1.0
121
0.0
131
0.0
112
0.0
122
1.0
132
0.0
 79
     0
146
0.0
 60
     3
 61
     5
292
     1
282
     1
141
0.0
142
0.0
 63
   250
421
  3355443
  0
ENDTAB
  0
TABLE
  2
LTYPE
  5
5
330
0
100
AcDbSymbolTable
 70
     1
  0
LTYPE
  5
5B
330
5
100
AcDbSymbolTableRecord
100
AcDbLinetypeTableRecord
  2
ByBlock
 70
     0
  3

 72
    65
 73
     0
 40
0.0
  0
LTYPE
  5
5C
330
5
100
AcDbSymbolTableRecord
100
AcDbLinetypeTableRecord
  2
ByLayer
 70
     0
  3

 72
    65
 73
     0
 40
0.0
  0
LTYPE
  5
5D
330
5
100
AcDbSymbolTableRecord
100
AcDbLinetypeTableRecord
  2
Continuous
 70
     0
  3
Solid line
 72
    65
 73
     0
 40
0.0
  0
ENDTAB
  0
TABLE
  2
LAYER
  5
2
330
0
100
AcDbSymbolTable
 70
     5
  0
LAYER
  5
54
330
2
100
AcDbSymbolTableRecord
100
AcDbLayerTableRecord
  2
0
 70
     0
 62
     7
  6
Continuous
370
    -3
390
F
347
21
348
0
  0
LAYER
  5
78
330
2
100
AcDbSymbolTableRecord
100
AcDbLayerTableRecord
  2
Outlines
 70
     0
 62
     7
  6
Continuous
370
     0
390
F
347
21
348
0
  0
LAYER
  5
8C
330
2
100
AcDbSymbolTableRecord
100
AcDbLayerTableRecord
  2
Engravings Bridges
 70
     0
 62
     7
  6
Continuous
370
     0
390
F
347
21
348
0
  0
LAYER
  5
A9
330
2
100
AcDbSymbolTableRecord
100
AcDbLayerTableRecord
  2
Engravings
 70
     1
 62
     7
  6
Continuous
370
     0
390
F
347
21
348
0
  0
LAYER
  5
AA
330
2
100
AcDbSymbolTableRecord
100
AcDbLayerTableRecord
  2
Engravings Objects
 70
     1
 62
     7
  6
Continuous
370
     0
390
F
347
21
348
0
  0
ENDTAB
  0
TABLE
  2
STYLE
  5
3
330
0
100
AcDbSymbolTable
 70
     2
  0
STYLE
  5
55
330
3
100
AcDbSymbolTableRecord
100
AcDbTextStyleTableRecord
  2
Standard
 70
     0
 40
0.0
 41
1.0
 50
0.0
 71
     0
 42
0.2
  3
txt
  4

  0
STYLE
  5
5A
330
3
100
AcDbSymbolTableRecord
100
AcDbTextStyleTableRecord
  2
Annotative
 70
     0
 40
0.0
 41
1.0
 50
0.0
 71
     0
 42
0.2
  3
txt
  4

1001
AcadAnnotative
1000
AnnotativeData
1002
{
1070
     1
1070
     1
1002
}
  0
ENDTAB
  0
TABLE
  2
VIEW
  5
6
330
0
100
AcDbSymbolTable
 70
     0
  0
ENDTAB
  0
TABLE
  2
UCS
  5
7
330
0
100
AcDbSymbolTable
 70
     0
  0
ENDTAB
  0
TABLE
  2
APPID
  5
9
330
0
100
AcDbSymbolTable
 70
     2
  0
APPID
  5
56
330
9
100
AcDbSymbolTableRecord
100
AcDbRegAppTableRecord
  2
ACAD
 70
     0
  0
APPID
  5
5E
330
9
100
AcDbSymbolTableRecord
100
AcDbRegAppTableRecord
  2
AcadAnnotative
 70
     0
  0
ENDTAB
  0
TABLE
  2
DIMSTYLE
  5
A
330
0
100
AcDbSymbolTable
 70
     2
100
AcDbDimStyleTable
 71
     0
  0
DIMSTYLE
105
58
330
A
100
AcDbSymbolTableRecord
100
AcDbDimStyleTableRecord
  2
Standard
 70
     0
340
55
  0
DIMSTYLE
105
59
330
A
100
AcDbSymbolTableRecord
100
AcDbDimStyleTableRecord
  2
Annotative
 70
     0
340
55
1001
AcadAnnotative
1000
AnnotativeData
1002
{
1070
     1
1070
     1
1002
}
  0
ENDTAB
  0
TABLE
  2
BLOCK_RECORD
  5
1
330
0
100
AcDbSymbolTable
 70
     1
  0
BLOCK_RECORD
  5
70
330
1
100
AcDbSymbolTableRecord
100
AcDbBlockTableRecord
  2
*Model_Space
340
73
 70
     0
280
     1
281
     0
  0
BLOCK_RECORD
  5
6C
330
1
100
AcDbSymbolTableRecord
100
AcDbBlockTableRecord
  2
*Paper_Space
340
6F
 70
     0
280
     1
281
     0
  0
BLOCK_RECORD
  5
74
330
1
100
AcDbSymbolTableRecord
100
AcDbBlockTableRecord
  2
*Paper_Space0
340
77
 70
     0
280
     1
281
     0
  0
ENDTAB
  0
ENDSEC
  0
SECTION
  2
BLOCKS
  0
BLOCK
  5
71
330
70
100
AcDbEntity
  8
0
100
AcDbBlockBegin
  2
*Model_Space
 70
     0
 10
0.0
 20
0.0
 30
0.0
  3
*Model_Space
  1

  0
ENDBLK
  5
72
330
70
100
AcDbEntity
  8
0
100
AcDbBlockEnd
  0
BLOCK
  5
6D
330
6C
100
AcDbEntity
 67
     1
  8
0
100
AcDbBlockBegin
  2
*Paper_Space
 70
     0
 10
0.0
 20
0.0
 30
0.0
  3
*Paper_Space
  1

  0
ENDBLK
  5
6E
330
6C
100
AcDbEntity
 67
     1
  8
0
100
AcDbBlockEnd
  0
BLOCK
  5
75
330
74
100
AcDbEntity
 67
     1
  8
0
100
AcDbBlockBegin
  2
*Paper_Space0
 70
     0
 10
0.0
 20
0.0
 30
0.0
  3
*Paper_Space0
  1

  0
ENDBLK
  5
76
330
74
100
AcDbEntity
 67
     1
  8
0
100
AcDbBlockEnd
  0
ENDSEC
  0
SECTION
  2
ENTITIES
  0
CIRCLE
  5
79
330
70
100
AcDbEntity
  8
Outlines
 62
    18
420
        0
370
     0
100
AcDbCircle
 10
122.695792005876
 20
97.50777577548269
 30
0.0
 40
7.800000000000034
  0
CIRCLE
  5
7A
330
70
100
AcDbEntity
  8
Outlines
 62
    18
420
        0
370
     0
100
AcDbCircle
 10
122.695792005876
 20
117.8277757754826
 30
0.0
 40
7.799999999999994
  0
CIRCLE
  5
7B
330
70
100
AcDbEntity
  8
Outlines
 62
    18
420
        0
370
     0
100
AcDbCircle
 10
122.695792005876
 20
79.21477577548261
 30
0.0
 40
2.499999999999807
  0
SPLINE
  5
7C
330
70
100
AcDbEntity
  8
Outlines
 62
    18
420
        0
370
     0
100
AcDbSpline
210
0.0
220
0.0
230
1.0
 70
     9
 71
     3
 72
    29
 73
    25
 74
     0
 42
0.0000000001
 43
0.0000000001
 40
0.0
 40
0.0
 40
0.0
 40
0.0
 40
1.0
 40
1.0
 40
1.0
 40
2.0
 40
2.0
 40
2.0
 40
3.0
 40
3.0
 40
3.0
 40
4.0
 40
4.0
 40
4.0
 40
5.0
 40
5.0
 40
5.0
 40
6.0
 40
6.0
 40
6.0
 40
7.0
 40
7.0
 40
7.0
 40
8.0
 40
8.0
 40
8.0
 40
8.0
 10
114.9957920058759
 20
132.3397757754826
 30
0.0
 10
114.9957920058759
 20
132.3397757754826
 30
0.0
 10
113.8957920058759
 20
132.3397757754826
 30
0.0
 10
113.8957920058759
 20
132.3397757754826
 30
0.0
 10
113.0673648811298
 20
132.3397757754826
 30
0.0
 10
112.3957920058762
 20
133.0113486507366
 30
0.0
 10
112.3957920058762
 20
133.8397757754826
 30
0.0
 10
112.3957920058762
 20
133.8397757754826
 30
0.0
 10
112.3957920058759
 20
141.4397757754826
 30
0.0
 10
112.3957920058759
 20
141.4397757754826
 30
0.0
 10
112.3957920058762
 20
142.2682029002287
 30
0.0
 10
113.0673648811298
 20
142.9397757754826
 30
0.0
 10
113.8957920058759
 20
142.9397757754826
 30
0.0
 10
113.8957920058759
 20
142.9397757754826
 30
0.0
 10
114.9957920058759
 20
142.9397757754826
 30
0.0
 10
114.9957920058759
 20
142.9397757754826
 30
0.0
 10
115.824219130622
 20
142.9397757754826
 30
0.0
 10
116.495792005876
 20
142.2682029002287
 30
0.0
 10
116.495792005876
 20
141.4397757754826
 30
0.0
 10
116.495792005876
 20
141.4397757754826
 30
0.0
 10
116.495792005876
 20
133.8397757754826
 30
0.0
 10
116.495792005876
 20
133.8397757754826
 30
0.0
 10
116.495792005876
 20
133.0113486507366
 30
0.0
 10
115.824219130622
 20
132.3397757754826
 30
0.0
 10
114.9957920058759
 20
132.3397757754826
 30
0.0
  0
CIRCLE
  5
7D
330
70
100
AcDbEntity
  8
Outlines
 62
    18
420
        0
370
     0
100
AcDbCircle
 10
122.695792005876
 20
70.83277577548272
 30
0.0
 40
2.499999999999887
  0
CIRCLE
  5
7E
330
70
100
AcDbEntity
  8
Outlines
 62
    18
420
        0
370
     0
100
AcDbCircle
 10
142.6957920058759
 20
61.45577577548265
 30
0.0
 40
1.500000000000133
  0
CIRCLE
  5
7F
330
70
100
AcDbEntity
  8
Outlines
 62
    18
420
        0
370
     0
100
AcDbCircle
 10
107.695792005876
 20
61.45577577548265
 30
0.0
 40
1.500000000000133
  0
CIRCLE
  5
80
330
70
100
AcDbEntity
  8
Outlines
 62
    18
420
        0
370
     0
100
AcDbCircle
 10
142.6957920058759
 20
148.7997757754825
 30
0.0
 40
1.500000000000012
  0
CIRCLE
  5
81
330
70
100
AcDbEntity
  8
Outlines
 62
    18
420
        0
370
     0
100
AcDbCircle
 10
107.695792005876
 20
148.7997757754825
 30
0.0
 40
1.500000000000012
  0
SPLINE
  5
82
330
70
100
AcDbEntity
  8
Outlines
 62
    18
420
        0
370
     0
100
AcDbSpline
210
0.0
220
0.0
230
1.0
 70
     9
 71
     3
 72
    29
 73
    25
 74
     0
 42
0.0000000001
 43
0.0000000001
 40
0.0
 40
0.0
 40
0.0
 40
0.0
 40
1.0
 40
1.0
 40
1.0
 40
2.0
 40
2.0
 40
2.0
 40
3.0
 40
3.0
 40
3.0
 40
4.0
 40
4.0
 40
4.0
 40
5.0
 40
5.0
 40
5.0
 40
6.0
 40
6.0
 40
6.0
 40
7.0
 40
7.0
 40
7.0
 40
8.0
 40
8.0
 40
8.0
 40
8.0
 10
102.6957920058761
 20
61.45577577548249
 30
0.0
 10
102.6957920058761
 20
58.69435202632899
 30
0.0
 10
104.9343682567222
 20
56.45577577548295
 30
0.0
 10
107.695792005876
 20
56.45577577548295
 30
0.0
 10
107.695792005876
 20
56.45577577548295
 30
0.0
 10
142.6957920058759
 20
56.45577577548295
 30
0.0
 10
142.6957920058759
 20
56.45577577548295
 30
0.0
 10
145.4572157550301
 20
56.45577577548295
 30
0.0
 10
147.6957920058761
 20
58.69435202632836
 30
0.0
 10
147.6957920058761
 20
61.45577577548249
 30
0.0
 10
147.6957920058761
 20
61.45577577548249
 30
0.0
 10
147.6957920058761
 20
148.7997757754824
 30
0.0
 10
147.6957920058761
 20
148.7997757754824
 30
0.0
 10
147.6957920058761
 20
151.5611995246366
 30
0.0
 10
145.4572157550301
 20
153.7997757754826
 30
0.0
 10
142.6957920058759
 20
153.7997757754826
 30
0.0
 10
142.6957920058759
 20
153.7997757754826
 30
0.0
 10
107.695792005876
 20
153.7997757754826
 30
0.0
 10
107.695792005876
 20
153.7997757754826
 30
0.0
 10
104.9343682567219
 20
153.7997757754826
 30
0.0
 10
102.6957920058761
 20
151.5611995246366
 30
0.0
 10
102.6957920058761
 20
148.7997757754824
 30
0.0
 10
102.6957920058761
 20
148.7997757754824
 30
0.0
 10
102.6957920058761
 20
61.45577577548249
 30
0.0
 10
102.6957920058761
 20
61.45577577548249
 30
0.0
  0
CIRCLE
  5
83
330
70
100
AcDbEntity
  8
Outlines
 62
    18
420
        0
370
     0
100
AcDbCircle
 10
167.6958745864426
 20
94.47277972750914
 30
0.0
 40
5.549999999999793
  0
CIRCLE
  5
84
330
70
100
AcDbEntity
  8
Outlines
 62
    18
420
        0
370
     0
100
AcDbCircle
 10
167.6958745864426
 20
115.8087797275089
 30
0.0
 40
5.550000000000034
  0
CIRCLE
  5
85
330
70
100
AcDbEntity
  8
Outlines
 62
    18
420
        0
370
     0
100
AcDbCircle
 10
167.6958745864426
 20
73.12377972750908
 30
0.0
 40
5.550000000000034
  0
CIRCLE
  5
86
330
70
100
AcDbEntity
  8
Outlines
 62
    18
420
        0
370
     0
100
AcDbCircle
 10
167.6958745864426
 20
137.1187797275091
 30
0.0
 40
5.550000000000034
  0
CIRCLE
  5
87
330
70
100
AcDbEntity
  8
Outlines
 62
    18
420
        0
370
     0
100
AcDbCircle
 10
154.6958745864426
 20
148.7997797275089
 30
0.0
 40
1.500000000000133
  0
CIRCLE
  5
88
330
70
100
AcDbEntity
  8
Outlines
 62
    18
420
        0
370
     0
100
AcDbCircle
 10
189.6958745864427
 20
61.45577972750907
 30
0.0
 40
1.499999999999812
  0
CIRCLE
  5
89
330
70
100
AcDbEntity
  8
Outlines
 62
    18
420
        0
370
     0
100
AcDbCircle
 10
189.6958745864427
 20
148.7997797275089
 30
0.0
 40
1.499999999999892
  0
CIRCLE
  5
8A
330
70
100
AcDbEntity
  8
Outlines
 62
    18
420
        0
370
     0
100
AcDbCircle
 10
154.6958745864426
 20
61.45577972750907
 30
0.0
 40
1.500000000000052
  0
SPLINE
  5
8B
330
70
100
AcDbEntity
  8
Outlines
 62
    18
420
        0
370
     0
100
AcDbSpline
210
0.0
220
0.0
230
1.0
 70
     9
 71
     3
 72
    29
 73
    25
 74
     0
 42
0.0000000001
 43
0.0000000001
 40
0.0
 40
0.0
 40
0.0
 40
0.0
 40
1.0
 40
1.0
 40
1.0
 40
2.0
 40
2.0
 40
2.0
 40
3.0
 40
3.0
 40
3.0
 40
4.0
 40
4.0
 40
4.0
 40
5.0
 40
5.0
 40
5.0
 40
6.0
 40
6.0
 40
6.0
 40
7.0
 40
7.0
 40
7.0
 40
8.0
 40
8.0
 40
8.0
 40
8.0
 10
154.6958745864428
 20
153.799779727509
 30
0.0
 10
151.9344508372886
 20
153.799779727509
 30
0.0
 10
149.6958745864426
 20
151.561203476663
 30
0.0
 10
149.6958745864426
 20
148.7997797275092
 30
0.0
 10
149.6958745864426
 20
148.7997797275092
 30
0.0
 10
149.6958745864426
 20
61.45577972750923
 30
0.0
 10
149.6958745864426
 20
61.45577972750923
 30
0.0
 10
149.6958745864426
 20
58.6943559783551
 30
0.0
 10
151.9344508372886
 20
56.45577972750905
 30
0.0
 10
154.6958745864428
 20
56.45577972750905
 30
0.0
 10
154.6958745864428
 20
56.45577972750905
 30
0.0
 10
189.6958745864427
 20
56.45577972750905
 30
0.0
 10
189.6958745864427
 20
56.45577972750905
 30
0.0
 10
192.4572983355968
 20
56.45577972750905
 30
0.0
 10
194.6958745864429
 20
58.6943559783551
 30
0.0
 10
194.6958745864429
 20
61.45577972750923
 30
0.0
 10
194.6958745864429
 20
61.45577972750923
 30
0.0
 10
194.6958745864429
 20
148.7997797275089
 30
0.0
 10
194.6958745864429
 20
148.7997797275089
 30
0.0
 10
194.6958745864429
 20
151.561203476663
 30
0.0
 10
192.4572983355968
 20
153.799779727509
 30
0.0
 10
189.6958745864427
 20
153.799779727509
 30
0.0
 10
189.6958745864427
 20
153.799779727509
 30
0.0
 10
154.6958745864428
 20
153.799779727509
 30
0.0
 10
154.6958745864428
 20
153.799779727509
 30
0.0
  0
LWPOLYLINE
  5
8D
330
70
100
AcDbEntity
  8
Engravings Bridges
 62
    18
420
        0
370
     0
100
AcDbPolyline
 90
       13
 70
     1
 43
0.0
 10
132.4957918866668
 20
102.9934907624027
 10
132.4957918866668
 20
102.7620623180174
 10
132.5065061195884
 20
102.7299193212295
 10
132.5386491163762
 20
102.7192050883077
 10
135.4529347761663
 20
102.7192050883077
 10
135.4850777729545
 20
102.7299193212295
 10
135.495792005876
 20
102.7620623180174
 10
135.495792005876
 20
102.9934907624027
 10
135.4850777729545
 20
103.0256337591912
 10
135.4529347761663
 20
103.0363479921124
 10
132.5386491163762
 20
103.0363479921124
 10
132.5065061195884
 20
103.0256337591912
 10
132.4957918866668
 20
102.9934907624027
  0
LWPOLYLINE
  5
8E
330
70
100
AcDbEntity
  8
Engravings Bridges
 62
    18
420
        0
370
     0
100
AcDbPolyline
 90
       25
 70
     1
 43
0.0
 10
135.1915064199956
 20
90.56492037265568
 10
135.1915064199956
 20
89.81491989581824
 10
135.186149303535
 20
89.79884809940099
 10
135.1700776561293
 20
89.79349083392857
 10
132.5386491163762
 20
89.79349083392857
 10
132.5065061195884
 20
89.78277630298373
 10
132.4957918866668
 20
89.75063271014922
 10
132.4957918866668
 20
89.51920456378696
 10
132.5065061195884
 20
89.48706335513838
 10
132.5386491163762
 20
89.47634882419356
 10
135.1700776561293
 20
89.47634882419356
 10
135.1861491545232
 20
89.47099155872114
 10
135.1915064199956
 20
89.45491976230389
 10
135.1915064199956
 20
88.70491928546645
 10
135.2022206529175
 20
88.67277569263194
 10
135.234363351682
 20
88.66206116168712
 10
135.4529347761663
 20
88.66206116168712
 10
135.4850777729545
 20
88.67277569263194
 10
135.495792005876
 20
88.70491928546645
 10
135.495792005876
 20
90.56492037265568
 10
135.4850777729545
 20
90.59706158130424
 10
135.4529347761663
 20
90.60777611224906
 10
135.234363351682
 20
90.60777611224906
 10
135.2022206529175
 20
90.59706158130424
 10
135.1915064199956
 20
90.56492037265568
  0
LWPOLYLINE
  5
8F
330
70
100
AcDbEntity
  8
Engravings Bridges
 62
    18
420
        0
370
     0
100
AcDbPolyline
 90
       43
 70
     1
 43
0.0
 10
134.9472206576857
 20
124.0184903284812
 10
134.945077870706
 20
124.0083116432928
 10
133.5543635233435
 20
123.1549185654427
 10
133.5318633659873
 20
123.1324184080864
 10
133.5243633135351
 20
123.1077760597967
 10
133.5318633659873
 20
123.0831331154607
 10
133.5543635233435
 20
123.0606329581045
 10
134.945077870706
 20
122.2072398802541
 10
134.9472206576857
 20
122.1970617911124
 10
134.9386492117437
 20
122.1890258929037
 10
134.9215063198599
 20
122.1863472601675
 10
132.5386491163762
 20
122.1863472601675
 10
132.5065061195884
 20
122.1756327292227
 10
132.4957918866668
 20
122.1434903284812
 10
132.4957918866668
 20
121.9120615860726
 10
132.5065061195884
 20
121.8799185892844
 10
132.5386491163762
 20
121.8692040583395
 10
135.4529347761663
 20
121.8692040583395
 10
135.4850777729545
 20
121.8799185892844
 10
135.495792005876
 20
121.9120615860726
 10
135.495792005876
 20
122.2077757260109
 10
135.4882919534238
 20
122.2388470312858
 10
135.4657920940909
 20
122.2634902736448
 10
134.0943634255918
 20
123.0863472959304
 10
134.0782919271978
 20
123.0981329223418
 10
134.0729346617254
 20
123.1077760597967
 10
134.0782919271978
 20
123.1174188992284
 10
134.0943634255918
 20
123.1292045256401
 10
135.4657920940909
 20
123.9520615479253
 10
135.4882919534238
 20
123.9767044922613
 10
135.495792005876
 20
124.0077757975363
 10
135.495792005876
 20
124.303490235498
 10
135.4850777729545
 20
124.3356332322858
 10
135.4529347761663
 20
124.3463474652076
 10
132.5386491163762
 20
124.3463474652076
 10
132.5065061195884
 20
124.3356329342628
 10
132.4957918866668
 20
124.303490235498
 10
132.4957918866668
 20
124.0720617911124
 10
132.5065061195884
 20
124.0399187943245
 10
132.5386491163762
 20
124.0292045614026
 10
134.9215063198599
 20
124.0292045614026
 10
134.9386492117437
 20
124.0265259286664
 10
134.9472206576857
 20
124.0184903284812
  0
LWPOLYLINE
  5
90
330
70
100
AcDbEntity
  8
Engravings Bridges
 62
    18
420
        0
370
     0
100
AcDbPolyline
 90
       13
 70
     1
 43
0.0
 10
132.4957918866668
 20
116.7906332155967
 10
132.4957918866668
 20
116.5592038771415
 10
132.5065061195884
 20
116.5270626684926
 10
132.5386491163762
 20
116.5163481375481
 10
135.4529347761663
 20
116.5163481375478
 10
135.4850777729545
 20
116.5270626684926
 10
135.495792005876
 20
116.5592038771415
 10
135.495792005876
 20
116.7906332155967
 10
135.4850777729545
 20
116.8227756163383
 10
135.4529347761663
 20
116.8334901472831
 10
132.5386491163762
 20
116.8334901472831
 10
132.5065061195884
 20
116.8227756163383
 10
132.4957918866668
 20
116.7906332155967
  0
LWPOLYLINE
  5
91
330
70
100
AcDbEntity
  8
Engravings Bridges
 62
    18
420
        0
370
     0
100
AcDbPolyline
 90
       31
 70
     1
 43
0.0
 10
121.4957920058759
 20
139.1547757909799
 10
121.4957920058759
 20
139.3862042353652
 10
121.4850777729543
 20
139.4183472321534
 10
121.4529347761665
 20
139.4290614650749
 10
119.5500776513608
 20
139.4290614650749
 10
119.2013275965248
 20
139.4735256360076
 10
118.9436489685568
 20
139.6069187448526
 10
118.7845418199096
 20
139.82709711056
 10
118.7315062030348
 20
140.1319185421968
 10
118.7845418199096
 20
140.4367399738336
 10
118.9436489685568
 20
140.6569186375643
 10
119.2013275965248
 20
140.7903114483857
 10
119.5500776513608
 20
140.8347757683302
 10
121.4529347761665
 20
140.8347757683302
 10
121.4850777729543
 20
140.8454900012517
 10
121.4957920058762
 20
140.8776328490281
 10
121.4957920058759
 20
141.1090615914367
 10
121.4850777729543
 20
141.1412042902015
 10
121.4529347761665
 20
141.1519186721348
 10
119.5200777395758
 20
141.1519186721348
 10
119.0695417269264
 20
141.0844187961125
 10
118.7207919701133
 20
140.8819187210106
 10
118.497399125913
 20
140.5594185517335
 10
118.4229347451719
 20
140.1319185421968
 10
118.497399125913
 20
139.7044182346368
 10
118.7207919701133
 20
139.3819183633827
 10
119.0695420249494
 20
139.1794187353159
 10
119.5200777395758
 20
139.1119185612702
 10
121.4529347761665
 20
139.1119185612702
 10
121.4850777729543
 20
139.1226327941918
 10
121.4957920058759
 20
139.1547757909799
  0
LWPOLYLINE
  5
92
330
70
100
AcDbEntity
  8
Engravings Bridges
 62
    18
420
        0
370
     0
100
AcDbPolyline
 90
       75
 70
     1
 43
0.0
 10
119.8972207649739
 20
136.8276328371073
 10
120.0793636187109
 20
137.0901328847908
 10
120.188649330953
 20
137.4147755430247
 10
120.2315062626394
 20
137.6333469675087
 10
120.2968633516823
 20
137.8401327655816
 10
120.4072207554374
 20
137.9890615270638
 10
120.5572206123861
 20
138.0790615604424
 10
120.7415062531028
 20
138.1090614722275
 10
120.9482920511755
 20
138.0710259602571
 10
121.1143634065185
 20
137.9569185302756
 10
121.2236491187606
 20
137.7774537132286
 10
121.260077689508
 20
137.5433469341301
 10
121.2311491712125
 20
137.3553115652109
 10
121.1443636163269
 20
137.1854901836418
 10
121.0072207792791
 20
137.0456684158348
 10
120.8272205635104
 20
136.9476330802939
 10
120.815434937099
 20
136.9422758148218
 10
120.8057920976671
 20
136.9347757623696
 10
120.7993635877166
 20
136.9251329229377
 10
120.7972206517253
 20
136.9133472965263
 10
120.7982920452152
 20
136.9015610740686
 10
120.8015063746963
 20
136.8919182346366
 10
120.8957919820341
 20
136.6690612361931
 10
120.9118634804281
 20
136.6465610788369
 10
120.9343633397613
 20
136.6390610263847
 10
120.9450775726828
 20
136.6401327178979
 10
120.9515062316451
 20
136.6433471963905
 10
121.2081134661232
 20
136.7826331184411
 10
121.4036491855178
 20
136.9862044380211
 10
121.5273991569076
 20
137.2433472202326
 10
121.5686491473706
 20
137.5433469341301
 10
121.5407920225653
 20
137.7903116271995
 10
121.457220648149
 20
138.0083472059274
 10
121.3259706243071
 20
138.1899542139076
 10
121.1550778492484
 20
138.3276328967118
 10
120.9552564068827
 20
138.4144187496207
 10
120.7372205301318
 20
138.4433472679163
 10
120.4334706409964
 20
138.3935258315108
 10
120.1907921179328
 20
138.2440615222956
 10
120.0156134708913
 20
138.0088830516838
 10
119.9143633588347
 20
137.7019185350442
 10
119.871506129125
 20
137.4833471105599
 10
119.7965062006505
 20
137.2535259054206
 10
119.674363170484
 20
137.0783472583794
 10
119.5040059431585
 20
136.9674540088676
 10
119.2843634232076
 20
136.9304895923638
 10
119.062577818254
 20
136.9717395828271
 10
118.8857919319661
 20
137.0954901502632
 10
118.770077560762
 20
137.2953117416404
 10
118.7315062030348
 20
137.5647759960198
 10
118.763649199823
 20
137.7924544141793
 10
118.8600775941406
 20
137.986918740084
 10
119.0143633230718
 20
138.1374544427896
 10
119.2318633540663
 20
138.2387042568231
 10
119.2415061934979
 20
138.246204309275
 10
119.2479348524602
 20
138.2558471487069
 10
119.25007763944
 20
138.2676327751183
 10
119.2490062459501
 20
138.279418699553
 10
119.2457920654808
 20
138.2890615389847
 10
119.1557920321022
 20
138.507632963469
 10
119.1397208317313
 20
138.5301331208252
 10
119.117220674375
 20
138.5376328752541
 10
119.1000777824912
 20
138.5333473012949
 10
118.8172206624542
 20
138.3881688640618
 10
118.6029348119291
 20
138.1669185088182
 10
118.4679347618613
 20
137.887811116984
 10
118.4229347451719
 20
137.5690615699793
 10
118.4518632634671
 20
137.2920972631478
 10
118.5386491163763
 20
137.0526326225306
 10
118.6757916554008
 20
136.857632450869
 10
118.855792020181
 20
136.7140615509055
 10
119.0690061791929
 20
136.6256684587503
 10
119.305791889051
 20
136.5962040946983
 10
119.6400776847394
 20
136.654061131289
 10
119.8972207649739
 20
136.8276328371073
  0
LWPOLYLINE
  5
93
330
70
100
AcDbEntity
  8
Engravings Bridges
 62
    18
420
        0
370
     0
100
AcDbPolyline
 90
       13
 70
     1
 43
0.0
 10
132.4957918866668
 20
114.5363474032188
 10
132.4957918866668
 20
114.3049180647636
 10
132.5065061195884
 20
114.272775664022
 10
132.5386491163762
 20
114.2620611330772
 10
135.4529347761663
 20
114.2620611330772
 10
135.4850777729545
 20
114.272775664022
 10
135.495792005876
 20
114.3049180647636
 10
135.495792005876
 20
114.5363474032188
 10
135.4850777729545
 20
114.5684898039603
 10
135.4529347761663
 20
114.5792043349052
 10
132.5386491163762
 20
114.5792043349052
 10
132.5065061195884
 20
114.5684898039603
 10
132.4957918866668
 20
114.5363474032188
  0
LWPOLYLINE
  5
94
330
70
100
AcDbEntity
  8
Engravings Bridges
 62
    18
420
        0
370
     0
100
AcDbPolyline
 90
       39
 70
     1
 43
0.0
 10
135.495792005876
 20
113.3792030951285
 10
135.4850777729545
 20
113.411346687963
 10
135.4529347761663
 20
113.4220600268148
 10
132.5386491163762
 20
113.4220600268148
 10
132.5065061195884
 20
113.41134549587
 10
132.4957918866668
 20
113.3792030951285
 10
132.4957918866668
 20
113.1477737566732
 10
132.5065061195884
 20
113.1156301638387
 10
132.5386491163762
 20
113.1049168249869
 10
134.9215063198599
 20
113.1049168249869
 10
134.9348991855176
 20
113.1027734419608
 10
134.9407919987235
 20
113.0963456770681
 10
134.9391849084886
 20
113.0877745291494
 10
134.9300777658019
 20
113.0792033812306
 10
132.5386491163762
 20
111.7034888407492
 10
132.5172206505332
 20
111.6895604273581
 10
132.5043633326086
 20
111.6734886309408
 10
132.4979349716696
 20
111.6531312605644
 10
132.4957918866668
 20
111.6263461252953
 10
132.4957918866668
 20
111.3520598551536
 10
132.5065061195884
 20
111.3199174544118
 10
132.5386491163762
 20
111.3092029234673
 10
135.4529347761663
 20
111.3092029234673
 10
135.4850777729545
 20
111.3199174544118
 10
135.495792005876
 20
111.3520598551536
 10
135.495792005876
 20
111.5834880015159
 10
135.4850777729545
 20
111.6156315943504
 10
135.4529347761663
 20
111.6263461252953
 10
133.0700775726827
 20
111.6263461252953
 10
133.0566847070249
 20
111.6284895083214
 10
133.0507918938194
 20
111.6349172732137
 10
133.0523991330657
 20
111.6434884211324
 10
133.0615061267409
 20
111.6520595690512
 10
135.4529347761663
 20
113.0277741095329
 10
135.4743633910212
 20
113.0443823477529
 10
135.487220559934
 20
113.0599177023674
 10
135.4936492188963
 20
113.0786669394279
 10
135.495792005876
 20
113.1049168249869
 10
135.495792005876
 20
113.3792030951285
  0
LWPOLYLINE
  5
95
330
70
100
AcDbEntity
  8
Engravings Bridges
 62
    18
420
        0
370
     0
100
AcDbPolyline
 90
       13
 70
     1
 43
0.0
 10
132.4957918866668
 20
120.9863472124838
 10
132.4957918866668
 20
120.7549190661215
 10
132.5065061195884
 20
120.722775473287
 10
132.5386491163762
 20
120.7120615383888
 10
135.4529347761663
 20
120.7120615383888
 10
135.4850777729545
 20
120.7227760693337
 10
135.495792005876
 20
120.7549190661215
 10
135.495792005876
 20
120.9863472124838
 10
135.4850777729545
 20
121.0184896132253
 10
135.4529347761663
 20
121.0292041441701
 10
132.5386491163762
 20
121.0292041441701
 10
132.5065061195884
 20
121.0184896132253
 10
132.4957918866668
 20
120.9863472124838
  0
LWPOLYLINE
  5
96
330
70
100
AcDbEntity
  8
Engravings Bridges
 62
    18
420
        0
370
     0
100
AcDbPolyline
 90
       31
 70
     1
 43
0.0
 10
135.495792005876
 20
91.12206167667141
 10
135.495792005876
 20
91.35348982303369
 10
135.4850777729545
 20
91.3856334158682
 10
135.4529347761663
 20
91.39634794681303
 10
133.550077651361
 20
91.39634794681303
 10
133.2013275965246
 20
91.4408130118157
 10
132.9436489685567
 20
91.57420343845116
 10
132.7845418199094
 20
91.79438299625145
 10
132.731506203035
 20
92.09920353381894
 10
132.7845418199094
 20
92.40402526347846
 10
132.9436489685567
 20
92.62420362918611
 10
133.2013275965246
 20
92.75759644000752
 10
133.550077651361
 20
92.80206150501017
 10
135.4529347761663
 20
92.80206150501017
 10
135.4850777729545
 20
92.81277484386171
 10
135.495792005876
 20
92.84491724460357
 10
135.495792005876
 20
93.07634777515179
 10
135.4850777729545
 20
93.10849017589301
 10
135.4529347761663
 20
93.11920351474519
 10
133.5200777395759
 20
93.11920351474519
 10
133.0695417269262
 20
93.05170244663019
 10
132.7207919701131
 20
92.84920401065575
 10
132.4973991259132
 20
92.52670473544831
 10
132.4229347451721
 20
92.09920353381894
 10
132.4973991259132
 20
91.67170352428223
 10
132.7207919701131
 20
91.3492030569815
 10
133.0695420249496
 20
91.14670223682178
 10
133.5200777395759
 20
91.07920355289207
 10
135.4529347761663
 20
91.07920355289207
 10
135.4850777729545
 20
91.0899180838369
 10
135.495792005876
 20
91.12206167667141
  0
LWPOLYLINE
  5
97
330
70
100
AcDbEntity
  8
Engravings Bridges
 62
    18
420
        0
370
     0
100
AcDbPolyline
 90
       13
 70
     1
 43
0.0
 10
132.4957918866668
 20
98.79777676551563
 10
132.4957918866668
 20
98.56634802310736
 10
132.5065061195884
 20
98.53420502631886
 10
132.5386491163762
 20
98.52349109142068
 10
135.4529347761663
 20
98.52349109142068
 10
135.4850777729545
 20
98.5342056223655
 10
135.495792005876
 20
98.56634802310736
 10
135.495792005876
 20
98.79777676551563
 10
135.4850777729545
 20
98.8299191662575
 10
135.4529347761663
 20
98.84063369720232
 10
132.5386491163762
 20
98.84063369720232
 10
132.5065061195884
 20
98.8299197623035
 10
132.4957918866668
 20
98.79777676551563
  0
LWPOLYLINE
  5
98
330
70
100
AcDbEntity
  8
Engravings Bridges
 62
    18
420
        0
370
     0
100
AcDbPolyline
 90
       43
 70
     1
 43
0.0
 10
134.9472206576857
 20
106.0256337293888
 10
134.945077870706
 20
106.015455193212
 10
133.5543635233435
 20
105.1620622643733
 10
133.5318633659873
 20
105.1395622560286
 10
133.5243633135351
 20
105.1149194607041
 10
133.5318633659873
 20
105.09027666538
 10
133.5543635233435
 20
105.0677765080237
 10
134.945077870706
 20
104.2143834301733
 10
134.9472206576857
 20
104.2042050430086
 10
134.9386492117437
 20
104.1961694428229
 10
134.9215063198599
 20
104.1934908100867
 10
132.5386491163762
 20
104.1934908100867
 10
132.5065061195884
 20
104.1827762791419
 10
132.4957918866668
 20
104.150633580377
 10
132.4957918866668
 20
103.9192051359917
 10
132.5065061195884
 20
103.8870621392033
 10
132.5386491163762
 20
103.8763479062821
 10
135.4529347761663
 20
103.8763479062821
 10
135.4850777729545
 20
103.8870621392033
 10
135.495792005876
 20
103.9192051359917
 10
135.495792005876
 20
104.2149192759298
 10
135.4882919534238
 20
104.2459908792284
 10
135.4657920940909
 20
104.270633823564
 10
134.0943634255918
 20
105.0934908458496
 10
134.0782919271978
 20
105.105276472261
 10
134.0729346617254
 20
105.1149194607041
 10
134.0782919271978
 20
105.1245624491476
 10
134.0943634255918
 20
105.136348075559
 10
135.4657920940909
 20
105.959205246856
 10
135.4882919534238
 20
105.9838480421805
 10
135.495792005876
 20
106.014919496467
 10
135.495792005876
 20
106.3106337854172
 10
135.4850777729545
 20
106.3427766331935
 10
135.4529347761663
 20
106.3534909406208
 10
132.5386491163762
 20
106.3534909406208
 10
132.5065061195884
 20
106.3427766331935
 10
132.4957918866668
 20
106.3106337854172
 10
132.4957918866668
 20
106.0792051920197
 10
132.5065061195884
 20
106.0470623442434
 10
132.5386491163762
 20
106.0363481113218
 10
134.9215063198599
 20
106.0363481113218
 10
134.9386492117437
 20
106.0336695530914
 10
134.9472206576857
 20
106.0256337293888
  0
LWPOLYLINE
  5
99
330
70
100
AcDbEntity
  8
Engravings Bridges
 62
    18
420
        0
370
     0
100
AcDbPolyline
 90
       74
 70
     1
 43
0.0
 10
177.800160470346
 20
92.75849392168744
 10
178.1280170110265
 20
93.07670821898199
 10
178.3744458583391
 20
93.49135120861776
 10
178.4044454721012
 20
93.53206535332466
 10
178.4430174258744
 20
93.49992265455981
 10
178.6883745816741
 20
93.16349377386826
 10
178.9958749440705
 20
92.90849377863654
 10
179.354803386072
 20
92.7477793907426
 10
179.7544459727797
 20
92.69420792811173
 10
180.4090891507659
 20
92.81099369280545
 10
180.9330175546208
 20
93.1613509868885
 10
181.2769458917179
 20
93.72385104649293
 10
181.3915888694324
 20
94.47706540577637
 10
181.3219462064303
 20
95.05135109179251
 10
181.1130176213779
 20
95.55706550829643
 10
180.7819463041818
 20
95.97277989142142
 10
180.345874848703
 20
96.27706562631363
 10
180.2773029831448
 20
96.2856370722557
 10
180.225874605516
 20
96.24277999155751
 10
180.0030176070728
 20
95.86563696615902
 10
179.992303076128
 20
95.80349420659757
 10
180.0458745387588
 20
95.75420846693774
 10
180.358731570581
 20
95.54742281787598
 10
180.5944458869495
 20
95.25277992241637
 10
180.7423029569188
 20
94.88956560843236
 10
180.7915888455901
 20
94.47706540577637
 10
180.7187317040953
 20
94.00349398606032
 10
180.5001602796116
 20
93.64563693754872
 10
180.1658744839228
 20
93.42063715212573
 10
179.7458745268383
 20
93.3456369256282
 10
179.3055174974
 20
93.42492242806164
 10
178.9615891603029
 20
93.66277953140986
 10
178.7398032573259
 20
94.04206564181111
 10
178.6658744243182
 20
94.54563697331161
 10
178.6658744243182
 20
94.77706541769753
 10
178.6444459584746
 20
94.84135141127325
 10
178.5801599648989
 20
94.86277987711693
 10
178.1687317517794
 20
94.86277987711693
 10
178.1044457582031
 20
94.84135141127325
 10
178.08301729236
 20
94.77706541769753
 10
178.08301729236
 20
94.54563697331161
 10
178.0069456723726
 20
94.0002798055913
 10
177.7787314084563
 20
93.54706545822841
 10
177.4112318185364
 20
93.24170847885843
 10
176.9173030284442
 20
93.13992252104545
 10
176.4169458774128
 20
93.22992255442374
 10
176.0301600125823
 20
93.49992265455981
 10
175.7826600698028
 20
93.91992261164435
 10
175.7001600888767
 20
94.45992251389288
 10
175.7612310079131
 20
94.90992268078549
 10
175.9444461492096
 20
95.31706561796907
 10
176.2390885976353
 20
95.65777992360803
 10
176.6344462064302
 20
95.90849419586872
 10
176.6730175641574
 20
95.93849410765379
 10
176.6858742860353
 20
95.97706561439245
 10
176.6837314990555
 20
96.0006368672159
 10
176.6773031381169
 20
96.01992269509064
 10
176.4630172875915
 20
96.41420846336112
 10
176.4308742908036
 20
96.44635131113748
 10
176.3858745721378
 20
96.45706554405931
 10
176.3623027232683
 20
96.45492275707955
 10
176.3430170444044
 20
96.44849409811724
 10
175.8180169490373
 20
96.11635123841971
 10
175.4258744147811
 20
95.65135126464573
 10
175.1815889504948
 20
95.08777996056291
 10
175.1001600650343
 20
94.45992251389288
 10
175.1601598886052
 20
93.89206548683903
 10
175.3401599553623
 20
93.40563674919838
 10
175.6230173734224
 20
93.01242252342929
 10
175.9915886548558
 20
92.72420813791983
 10
176.4265881207981
 20
92.54742254965529
 10
176.9087312844792
 20
92.48849382155199
 10
177.3930172351394
 20
92.55599369757437
 10
177.800160470346
 20
92.75849392168744
  0
LWPOLYLINE
  5
9A
330
70
100
AcDbEntity
  8
Engravings Bridges
 62
    18
420
        0
370
     0
100
AcDbPolyline
 90
       40
 70
     1
 43
0.0
 10
175.8801601556339
 20
136.728779637506
 10
181.1601601270235
 20
136.728779637506
 10
181.2244461205992
 20
136.750208103349
 10
181.2458745864429
 20
136.814494096925
 10
181.2458745864429
 20
137.3459225532315
 10
181.2373031405008
 20
137.4080657598281
 10
181.2115888026753
 20
137.4573513504768
 10
180.2173031595746
 20
138.7859227892659
 10
180.1765887168441
 20
138.8244941469931
 10
180.1230175522362
 20
138.8373513159058
 10
179.5744459060226
 20
138.8373513159058
 10
179.5444462922611
 20
138.8330655929351
 10
179.5230175283944
 20
138.8202085730338
 10
179.5101602104699
 20
138.8030656811497
 10
179.5058746365103
 20
138.7859227892659
 10
179.5101605084935
 20
138.7559225794578
 10
179.5230175283944
 20
138.7344941136145
 10
180.5087320235767
 20
137.4144941207671
 10
180.5258749154602
 20
137.3844939109586
 10
180.5258749154602
 20
137.3630654451156
 10
180.5108748105565
 20
137.350208127191
 10
180.4830173877275
 20
137.3459225532315
 10
175.8801601556339
 20
137.3459225532318
 10
175.848017754892
 20
137.3566370841766
 10
175.8373032239472
 20
137.3887797829412
 10
175.8373032239472
 20
138.871636950662
 10
175.8158741620575
 20
138.9359227952265
 10
175.7515887645278
 20
138.9573514100813
 10
175.3315888074433
 20
138.9573514100813
 10
175.2673028138676
 20
138.9359227952265
 10
175.2458743480239
 20
138.871636950662
 10
175.2458743480239
 20
135.3659224149489
 10
175.2673028138676
 20
135.3016370174191
 10
175.3315888074433
 20
135.2802085515762
 10
175.7515887645278
 20
135.2802085515762
 10
175.8158747581042
 20
135.3016370174191
 10
175.8373032239472
 20
135.3659224149489
 10
175.8373032239472
 20
136.6859227058196
 10
175.848017754892
 20
136.7180657026075
 10
175.8801601556339
 20
136.728779637506
  0
LWPOLYLINE
  5
9B
330
70
100
AcDbEntity
  8
Engravings Bridges
 62
    18
420
        0
370
     0
100
AcDbPolyline
 90
       56
 70
     1
 43
0.0
 10
175.8973030475174
 20
116.8759225419068
 10
176.3815884021316
 20
116.8052081873918
 10
176.7715887454547
 20
116.6102081647418
 10
177.1144459870849
 20
116.2780654540561
 10
177.4573032287158
 20
115.7959225883983
 10
177.8173027661835
 20
115.213065158417
 10
178.2040892270599
 20
114.6666365972065
 10
178.610160174707
 20
114.2616364470027
 10
179.0912316468752
 20
114.0109226217769
 10
179.7030175951516
 20
113.9273509493373
 10
180.1776601103339
 20
113.985207985928
 10
180.5901603129899
 20
114.1587790956995
 10
180.9287319806612
 20
114.4362795463108
 10
181.1815891889132
 20
114.8059225192571
 10
181.3390890983138
 20
115.2505654206776
 10
181.3915888694324
 20
115.7530653586886
 10
181.285517635683
 20
116.4312794914745
 10
180.9673033383884
 20
116.9916367640995
 10
180.4733745482955
 20
117.4127081146739
 10
179.8401604321991
 20
117.673065375378
 10
179.7758747366464
 20
117.6666368654275
 10
179.7373030808962
 20
117.613065402796
 10
179.5915887979067
 20
117.1930652967
 10
179.5840887454545
 20
117.1544939389728
 10
179.5958746698892
 20
117.1244940271877
 10
179.6226604012047
 20
117.1030654123329
 10
179.6601603654419
 20
117.0902082434201
 10
180.1283745196856
 20
116.9177082291148
 10
180.487302961687
 20
116.623065184643
 10
180.7155172256027
 20
116.2298509588743
 10
180.7915888455901
 20
115.7616368046306
 10
180.718731704096
 20
115.2848509064219
 10
180.5001602796116
 20
114.9002081265949
 10
180.1573030379808
 20
114.6462795248531
 10
179.7115887430707
 20
114.5616367569469
 10
179.2798034575974
 20
114.6194937935376
 10
178.9273033765353
 20
114.7930652013325
 10
178.6198030141389
 20
115.0866368523144
 10
178.3230171826874
 20
115.5044937243961
 10
177.9715887931381
 20
116.0873511543774
 10
177.5098029998338
 20
116.7291370144389
 10
177.0158742097416
 20
117.1630653849149
 10
176.4319459823165
 20
117.4105653276944
 10
175.7001600888767
 20
117.4930653086208
 10
175.3315888074433
 20
117.4930653086208
 10
175.2673028138676
 20
117.4716368427775
 10
175.2458743480239
 20
117.4073511472248
 10
175.2458743480239
 20
114.0130648127103
 10
175.2673028138676
 20
113.9487794151806
 10
175.3315888074433
 20
113.9273509493373
 10
175.7515887645278
 20
113.9273509493373
 10
175.8158747581042
 20
113.9487794151806
 10
175.8373032239472
 20
114.0130648127103
 10
175.8373032239472
 20
116.8073511233831
 10
175.8523033288516
 20
116.8587797990345
 10
175.8973030475174
 20
116.8759225419068
  0
LWPOLYLINE
  5
9C
330
70
100
AcDbEntity
  8
Engravings Bridges
 62
    18
420
        0
370
     0
100
AcDbPolyline
 90
       47
 70
     1
 43
0.0
 10
178.6830173162017
 20
72.36092235370484
 10
177.3287318376097
 20
72.36092235370484
 10
177.2965888408218
 20
72.37163688464966
 10
177.285874309877
 20
72.40377958341452
 10
177.285874309877
 20
74.32377989812728
 10
177.298731031755
 20
74.36235125585444
 10
177.3373029855288
 20
74.3580655328834
 10
181.143017831186
 20
72.41235102935658
 10
181.1826605824031
 20
72.40377958341452
 10
181.2158749726808
 20
72.41235102935658
 10
181.2383745339907
 20
72.43592258020301
 10
181.2458745864429
 20
72.4723511509504
 10
181.2458745864429
 20
72.98663701339574
 10
181.2308744815385
 20
73.05092241092545
 10
181.1858747628727
 20
73.0894937686526
 10
176.8658743527925
 20
75.27520846052978
 10
176.8080173162021
 20
75.28592269345161
 10
176.7544458535706
 20
75.26663701458836
 10
176.7158744958434
 20
75.22377978487866
 10
176.7030171779194
 20
75.16377981229634
 10
176.7030171779194
 20
72.40377958341452
 10
176.6923026469746
 20
72.37163658662666
 10
176.6601602462328
 20
72.36092235370484
 10
175.3315888074433
 20
72.36092235370484
 10
175.2673028138676
 20
72.3394938878618
 10
175.2458743480239
 20
72.27520819230909
 10
175.2458743480239
 20
71.82092245145695
 10
175.2673028138676
 20
71.75663705392723
 10
175.3315888074433
 20
71.73520829006057
 10
176.6601602462328
 20
71.73520829006057
 10
176.6923032430206
 20
71.72449375911573
 10
176.7030171779194
 20
71.69235106035088
 10
176.7030171779194
 20
71.03235091491599
 10
176.7244456437625
 20
70.96806551738629
 10
176.7887316373382
 20
70.94663705154262
 10
177.2001598504576
 20
70.94663705154262
 10
177.264445844034
 20
70.96806551738629
 10
177.285874309877
 20
71.03235091491599
 10
177.285874309877
 20
71.69235106035088
 10
177.2965888408218
 20
71.72449405713938
 10
177.3287318376097
 20
71.73520829006057
 10
178.6830173162017
 20
71.73520829006057
 10
178.7473033097781
 20
71.7566367559036
 10
178.7687317756211
 20
71.82092245145695
 10
178.7687317756211
 20
72.27520819230909
 10
178.7473033097781
 20
72.33949358983881
 10
178.6830173162017
 20
72.36092235370484
  0
LWPOLYLINE
  5
9D
330
70
100
AcDbEntity
  8
Engravings Bridges
 62
    18
420
        0
370
     0
100
AcDbPolyline
 90
       10
 70
     1
 43
0.0
 10
119.8500776632817
 20
135.6362045333886
 10
118.4957918866667
 20
135.6362045333886
 10
118.4957918866667
 20
135.9104902074839
 10
118.5065061195882
 20
135.9426326082254
 10
118.5386491163763
 20
135.9533471391702
 10
121.4529347761665
 20
135.9533471391702
 10
121.4850777729543
 20
135.9426332042717
 10
121.4957920058759
 20
135.9104902074839
 10
121.4957920058759
 20
135.6362045333886
 10
119.8500776632817
 20
135.6362045333886
  0
LWPOLYLINE
  5
9E
330
70
100
AcDbEntity
  8
Engravings Bridges
 62
    18
420
        0
370
     0
100
AcDbPolyline
 90
       46
 70
     1
 43
0.0
 10
119.871506129125
 20
135.6147754714989
 10
119.871506129125
 20
135.0747758672737
 10
119.8361489518676
 20
134.8074543998741
 10
119.730077718118
 20
134.6140611694359
 10
119.5607918842824
 20
134.4967401550318
 10
119.3357920988594
 20
134.4576329515482
 10
119.1107917173894
 20
134.4967401550318
 10
118.9415061815771
 20
134.6140611694359
 10
118.8354349478279
 20
134.8074543998741
 10
118.8000774725471
 20
135.0747758672737
 10
118.8000774725471
 20
135.6147754714989
 10
118.4957918866667
 20
135.6147754714989
 10
118.4957918866667
 20
135.0447756574653
 10
118.5536489232574
 20
134.6569186971686
 10
118.7272203310523
 20
134.3676329181696
 10
118.9907920702491
 20
134.1876328514121
 10
119.3186492069752
 20
134.1276324317956
 10
119.5382920249494
 20
134.1565609500908
 10
119.7343632920776
 20
134.2433471010231
 10
119.8972204669509
 20
134.3794179485343
 10
120.0172204121146
 20
134.5562041328455
 10
120.0397205694708
 20
134.5776325986885
 10
120.0643635138068
 20
134.5562041328455
 10
120.1773989542518
 20
134.4062042758964
 10
120.327934656957
 20
134.2904902027153
 10
120.5063277824911
 20
134.2165613697076
 10
120.7029348953757
 20
134.1919184253716
 10
120.9182921393904
 20
134.2170966194177
 10
121.1100778325589
 20
134.2926323936487
 10
121.2707922204529
 20
134.4169182107949
 10
121.392934952596
 20
134.5883471296334
 10
121.4700776680503
 20
134.8020971344017
 10
121.4957920058759
 20
135.0533474014307
 10
121.4957920058759
 20
135.6147754714989
 10
121.1915064199958
 20
135.6147754714989
 10
121.1915064199958
 20
135.0919187591575
 10
121.1577563329731
 20
134.8465616033577
 10
121.0565063699277
 20
134.6676326320671
 10
120.8952564343007
 20
134.5583463237786
 10
120.6815062805208
 20
134.5219183490776
 10
120.4682919724974
 20
134.5583475158716
 10
120.3086489780934
 20
134.6676326320671
 10
120.2090061052832
 20
134.8465610073114
 10
120.1757920130284
 20
135.0919187591575
 10
120.1757920130284
 20
135.6147754714989
 10
119.871506129125
 20
135.6147754714989
  0
LWPOLYLINE
  5
9F
330
70
100
AcDbEntity
  8
Engravings Bridges
 62
    18
420
        0
370
     0
100
AcDbPolyline
 90
       10
 70
     1
 43
0.0
 10
132.8215062364136
 20
119.5549190184378
 10
135.495792005876
 20
119.5549190184378
 10
135.495792005876
 20
119.8292040964864
 10
135.4850777729545
 20
119.8613476893209
 10
135.4529347761663
 20
119.8720616242194
 10
132.5386491163762
 20
119.8720616242194
 10
132.5065061195884
 20
119.8613470932746
 10
132.4957918866668
 20
119.8292040964864
 10
132.4957918866668
 20
119.5549190184378
 10
132.8215062364136
 20
119.5549190184378
  0
LWPOLYLINE
  5
A0
330
70
100
AcDbEntity
  8
Engravings Bridges
 62
    18
420
        0
370
     0
100
AcDbPolyline
 90
       31
 70
     1
 43
0.0
 10
132.8000774725469
 20
119.5334899565481
 10
132.8000774725469
 20
118.9463472506307
 10
132.8343632563149
 20
118.6345619103217
 10
132.9372206076177
 20
118.3592045447136
 10
133.1075778349433
 20
118.1304544350409
 10
133.344363246778
 20
117.9584902664923
 10
133.642220173696
 20
117.8508114954734
 10
133.9957919462714
 20
117.8149187704825
 10
134.3493634208235
 20
117.8508114954734
 10
134.6472206457649
 20
117.9584902664923
 10
134.8840063556226
 20
118.1304544350409
 10
135.0543635829482
 20
118.3592045447136
 10
135.1572207852395
 20
118.6345613142751
 10
135.1915064199956
 20
118.9463472506307
 10
135.1915064199956
 20
119.5334899565481
 10
135.495792005876
 20
119.5334899565481
 10
135.495792005876
 20
118.9334899327064
 10
135.449720595697
 20
118.5327756544851
 10
135.3115063651596
 20
118.1792044779564
 10
135.0881135209593
 20
117.8856325289512
 10
134.7865062697922
 20
117.6649189135337
 10
134.4184705360922
 20
117.5267052790427
 10
133.9957919462714
 20
117.480633272817
 10
133.5731130584274
 20
117.5267040869497
 10
133.2050776227507
 20
117.6649189135337
 10
132.9034703715835
 20
117.8856337210442
 10
132.6800775273832
 20
118.1792044779564
 10
132.5418632968459
 20
118.5327756544851
 10
132.4957918866668
 20
118.9334899327064
 10
132.4957918866668
 20
119.5334899565481
 10
132.8000774725469
 20
119.5334899565481
  0
LWPOLYLINE
  5
A1
330
70
100
AcDbEntity
  8
Engravings Bridges
 62
    18
420
        0
370
     0
100
AcDbPolyline
 90
       28
 70
     0
 43
0.0
 10
132.4261490276054
 20
95.30538711069821
 10
132.4743634208235
 20
95.65688318698624
 10
132.6286491497551
 20
96.02706140964299
 10
132.8729346140417
 20
96.34313291995777
 10
133.1943633898292
 20
96.58420509784464
 10
133.5747202976737
 20
96.73688358752995
 10
133.9957919462714
 20
96.78777641742462
 10
134.4168632968458
 20
96.73688358752995
 10
134.7972206517252
 20
96.58420509784464
 10
135.1186492785009
 20
96.34313291995777
 10
135.3629350408111
 20
96.02706140964299
 10
135.5172206207309
 20
95.65688318698624
 10
135.5656768972557
 20
95.30159429084145
 10
135.2529320756131
 20
95.30159429084145
 10
135.2150779708418
 20
95.57599014728284
 10
135.0929349406753
 20
95.86634821384171
 10
134.8984706147705
 20
96.11116952388504
 10
134.6407919868026
 20
96.29706091373179
 10
134.3348994596992
 20
96.41438192813657
 10
133.9957919462714
 20
96.45348972766617
 10
133.656684730867
 20
96.41438192813657
 10
133.3507919057403
 20
96.29706091373179
 10
133.0931132777724
 20
96.11116952388504
 10
132.8986489518676
 20
95.86634821384171
 10
132.7765062197241
 20
95.57599014728284
 10
132.7386518800344
 20
95.30538711069821
 10
132.7386518800344
 20
95.30159429084145
 10
132.4261489846729
 20
95.30159429084145
  0
LWPOLYLINE
  5
A2
330
70
100
AcDbEntity
  8
Engravings Bridges
 62
    18
420
        0
370
     0
100
AcDbPolyline
 90
       27
 70
     1
 43
0.0
 10
128.2372206314596
 20
78.65334733288531
 10
129.8700776561294
 20
79.14191885750508
 10
129.8861493035348
 20
79.15263279240391
 10
129.8915064199958
 20
79.16763289730763
 10
129.8915064199958
 20
79.253347356727
 10
129.8861491545233
 20
79.26834746163137
 10
129.8700776561294
 20
79.27906169455321
 10
127.2300776704346
 20
80.06334735911098
 10
127.2043633326087
 20
80.08370443146477
 10
127.1957918866666
 20
80.11906160872227
 10
127.1957918866666
 20
80.35906164806112
 10
127.2075778111014
 20
80.39120464484962
 10
127.2429346903359
 20
80.39334743182875
 10
130.1486492022069
 20
79.51049013893849
 10
130.1840063794648
 20
79.49227585356448
 10
130.1957920058761
 20
79.45477588932785
 10
130.1957920058761
 20
78.96620436470744
 10
130.1840063794648
 20
78.92870469849317
 10
130.1486492022069
 20
78.91049011509679
 10
127.2429346903359
 20
78.02763267319439
 10
127.2257917984517
 20
78.02334709923487
 10
127.2032919391189
 20
78.03298993866682
 10
127.1957918866666
 20
78.06191845696202
 10
127.1957918866666
 20
78.30191894333601
 10
127.2043633326087
 20
78.33727582257052
 10
127.2300776704343
 20
78.35763319294667
 10
128.2372206314596
 20
78.65334733288531
  0
LWPOLYLINE
  5
A3
330
70
100
AcDbEntity
  8
Engravings Bridges
 62
    18
420
        0
370
     0
100
AcDbPolyline
 90
        5
 70
     0
 43
0.0
 10
128.211506293634
 20
79.73813726043127
 10
127.9072204097303
 20
79.82763304274316
 10
127.9072204097303
 20
78.59334750931513
 10
128.211506293634
 20
78.68284341609544
 10
128.211506293634
 20
79.73868007699199
  0
LWPOLYLINE
  5
A4
330
70
100
AcDbEntity
  8
Engravings Bridges
 62
    18
420
        0
370
     0
100
AcDbPolyline
 90
       10
 70
     1
 43
0.0
 10
132.8215062364136
 20
101.562062568357
 10
135.495792005876
 20
101.562062568357
 10
135.495792005876
 20
101.8363476464059
 10
135.4850777729545
 20
101.8684912392404
 10
135.4529347761663
 20
101.8792051741386
 10
132.5386491163762
 20
101.8792051741386
 10
132.5065061195884
 20
101.8684906431938
 10
132.4957918866668
 20
101.8363476464059
 10
132.4957918866668
 20
101.562062568357
 10
132.8215062364136
 20
101.562062568357
  0
LWPOLYLINE
  5
A5
330
70
100
AcDbEntity
  8
Engravings Bridges
 62
    18
420
        0
370
     0
100
AcDbPolyline
 90
       31
 70
     1
 43
0.0
 10
132.8000774725469
 20
101.5406335064673
 10
132.8000774725469
 20
100.9534908005496
 10
132.8343632563149
 20
100.641705460241
 10
132.9372206076177
 20
100.3663480946331
 10
133.1075778349433
 20
100.1375979849597
 10
133.344363246778
 20
99.9656338164112
 10
133.642220173696
 20
99.85795504539236
 10
133.9957919462714
 20
99.82206232040141
 10
134.3493634208235
 20
99.85795504539236
 10
134.6472206457649
 20
99.9656338164112
 10
134.8840063556226
 20
100.1375979849597
 10
135.0543635829482
 20
100.3663480946331
 10
135.1572207852395
 20
100.6417048641943
 10
135.1915064199956
 20
100.9534908005496
 10
135.1915064199956
 20
101.5406335064673
 10
135.495792005876
 20
101.5406335064673
 10
135.495792005876
 20
100.9406334826256
 10
135.449720595697
 20
100.5399192044043
 10
135.3115063651596
 20
100.1863480278753
 10
135.0881135209593
 20
99.89277607887041
 10
134.7865062697922
 20
99.67206246345297
 10
134.4184705360922
 20
99.53384882896223
 10
133.9957919462714
 20
99.48777682273625
 10
133.5731130584274
 20
99.53384763686896
 10
133.2050776227507
 20
99.67206246345297
 10
132.9034703715835
 20
99.89277727096371
 10
132.6800775273832
 20
100.1863480278753
 10
132.5418632968459
 20
100.5399192044043
 10
132.4957918866668
 20
100.9406334826256
 10
132.4957918866668
 20
101.5406335064673
 10
132.8000774725469
 20
101.5406335064673
  0
LWPOLYLINE
  5
A6
330
70
100
AcDbEntity
  8
Engravings Bridges
 62
    18
420
        0
370
     0
100
AcDbPolyline
 90
       27
 70
     1
 43
0.0
 10
132.7386518800344
 20
95.20765645801366
 10
132.7765059217008
 20
94.93099159686797
 10
132.8986489518676
 20
94.64063353030908
 10
133.0931132777724
 20
94.39581102817312
 10
133.3507919057403
 20
94.20991844623308
 10
133.65668502889
 20
94.09259743182893
 10
133.9957919462714
 20
94.05348963229869
 10
134.3348991616759
 20
94.09259743182893
 10
134.6407919868026
 20
94.20991844623308
 10
134.8984706147702
 20
94.39581102817312
 10
135.0929349406753
 20
94.64063353030908
 10
135.2150776728187
 20
94.93099159686797
 10
135.2529320756131
 20
95.20765645801366
 10
135.5656768972557
 20
95.20765645801366
 10
135.5172206207309
 20
94.85009736507192
 10
135.3629350408111
 20
94.47991795032253
 10
135.1186491294893
 20
94.16384763210038
 10
134.7972206517252
 20
93.92277664630681
 10
134.4168632968458
 20
93.7700981566215
 10
133.9957919462714
 20
93.71920532672618
 10
133.57472089372
 20
93.7700981566215
 10
133.1943633898292
 20
93.92277664630681
 10
132.8729346140417
 20
94.16384763210038
 10
132.6286491497551
 20
94.47991795032253
 10
132.4743631228002
 20
94.85009736507192
 10
132.4261489846729
 20
95.20765645801366
 10
132.7386518800344
 20
95.20765645801366
  0
LWPOLYLINE
  5
A7
330
70
100
AcDbEntity
  8
Engravings Bridges
 62
    18
420
        0
370
     0
100
AcDbPolyline
 90
       10
 70
     1
 43
0.0
 10
128.5500776632817
 20
71.43277617185333
 10
127.1957918866666
 20
71.43277617185333
 10
127.1957918866666
 20
71.70706184594831
 10
127.2065061195882
 20
71.73920424669017
 10
127.2386491163763
 20
71.749918777635
 10
130.1529347761665
 20
71.749918777635
 10
130.1850777729543
 20
71.73920484273681
 10
130.1957920058758
 20
71.70706184594831
 10
130.1957920058758
 20
71.43277617185333
 10
128.5500776632817
 20
71.43277617185333
  0
LWPOLYLINE
  5
A8
330
70
100
AcDbEntity
  8
Engravings Bridges
 62
    18
420
        0
370
     0
100
AcDbPolyline
 90
       46
 70
     1
 43
0.0
 10
128.571506129125
 20
71.41134710996367
 10
128.571506129125
 20
70.87134750573878
 10
128.5361489518675
 20
70.6040260383389
 10
128.430077718118
 20
70.41063280790068
 10
128.2607918842824
 20
70.29331179349654
 10
128.0357920988594
 20
70.25420459001295
 10
127.8107917173894
 20
70.29331179349654
 10
127.6415061815771
 20
70.41063280790068
 10
127.5354349478279
 20
70.6040260383389
 10
127.500077472547
 20
70.87134750573878
 10
127.500077472547
 20
71.41134710996367
 10
127.1957918866666
 20
71.41134710996367
 10
127.1957918866666
 20
70.84134729593005
 10
127.2536489232574
 20
70.45349033563337
 10
127.4272203310523
 20
70.16420455663467
 10
127.690792070249
 20
69.98420448987686
 10
128.0186492069752
 20
69.92420407026068
 10
128.2382920249494
 20
69.95313258855524
 10
128.4343632920775
 20
70.0399187394875
 10
128.5972204669509
 20
70.17598958699911
 10
128.7172204121146
 20
70.35277577131028
 10
128.7397205694708
 20
70.37420423715329
 10
128.7643635138068
 20
70.35277577131028
 10
128.8773989542517
 20
70.20277591436119
 10
129.0279346569569
 20
70.08706184118037
 10
129.2063277824911
 20
70.0131330081727
 10
129.4029348953757
 20
69.9884900638364
 10
129.6182921393904
 20
70.0136682578825
 10
129.8100778325589
 20
70.08920403211348
 10
129.9707922204528
 20
70.21348984926001
 10
130.092934952596
 20
70.38491876809813
 10
130.1700776680503
 20
70.59866877286649
 10
130.1957920058758
 20
70.84991903989511
 10
130.1957920058758
 20
71.41134710996367
 10
129.8915064199958
 20
71.41134710996367
 10
129.8915064199958
 20
70.88849039762227
 10
129.8577563329731
 20
70.6431332418225
 10
129.7565063699277
 20
70.46420427053156
 10
129.5952564343007
 20
70.35491796224341
 10
129.3815062805208
 20
70.31848998754201
 10
129.1682919724974
 20
70.35491915433604
 10
129.0086489780934
 20
70.46420427053156
 10
128.9090061052832
 20
70.6431326457765
 10
128.8757920130284
 20
70.88849039762227
 10
128.8757920130284
 20
71.41134710996367
 10
128.571506129125
 20
71.41134710996367
  0
ENDSEC
  0
SECTION
  2
OBJECTS
  0
DICTIONARY
  5
C
330
0
100
AcDbDictionary
281
     1
  3
ACAD_COLOR
350
63
  3
ACAD_DETAILVIEWSTYLE
350
6A
  3
ACAD_GROUP
350
D
  3
ACAD_LAYOUT
350
62
  3
ACAD_MATERIAL
350
10
  3
ACAD_MLEADERSTYLE
350
66
  3
ACAD_MLINESTYLE
350
5F
  3
ACAD_PLOTSETTINGS
350
61
  3
ACAD_PLOTSTYLENAME
350
E
  3
ACAD_SCALELIST
350
42
  3
ACAD_SECTIONVIEWSTYLE
350
68
  3
ACAD_TABLESTYLE
350
64
  3
ACAD_VISUALSTYLE
350
29
  3
ACDB_RECOMPOSE_DATA
350
B3
  3
AcDbVariableDictionary
350
AB
  0
DICTIONARY
  5
63
102
{ACAD_REACTORS
330
C
102
}
330
C
100
AcDbDictionary
281
     1
  0
DICTIONARY
  5
6A
102
{ACAD_REACTORS
330
C
102
}
330
C
100
AcDbDictionary
281
     1
  3
Imperial24
350
6B
  0
DICTIONARY
  5
D
102
{ACAD_REACTORS
330
C
102
}
330
C
100
AcDbDictionary
281
     1
  0
DICTIONARY
  5
62
102
{ACAD_REACTORS
330
C
102
}
330
C
100
AcDbDictionary
281
     1
  3
Layout1
350
6F
  3
Layout2
350
77
  3
Model
350
73
  0
DICTIONARY
  5
10
102
{ACAD_REACTORS
330
C
102
}
330
C
100
AcDbDictionary
281
     1
  3
ByBlock
350
19
  3
ByLayer
350
11
  3
Global
350
21
  0
DICTIONARY
  5
66
102
{ACAD_REACTORS
330
C
102
}
330
C
100
AcDbDictionary
281
     1
  3
Standard
350
67
  0
DICTIONARY
  5
5F
102
{ACAD_REACTORS
330
C
102
}
330
C
100
AcDbDictionary
281
     1
  3
Standard
350
60
  0
DICTIONARY
  5
61
102
{ACAD_REACTORS
330
C
102
}
330
C
100
AcDbDictionary
281
     1
  0
ACDBDICTIONARYWDFLT
  5
E
102
{ACAD_REACTORS
330
C
102
}
330
C
100
AcDbDictionary
281
     1
  3
Normal
350
F
100
AcDbDictionaryWithDefault
340
F
  0
DICTIONARY
  5
42
102
{ACAD_REACTORS
330
C
102
}
330
C
100
AcDbDictionary
281
     1
  3
A0
350
43
  3
A1
350
44
  3
A2
350
45
  3
A3
350
46
  3
A4
350
47
  3
A5
350
48
  3
A6
350
49
  3
A7
350
4A
  3
A8
350
4B
  3
A9
350
4C
  3
B0
350
4D
  3
B1
350
4E
  3
B2
350
4F
  3
B3
350
50
  3
B4
350
51
  3
B5
350
52
  3
B6
350
53
  0
DICTIONARY
  5
68
102
{ACAD_REACTORS
330
C
102
}
330
C
100
AcDbDictionary
281
     1
  3
Imperial24
350
69
  0
DICTIONARY
  5
64
102
{ACAD_REACTORS
330
C
102
}
330
C
100
AcDbDictionary
281
     1
  3
Standard
350
65
  0
DICTIONARY
  5
29
102
{ACAD_REACTORS
330
C
102
}
330
C
100
AcDbDictionary
281
     1
  3
2dWireframe
350
2F
  3
Basic
350
2E
  3
Brighten
350
35
  3
ColorChange
350
39
  3
Conceptual
350
32
  3
Dim
350
34
  3
EdgeColorOff
350
41
  3
Facepattern
350
38
  3
Flat
350
2A
  3
FlatWithEdges
350
2B
  3
Gouraud
350
2C
  3
GouraudWithEdges
350
2D
  3
Hidden
350
31
  3
JitterOff
350
3F
  3
Linepattern
350
37
  3
OverhangOff
350
40
  3
Realistic
350
33
  3
Shaded
350
3E
  3
Shaded with edges
350
3D
  3
Shades of Gray
350
3A
  3
Sketchy
350
3B
  3
Thicken
350
36
  3
Wireframe
350
30
  3
X-Ray
350
3C
  0
XRECORD
  5
B3
102
{ACAD_REACTORS
330
C
102
}
330
C
100
AcDbXrecord
280
     1
 90
        1
330
65
  0
DICTIONARY
  5
AB
102
{ACAD_REACTORS
330
C
102
}
330
C
100
AcDbDictionary
281
     1
  3
CANNOSCALE
350
B0
  3
CMLEADERSTYLE
350
AD
  3
CTABLESTYLE
350
AC
  3
CVIEWDETAILSTYLE
350
AE
  3
CVIEWSECTIONSTYLE
350
AF
  0
ACDBDETAILVIEWSTYLE
  5
6B
102
{ACAD_REACTORS
330
6A
102
}
330
6A
100
AcDbModelDocViewStyle
 70
     0
  3
Imperial24
290
     1
300
Imperial24
 90
        0
100
AcDbDetailViewStyle
 70
     0
 71
     0
 90
        3
 71
     1
340
55
 62
   256
 40
0.24
340
0
 62
   256
 40
0.24
300

 40
0.36
280
     3
 71
     2
340
5D
 90
       25
 62
   256
 71
     3
340
55
 62
   256
 40
0.24
 90
        1
 40
0.75
 90
        1
300
%<\AcVar ViewType \f "%tc1">% %<\AcVar ViewDetailId>%\PSCALE %<\AcVar ViewScale \f "%sn">%
 71
     4
340
5D
 90
       25
 62
   256
340
5D
 90
       25
 62
   256
280
     0
  0
LAYOUT
  5
6F
102
{ACAD_REACTORS
330
62
102
}
330
62
100
AcDbPlotSettings
  1

  2

  4

  6

 40
0.0
 41
0.0
 42
0.0
 43
0.0
 44
0.0
 45
0.0
 46
0.0
 47
0.0
 48
0.0
 49
0.0
140
0.0
141
0.0
142
1.0
143
1.0
 70
   688
 72
     0
 73
     0
 74
     5
  7

 75
    16
147
1.0
 76
     0
 77
     2
 78
   300
148
0.0
149
0.0
100
AcDbLayout
  1
Layout1
 70
     1
 71
     1
 10
0.0
 20
0.0
 11
12.0
 21
9.0
 12
0.0
 22
0.0
 32
0.0
 14
0.0
 24
0.0
 34
0.0
 15
0.0
 25
0.0
 35
0.0
146
0.0
 13
0.0
 23
0.0
 33
0.0
 16
1.0
 26
0.0
 36
0.0
 17
0.0
 27
1.0
 37
0.0
 76
     0
330
6C
  0
LAYOUT
  5
77
102
{ACAD_REACTORS
330
62
102
}
330
62
100
AcDbPlotSettings
  1

  2

  4

  6

 40
0.0
 41
0.0
 42
0.0
 43
0.0
 44
0.0
 45
0.0
 46
0.0
 47
0.0
 48
0.0
 49
0.0
140
0.0
141
0.0
142
1.0
143
1.0
 70
   688
 72
     0
 73
     0
 74
     5
  7

 75
    16
147
1.0
 76
     0
 77
     2
 78
   300
148
0.0
149
0.0
100
AcDbLayout
  1
Layout2
 70
     1
 71
     2
 10
0.0
 20
0.0
 11
12.0
 21
9.0
 12
0.0
 22
0.0
 32
0.0
 14
0.0
 24
0.0
 34
0.0
 15
0.0
 25
0.0
 35
0.0
146
0.0
 13
0.0
 23
0.0
 33
0.0
 16
1.0
 26
0.0
 36
0.0
 17
0.0
 27
1.0
 37
0.0
 76
     0
330
74
  0
LAYOUT
  5
73
102
{ACAD_REACTORS
330
62
102
}
330
62
100
AcDbPlotSettings
  1

  2

  4

  6

 40
0.0
 41
0.0
 42
0.0
 43
0.0
 44
0.0
 45
0.0
 46
0.0
 47
0.0
 48
0.0
 49
0.0
140
0.0
141
0.0
142
1.0
143
1.0
 70
  1712
 72
     0
 73
     0
 74
     0
  7

 75
     0
147
1.0
 76
     0
 77
     2
 78
   300
148
0.0
149
0.0
100
AcDbLayout
  1
Model
 70
     1
 71
     0
 10
0.0
 20
0.0
 11
12.0
 21
9.0
 12
0.0
 22
0.0
 32
0.0
 14
0.0
 24
0.0
 34
0.0
 15
0.0
 25
0.0
 35
0.0
146
0.0
 13
0.0
 23
0.0
 33
0.0
 16
1.0
 26
0.0
 36
0.0
 17
0.0
 27
1.0
 37
0.0
 76
     0
330
70
  0
MATERIAL
  5
19
102
{ACAD_XDICTIONARY
360
1A
102
}
102
{ACAD_REACTORS
330
10
102
}
330
10
100
AcDbMaterial
  1
ByBlock
 72
     0
 43
0.0208333333333333
 43
0.0
 43
0.0
 43
0.0
 43
0.0
 43
0.0208333333333333
 43
0.0
 43
0.0
 43
0.0
 43
0.0
 43
1.0
 43
0.0
 43
0.0
 43
0.0
 43
0.0
 43
1.0
 77
     0
 47
0.0208333333333333
 47
0.0
 47
0.0
 47
0.0
 47
0.0
 47
0.0208333333333333
 47
0.0
 47
0.0
 47
0.0
 47
0.0
 47
1.0
 47
0.0
 47
0.0
 47
0.0
 47
0.0
 47
1.0
171
     0
 49
0.0208333333333333
 49
0.0
 49
0.0
 49
0.0
 49
0.0
 49
0.0208333333333333
 49
0.0
 49
0.0
 49
0.0
 49
0.0
 49
1.0
 49
0.0
 49
0.0
 49
0.0
 49
0.0
 49
1.0
175
     0
142
0.0208333333333333
142
0.0
142
0.0
142
0.0
142
0.0
142
0.0208333333333333
142
0.0
142
0.0
142
0.0
142
0.0
142
1.0
142
0.0
142
0.0
142
0.0
142
0.0
142
1.0
179
     0
144
0.0208333333333333
144
0.0
144
0.0
144
0.0
144
0.0
144
0.0208333333333333
144
0.0
144
0.0
144
0.0
144
0.0
144
1.0
144
0.0
144
0.0
144
0.0
144
0.0
144
1.0
147
0.0208333333333333
147
0.0
147
0.0
147
0.0
147
0.0
147
0.0208333333333333
147
0.0
147
0.0
147
0.0
147
0.0
147
1.0
147
0.0
147
0.0
147
0.0
147
0.0
147
1.0
  0
MATERIAL
  5
11
102
{ACAD_XDICTIONARY
360
12
102
}
102
{ACAD_REACTORS
330
10
102
}
330
10
100
AcDbMaterial
  1
ByLayer
 72
     0
 43
0.0208333333333333
 43
0.0
 43
0.0
 43
0.0
 43
0.0
 43
0.0208333333333333
 43
0.0
 43
0.0
 43
0.0
 43
0.0
 43
1.0
 43
0.0
 43
0.0
 43
0.0
 43
0.0
 43
1.0
 77
     0
 47
0.0208333333333333
 47
0.0
 47
0.0
 47
0.0
 47
0.0
 47
0.0208333333333333
 47
0.0
 47
0.0
 47
0.0
 47
0.0
 47
1.0
 47
0.0
 47
0.0
 47
0.0
 47
0.0
 47
1.0
171
     0
 49
0.0208333333333333
 49
0.0
 49
0.0
 49
0.0
 49
0.0
 49
0.0208333333333333
 49
0.0
 49
0.0
 49
0.0
 49
0.0
 49
1.0
 49
0.0
 49
0.0
 49
0.0
 49
0.0
 49
1.0
175
     0
142
0.0208333333333333
142
0.0
142
0.0
142
0.0
142
0.0
142
0.0208333333333333
142
0.0
142
0.0
142
0.0
142
0.0
142
1.0
142
0.0
142
0.0
142
0.0
142
0.0
142
1.0
179
     0
144
0.0208333333333333
144
0.0
144
0.0
144
0.0
144
0.0
144
0.0208333333333333
144
0.0
144
0.0
144
0.0
144
0.0
144
1.0
144
0.0
144
0.0
144
0.0
144
0.0
144
1.0
147
0.0208333333333333
147
0.0
147
0.0
147
0.0
147
0.0
147
0.0208333333333333
147
0.0
147
0.0
147
0.0
147
0.0
147
1.0
147
0.0
147
0.0
147
0.0
147
0.0
147
1.0
  0
MATERIAL
  5
21
102
{ACAD_XDICTIONARY
360
22
102
}
102
{ACAD_REACTORS
330
10
102
}
330
10
100
AcDbMaterial
  1
Global
 72
     0
 43
0.0208333333333333
 43
0.0
 43
0.0
 43
0.0
 43
0.0
 43
0.0208333333333333
 43
0.0
 43
0.0
 43
0.0
 43
0.0
 43
1.0
 43
0.0
 43
0.0
 43
0.0
 43
0.0
 43
1.0
 77
     0
 47
0.0208333333333333
 47
0.0
 47
0.0
 47
0.0
 47
0.0
 47
0.0208333333333333
 47
0.0
 47
0.0
 47
0.0
 47
0.0
 47
1.0
 47
0.0
 47
0.0
 47
0.0
 47
0.0
 47
1.0
171
     0
 49
0.0208333333333333
 49
0.0
 49
0.0
 49
0.0
 49
0.0
 49
0.0208333333333333
 49
0.0
 49
0.0
 49
0.0
 49
0.0
 49
1.0
 49
0.0
 49
0.0
 49
0.0
 49
0.0
 49
1.0
175
     0
142
0.0208333333333333
142
0.0
142
0.0
142
0.0
142
0.0
142
0.0208333333333333
142
0.0
142
0.0
142
0.0
142
0.0
142
1.0
142
0.0
142
0.0
142
0.0
142
0.0
142
1.0
179
     0
144
0.0208333333333333
144
0.0
144
0.0
144
0.0
144
0.0
144
0.0208333333333333
144
0.0
144
0.0
144
0.0
144
0.0
144
1.0
144
0.0
144
0.0
144
0.0
144
0.0
144
1.0
147
0.0208333333333333
147
0.0
147
0.0
147
0.0
147
0.0
147
0.0208333333333333
147
0.0
147
0.0
147
0.0
147
0.0
147
1.0
147
0.0
147
0.0
147
0.0
147
0.0
147
1.0
  0
MLEADERSTYLE
  5
67
102
{ACAD_REACTORS
330
66
102
}
330
66
100
AcDbMLeaderStyle
179
     2
170
     2
171
     1
172
     0
 90
        2
 40
0.0
 41
0.0
173
     1
 91
-1056964608
340
5B
 92
       -2
290
     1
 42
0.09
291
     1
 43
0.36
  3
Standard
 44
0.18
300

342
55
174
     1
178
     6
175
     1
176
     0
 93
-1056964608
 45
0.18
292
     0
297
     0
 46
0.18
 94
-1056964608
 47
1.0
 49
1.0
140
1.0
293
     1
141
0.0
294
     1
177
     0
142
1.0
295
     1
296
     0
143
0.125
271
     0
272
     9
273
     9
298
     1
  0
MLINESTYLE
  5
60
102
{ACAD_REACTORS
330
5F
102
}
330
5F
100
AcDbMlineStyle
  2
STANDARD
 70
     0
  3

 62
   256
 51
90.0
 52
90.0
 71
     2
 49
0.5
 62
   256
  6
BYLAYER
 49
-0.5
 62
   256
  6
BYLAYER
  0
ACDBPLACEHOLDER
  5
F
102
{ACAD_REACTORS
330
E
102
}
330
E
  0
SCALE
  5
43
102
{ACAD_REACTORS
330
42
102
}
330
42
100
AcDbScale
 70
     0
300
1:1
140
1.0
141
1.0
290
     1
  0
SCALE
  5
44
102
{ACAD_REACTORS
330
42
102
}
330
42
100
AcDbScale
 70
     0
300
1/128" = 1'-0"
140
0.0078125
141
12.0
290
     0
  0
SCALE
  5
45
102
{ACAD_REACTORS
330
42
102
}
330
42
100
AcDbScale
 70
     0
300
1/64" = 1'-0"
140
0.015625
141
12.0
290
     0
  0
SCALE
  5
46
102
{ACAD_REACTORS
330
42
102
}
330
42
100
AcDbScale
 70
     0
300
1/32" = 1'-0"
140
0.03125
141
12.0
290
     0
  0
SCALE
  5
47
102
{ACAD_REACTORS
330
42
102
}
330
42
100
AcDbScale
 70
     0
300
1/16" = 1'-0"
140
0.0625
141
12.0
290
     0
  0
SCALE
  5
48
102
{ACAD_REACTORS
330
42
102
}
330
42
100
AcDbScale
 70
     0
300
3/32" = 1'-0"
140
0.09375
141
12.0
290
     0
  0
SCALE
  5
49
102
{ACAD_REACTORS
330
42
102
}
330
42
100
AcDbScale
 70
     0
300
1/8" = 1'-0"
140
0.125
141
12.0
290
     0
  0
SCALE
  5
4A
102
{ACAD_REACTORS
330
42
102
}
330
42
100
AcDbScale
 70
     0
300
3/16" = 1'-0"
140
0.1875
141
12.0
290
     0
  0
SCALE
  5
4B
102
{ACAD_REACTORS
330
42
102
}
330
42
100
AcDbScale
 70
     0
300
1/4" = 1'-0"
140
0.25
141
12.0
290
     0
  0
SCALE
  5
4C
102
{ACAD_REACTORS
330
42
102
}
330
42
100
AcDbScale
 70
     0
300
3/8" = 1'-0"
140
0.375
141
12.0
290
     0
  0
SCALE
  5
4D
102
{ACAD_REACTORS
330
42
102
}
330
42
100
AcDbScale
 70
     0
300
1/2" = 1'-0"
140
0.5
141
12.0
290
     0
  0
SCALE
  5
4E
102
{ACAD_REACTORS
330
42
102
}
330
42
100
AcDbScale
 70
     0
300
3/4" = 1'-0"
140
0.75
141
12.0
290
     0
  0
SCALE
  5
4F
102
{ACAD_REACTORS
330
42
102
}
330
42
100
AcDbScale
 70
     0
300
1" = 1'-0"
140
1.0
141
12.0
290
     0
  0
SCALE
  5
50
102
{ACAD_REACTORS
330
42
102
}
330
42
100
AcDbScale
 70
     0
300
1-1/2" = 1'-0"
140
1.5
141
12.0
290
     0
  0
SCALE
  5
51
102
{ACAD_REACTORS
330
42
102
}
330
42
100
AcDbScale
 70
     0
300
3" = 1'-0"
140
3.0
141
12.0
290
     0
  0
SCALE
  5
52
102
{ACAD_REACTORS
330
42
102
}
330
42
100
AcDbScale
 70
     0
300
6" = 1'-0"
140
6.0
141
12.0
290
     0
  0
SCALE
  5
53
102
{ACAD_REACTORS
330
42
102
}
330
42
100
AcDbScale
 70
     0
300
1'-0" = 1'-0"
140
12.0
141
12.0
290
     0
  0
ACDBSECTIONVIEWSTYLE
  5
69
102
{ACAD_REACTORS
330
68
102
}
330
68
100
AcDbModelDocViewStyle
 70
     0
  3
Imperial24
290
     1
300
Imperial24
 90
        0
100
AcDbSectionViewStyle
 70
     0
 71
     0
 90
       78
 71
     1
340
55
 62
   256
 40
0.24
340
0
340
0
 62
   256
 40
0.24
300
I, O, Q, S, X, Z
 40
0.48
 90
        3
 40
0.18
 90
        1
 71
     2
340
5D
 90
       25
 62
   256
340
5D
 90
       50
 62
   256
 40
0.24
 40
0.0
 40
0.24
 71
     3
340
55
 62
   256
 40
0.24
 90
        1
 40
0.75
 90
        1
300
%<\AcVar ViewType \f "%tc1">% %<\AcVar ViewSectionStartId>%-%<\AcVar ViewSectionEndId>%\PSCALE %<\AcVar ViewScale \f "%sn">%
 71
     4
 62
   256
 62
   257
300
ANSI31
 40
1.0
 90
        0
290
     0
290
     0
 90
        6
 40
0.0
 40
1.570796326794896
 40
0.2617993877991494
 40
1.308996938995747
 40
-0.2617993877991494
 40
1.832595714594046
  0
TABLESTYLE
  5
65
102
{ACAD_XDICTIONARY
360
B1
102
}
102
{ACAD_REACTORS
330
64
102
}
330
64
100
AcDbTableStyle
280
     0
  3
Standard
 70
     0
 71
     0
 40
0.06
 41
0.06
280
     0
281
     0
  7
Standard
140
0.18
170
     2
 62
     0
 63
     7
283
     0
 90
      512
 91
        0
  1

274
    -2
284
     1
 64
     0
275
    -2
285
     1
 65
     0
276
    -2
286
     1
 66
     0
277
    -2
287
     1
 67
     0
278
    -2
288
     1
 68
     0
279
    -2
289
     1
 69
     0
  7
Standard
140
0.25
170
     5
 62
     0
 63
     7
283
     0
 90
      512
 91
        0
  1

274
    -2
284
     1
 64
     0
275
    -2
285
     1
 65
     0
276
    -2
286
     1
 66
     0
277
    -2
287
     1
 67
     0
278
    -2
288
     1
 68
     0
279
    -2
289
     1
 69
     0
  7
Standard
140
0.18
170
     5
 62
     0
 63
     7
283
     0
 90
      512
 91
        0
  1

274
    -2
284
     1
 64
     0
275
    -2
285
     1
 65
     0
276
    -2
286
     1
 66
     0
277
    -2
287
     1
 67
     0
278
    -2
288
     1
 68
     0
279
    -2
289
     1
 69
     0
  0
VISUALSTYLE
  5
2F
102
{ACAD_REACTORS
330
29
102
}
330
29
100
AcDbVisualStyle
  2
2dWireframe
 70
     4
177
     3
291
     0
 70
    58
 90
        0
176
     1
 90
        2
176
     1
 90
        0
176
     1
 90
        0
176
     1
 40
0.6
176
     1
 40
30.0
176
     1
 62
     7
420
 16777215
176
     1
 90
        1
176
     1
 90
        4
176
     1
 62
     7
176
     1
 62
   257
176
     1
 90
        1
176
     1
 90
        1
176
     1
 40
1.0
176
     1
 90
        0
176
     1
 62
   257
176
     1
 40
1.0
176
     1
 90
        1
176
     1
 90
        6
176
     1
 90
        2
176
     1
 62
     7
176
     1
 90
        5
176
     1
 90
        0
176
     1
 90
        0
176
     1
290
     0
176
     1
 90
        1
176
     1
 40
0.0
176
     1
 90
        0
176
     1
290
     1
176
     1
290
     1
176
     1
290
     0
176
     1
290
     0
176
     1
290
     0
176
     1
290
     0
176
     1
290
     0
176
     1
290
     0
176
     1
290
     0
176
     1
 90
       50
176
     1
 40
0.0
176
     1
 40
1.0
176
     1
 90
        0
176
     1
 62
    18
420
        0
176
     1
 90
       50
176
     1
 90
        3
176
     1
 62
     5
420
      255
176
     1
290
     0
176
     1
 90
       50
176
     1
 90
       50
176
     1
 90
       50
176
     1
290
     0
176
     1
 90
       50
176
     1
 62
   256
176
     0
 40
1.0
176
     0
 90
        2
176
     1
  1
strokes_ogs.tif
176
     1
290
     0
176
     1
 40
1.0
176
     1
 40
1.0
176
     1
  0
VISUALSTYLE
  5
2E
102
{ACAD_REACTORS
330
29
102
}
330
29
100
AcDbVisualStyle
  2
Basic
 70
     7
177
     3
291
     1
 70
    58
 90
        1
176
     1
 90
        0
176
     1
 90
        1
176
     1
 90
        0
176
     1
 40
0.6
176
     1
 40
30.0
176
     1
 62
     7
420
 16777215
176
     1
 90
        0
176
     1
 90
        4
176
     1
 62
     7
176
     1
 62
   257
176
     1
 90
        1
176
     1
 90
        1
176
     1
 40
1.0
176
     1
 90
        8
176
     1
 62
     7
176
     1
 40
1.0
176
     1
 90
        1
176
     1
 90
        6
176
     1
 90
        2
176
     1
 62
     7
176
     1
 90
        5
176
     1
 90
        0
176
     1
 90
        0
176
     1
290
     0
176
     1
 90
        1
176
     1
 40
0.0
176
     1
 90
        0
176
     1
290
     0
176
     1
290
     1
176
     1
290
     1
176
     1
290
     0
176
     1
290
     0
176
     1
290
     0
176
     1
290
     0
176
     1
290
     0
176
     1
290
     0
176
     1
 90
       50
176
     1
 40
0.0
176
     1
 40
1.0
176
     1
 90
        0
176
     1
 62
    18
420
        0
176
     1
 90
       50
176
     1
 90
        3
176
     1
 62
     5
420
      255
176
     1
290
     0
176
     1
 90
       50
176
     1
 90
       50
176
     1
 90
       50
176
     1
290
     0
176
     1
 90
       50
176
     1
 62
   256
176
     0
 40
1.0
176
     0
 90
        2
176
     1
  1
strokes_ogs.tif
176
     1
290
     0
176
     1
 40
1.0
176
     1
 40
1.0
176
     1
  0
VISUALSTYLE
  5
35
102
{ACAD_REACTORS
330
29
102
}
330
29
100
AcDbVisualStyle
  2
Brighten
 70
    12
177
     3
291
     1
 70
    58
 90
        2
176
     1
 90
        2
176
     1
 90
        0
176
     1
 90
        0
176
     1
 40
0.6
176
     1
 40
30.0
176
     1
 62
     7
420
 16777215
176
     1
 90
        1
176
     1
 90
        4
176
     1
 62
     7
176
     1
 62
   257
176
     1
 90
        1
176
     1
 90
        1
176
     1
 40
1.0
176
     1
 90
        8
176
     1
 62
     7
176
     1
 40
1.0
176
     1
 90
        1
176
     1
 90
        6
176
     1
 90
        2
176
     1
 62
     7
176
     1
 90
        5
176
     1
 90
        0
176
     1
 90
        0
176
     1
290
     0
176
     1
 90
        1
176
     1
 40
50.0
176
     1
 90
        0
176
     1
290
     0
176
     1
290
     1
176
     1
290
     1
176
     1
290
     0
176
     1
290
     0
176
     1
290
     0
176
     1
290
     0
176
     1
290
     0
176
     1
290
     0
176
     1
 90
       50
176
     1
 40
0.0
176
     1
 40
1.0
176
     1
 90
        0
176
     1
 62
    18
420
        0
176
     1
 90
       50
176
     1
 90
        3
176
     1
 62
     5
420
      255
176
     1
290
     0
176
     1
 90
       50
176
     1
 90
       50
176
     1
 90
       50
176
     1
290
     0
176
     1
 90
       50
176
     1
 62
   256
176
     0
 40
1.0
176
     0
 90
        2
176
     1
  1
strokes_ogs.tif
176
     1
290
     0
176
     1
 40
1.0
176
     1
 40
1.0
176
     1
  0
VISUALSTYLE
  5
39
102
{ACAD_REACTORS
330
29
102
}
330
29
100
AcDbVisualStyle
  2
ColorChange
 70
    16
177
     3
291
     1
 70
    58
 90
        2
176
     1
 90
        2
176
     1
 90
        3
176
     1
 90
        0
176
     1
 40
0.6
176
     1
 40
30.0
176
     1
 62
     8
420
  8421504
176
     1
 90
        1
176
     1
 90
        4
176
     1
 62
     7
176
     1
 62
   257
176
     1
 90
        1
176
     1
 90
        1
176
     1
 40
1.0
176
     1
 90
        8
176
     1
 62
     8
420
  8421504
176
     1
 40
1.0
176
     1
 90
        1
176
     1
 90
        6
176
     1
 90
        2
176
     1
 62
     7
176
     1
 90
        5
176
     1
 90
        0
176
     1
 90
        0
176
     1
290
     0
176
     1
 90
        1
176
     1
 40
0.0
176
     1
 90
        0
176
     1
290
     0
176
     1
290
     1
176
     1
290
     1
176
     1
290
     0
176
     1
290
     0
176
     1
290
     0
176
     1
290
     0
176
     1
290
     0
176
     1
290
     0
176
     1
 90
       50
176
     1
 40
0.0
176
     1
 40
1.0
176
     1
 90
        0
176
     1
 62
    18
420
        0
176
     1
 90
       50
176
     1
 90
        3
176
     1
 62
     5
420
      255
176
     1
290
     0
176
     1
 90
       50
176
     1
 90
       50
176
     1
 90
       50
176
     1
290
     0
176
     1
 90
       50
176
     1
 62
   256
176
     0
 40
1.0
176
     0
 90
        2
176
     1
  1
strokes_ogs.tif
176
     1
290
     0
176
     1
 40
1.0
176
     1
 40
1.0
176
     1
  0
VISUALSTYLE
  5
32
102
{ACAD_REACTORS
330
29
102
}
330
29
100
AcDbVisualStyle
  2
Conceptual
 70
     9
177
     3
291
     0
 70
    58
 90
        3
176
     1
 90
        2
176
     1
 90
        0
176
     1
 90
        0
176
     1
 40
0.6
176
     1
 40
30.0
176
     1
 62
     7
420
 16777215
176
     1
 90
        2
176
     1
 90
        2
176
     1
 62
     7
176
     1
 62
   257
176
     1
 90
        1
176
     1
 90
        1
176
     1
 40
179.0
176
     1
 90
        8
176
     1
 62
     7
176
     1
 40
1.0
176
     1
 90
        1
176
     1
 90
        6
176
     1
 90
        2
176
     1
 62
     7
176
     1
 90
        3
176
     1
 90
        0
176
     1
 90
        0
176
     1
290
     0
176
     1
 90
        1
176
     1
 40
0.0
176
     1
 90
        0
176
     1
290
     0
176
     1
290
     1
176
     1
290
     1
176
     1
290
     0
176
     1
290
     0
176
     1
290
     0
176
     1
290
     0
176
     1
290
     0
176
     1
290
     0
176
     1
 90
       50
176
     1
 40
0.0
176
     1
 40
1.0
176
     1
 90
        0
176
     1
 62
    18
420
        0
176
     1
 90
       50
176
     1
 90
        3
176
     1
 62
     5
420
      255
176
     1
290
     0
176
     1
 90
       50
176
     1
 90
       50
176
     1
 90
       50
176
     1
290
     0
176
     1
 90
       50
176
     1
 62
   256
176
     0
 40
1.0
176
     0
 90
        2
176
     1
  1
strokes_ogs.tif
176
     1
290
     0
176
     1
 40
1.0
176
     1
 40
1.0
176
     1
  0
VISUALSTYLE
  5
34
102
{ACAD_REACTORS
330
29
102
}
330
29
100
AcDbVisualStyle
  2
Dim
 70
    11
177
     3
291
     1
 70
    58
 90
        2
176
     1
 90
        2
176
     1
 90
        0
176
     1
 90
        0
176
     1
 40
0.6
176
     1
 40
30.0
176
     1
 62
     7
420
 16777215
176
     1
 90
        1
176
     1
 90
        4
176
     1
 62
     7
176
     1
 62
   257
176
     1
 90
        1
176
     1
 90
        1
176
     1
 40
1.0
176
     1
 90
        8
176
     1
 62
     7
176
     1
 40
1.0
176
     1
 90
        1
176
     1
 90
        6
176
     1
 90
        2
176
     1
 62
     7
176
     1
 90
        5
176
     1
 90
        0
176
     1
 90
        0
176
     1
290
     0
176
     1
 90
        1
176
     1
 40
-50.0
176
     1
 90
        0
176
     1
290
     0
176
     1
290
     1
176
     1
290
     1
176
     1
290
     0
176
     1
290
     0
176
     1
290
     0
176
     1
290
     0
176
     1
290
     0
176
     1
290
     0
176
     1
 90
       50
176
     1
 40
0.0
176
     1
 40
1.0
176
     1
 90
        0
176
     1
 62
    18
420
        0
176
     1
 90
       50
176
     1
 90
        3
176
     1
 62
     5
420
      255
176
     1
290
     0
176
     1
 90
       50
176
     1
 90
       50
176
     1
 90
       50
176
     1
290
     0
176
     1
 90
       50
176
     1
 62
   256
176
     0
 40
1.0
176
     0
 90
        2
176
     1
  1
strokes_ogs.tif
176
     1
290
     0
176
     1
 40
1.0
176
     1
 40
1.0
176
     1
  0
VISUALSTYLE
  5
41
102
{ACAD_REACTORS
330
29
102
}
330
29
100
AcDbVisualStyle
  2
EdgeColorOff
 70
    22
177
     3
291
     1
 70
    58
 90
        2
176
     0
 90
        2
176
     0
 90
        0
176
     0
 90
        0
176
     0
 40
0.6
176
     0
 40
30.0
176
     0
 62
     7
420
 16777215
176
     0
 90
        1
176
     0
 90
        4
176
     0
 62
     7
176
     0
 62
   257
176
     0
 90
        1
176
     0
 90
        1
176
     0
 40
1.0
176
     0
 90
        8
176
     2
 62
     7
176
     0
 40
1.0
176
     0
 90
        1
176
     0
 90
        6
176
     0
 90
        2
176
     0
 62
     7
176
     0
 90
        5
176
     0
 90
        0
176
     0
 90
        0
176
     0
290
     0
176
     0
 90
        1
176
     0
 40
0.0
176
     0
 90
        0
176
     0
290
     0
176
     0
290
     1
176
     0
290
     1
176
     0
290
     0
176
     0
290
     0
176
     0
290
     0
176
     0
290
     0
176
     0
290
     0
176
     0
290
     0
176
     0
 90
       50
176
     0
 40
0.0
176
     0
 40
1.0
176
     0
 90
        0
176
     0
 62
    18
420
        0
176
     0
 90
       50
176
     0
 90
        3
176
     0
 62
     5
420
      255
176
     0
290
     0
176
     0
 90
       50
176
     0
 90
       50
176
     0
 90
       50
176
     0
290
     0
176
     0
 90
       50
176
     0
 62
   256
176
     0
 40
1.0
176
     0
 90
        2
176
     0
  1
strokes_ogs.tif
176
     0
290
     0
176
     0
 40
1.0
176
     0
 40
1.0
176
     0
  0
VISUALSTYLE
  5
38
102
{ACAD_REACTORS
330
29
102
}
330
29
100
AcDbVisualStyle
  2
Facepattern
 70
    15
177
     3
291
     1
 70
    58
 90
        2
176
     1
 90
        2
176
     1
 90
        0
176
     1
 90
        0
176
     1
 40
0.6
176
     1
 40
30.0
176
     1
 62
     7
420
 16777215
176
     1
 90
        1
176
     1
 90
        4
176
     1
 62
     7
176
     1
 62
   257
176
     1
 90
        1
176
     1
 90
        1
176
     1
 40
1.0
176
     1
 90
        8
176
     1
 62
     7
176
     1
 40
1.0
176
     1
 90
        1
176
     1
 90
        6
176
     1
 90
        2
176
     1
 62
     7
176
     1
 90
        5
176
     1
 90
        0
176
     1
 90
        0
176
     1
290
     0
176
     1
 90
        1
176
     1
 40
0.0
176
     1
 90
        0
176
     1
290
     0
176
     1
290
     1
176
     1
290
     1
176
     1
290
     0
176
     1
290
     0
176
     1
290
     0
176
     1
290
     0
176
     1
290
     0
176
     1
290
     0
176
     1
 90
       50
176
     1
 40
0.0
176
     1
 40
1.0
176
     1
 90
        0
176
     1
 62
    18
420
        0
176
     1
 90
       50
176
     1
 90
        3
176
     1
 62
     5
420
      255
176
     1
290
     0
176
     1
 90
       50
176
     1
 90
       50
176
     1
 90
       50
176
     1
290
     0
176
     1
 90
       50
176
     1
 62
   256
176
     0
 40
1.0
176
     0
 90
        2
176
     1
  1
strokes_ogs.tif
176
     1
290
     0
176
     1
 40
1.0
176
     1
 40
1.0
176
     1
  0
VISUALSTYLE
  5
2A
102
{ACAD_REACTORS
330
29
102
}
330
29
100
AcDbVisualStyle
  2
Flat
 70
     0
177
     3
291
     1
 70
    58
 90
        2
176
     1
 90
        1
176
     1
 90
        1
176
     1
 90
        2
176
     1
 40
0.6
176
     1
 40
30.0
176
     1
 62
     7
420
 16777215
176
     1
 90
        0
176
     1
 90
        0
176
     1
 62
     7
176
     1
 62
   257
176
     1
 90
        1
176
     1
 90
        1
176
     1
 40
1.0
176
     1
 90
        8
176
     1
 62
     7
176
     1
 40
1.0
176
     1
 90
        1
176
     1
 90
        6
176
     1
 90
        2
176
     1
 62
     7
176
     1
 90
        5
176
     1
 90
        0
176
     1
 90
        0
176
     1
290
     0
176
     1
 90
       13
176
     1
 40
0.0
176
     1
 90
        0
176
     1
290
     0
176
     1
290
     1
176
     1
290
     1
176
     1
290
     0
176
     1
290
     0
176
     1
290
     0
176
     1
290
     0
176
     1
290
     0
176
     1
290
     0
176
     1
 90
       50
176
     1
 40
0.0
176
     1
 40
1.0
176
     1
 90
        0
176
     1
 62
    18
420
        0
176
     1
 90
       50
176
     1
 90
        3
176
     1
 62
     5
420
      255
176
     1
290
     0
176
     1
 90
       50
176
     1
 90
       50
176
     1
 90
       50
176
     1
290
     0
176
     1
 90
       50
176
     1
 62
   256
176
     0
 40
1.0
176
     0
 90
        2
176
     1
  1
strokes_ogs.tif
176
     1
290
     0
176
     1
 40
1.0
176
     1
 40
1.0
176
     1
  0
VISUALSTYLE
  5
2B
102
{ACAD_REACTORS
330
29
102
}
330
29
100
AcDbVisualStyle
  2
FlatWithEdges
 70
     1
177
     3
291
     1
 70
    58
 90
        2
176
     1
 90
        1
176
     1
 90
        1
176
     1
 90
        2
176
     1
 40
0.6
176
     1
 40
30.0
176
     1
 62
     7
420
 16777215
176
     1
 90
        1
176
     1
 90
        0
176
     1
 62
     7
176
     1
 62
   257
176
     1
 90
        1
176
     1
 90
        1
176
     1
 40
1.0
176
     1
 90
        0
176
     1
 62
   257
176
     1
 40
1.0
176
     1
 90
        1
176
     1
 90
        6
176
     1
 90
        2
176
     1
 62
     7
176
     1
 90
        5
176
     1
 90
        0
176
     1
 90
        0
176
     1
290
     0
176
     1
 90
       13
176
     1
 40
0.0
176
     1
 90
        0
176
     1
290
     0
176
     1
290
     1
176
     1
290
     1
176
     1
290
     0
176
     1
290
     0
176
     1
290
     0
176
     1
290
     0
176
     1
290
     0
176
     1
290
     0
176
     1
 90
       50
176
     1
 40
0.0
176
     1
 40
1.0
176
     1
 90
        0
176
     1
 62
    18
420
        0
176
     1
 90
       50
176
     1
 90
        3
176
     1
 62
     5
420
      255
176
     1
290
     0
176
     1
 90
       50
176
     1
 90
       50
176
     1
 90
       50
176
     1
290
     0
176
     1
 90
       50
176
     1
 62
   256
176
     0
 40
1.0
176
     0
 90
        2
176
     1
  1
strokes_ogs.tif
176
     1
290
     0
176
     1
 40
1.0
176
     1
 40
1.0
176
     1
  0
VISUALSTYLE
  5
2C
102
{ACAD_REACTORS
330
29
102
}
330
29
100
AcDbVisualStyle
  2
Gouraud
 70
     2
177
     3
291
     1
 70
    58
 90
        2
176
     1
 90
        2
176
     1
 90
        1
176
     1
 90
        2
176
     1
 40
0.6
176
     1
 40
30.0
176
     1
 62
     7
420
 16777215
176
     1
 90
        0
176
     1
 90
        0
176
     1
 62
     7
176
     1
 62
   257
176
     1
 90
        1
176
     1
 90
        1
176
     1
 40
1.0
176
     1
 90
        0
176
     1
 62
     7
176
     1
 40
1.0
176
     1
 90
        1
176
     1
 90
        6
176
     1
 90
        2
176
     1
 62
     7
176
     1
 90
        5
176
     1
 90
        0
176
     1
 90
        0
176
     1
290
     0
176
     1
 90
       13
176
     1
 40
0.0
176
     1
 90
        0
176
     1
290
     0
176
     1
290
     1
176
     1
290
     1
176
     1
290
     0
176
     1
290
     0
176
     1
290
     0
176
     1
290
     0
176
     1
290
     0
176
     1
290
     0
176
     1
 90
       50
176
     1
 40
0.0
176
     1
 40
1.0
176
     1
 90
        0
176
     1
 62
    18
420
        0
176
     1
 90
       50
176
     1
 90
        3
176
     1
 62
     5
420
      255
176
     1
290
     0
176
     1
 90
       50
176
     1
 90
       50
176
     1
 90
       50
176
     1
290
     0
176
     1
 90
       50
176
     1
 62
   256
176
     0
 40
1.0
176
     0
 90
        2
176
     1
  1
strokes_ogs.tif
176
     1
290
     0
176
     1
 40
1.0
176
     1
 40
1.0
176
     1
  0
VISUALSTYLE
  5
2D
102
{ACAD_REACTORS
330
29
102
}
330
29
100
AcDbVisualStyle
  2
GouraudWithEdges
 70
     3
177
     3
291
     1
 70
    58
 90
        2
176
     1
 90
        2
176
     1
 90
        1
176
     1
 90
        2
176
     1
 40
0.6
176
     1
 40
30.0
176
     1
 62
     7
420
 16777215
176
     1
 90
        1
176
     1
 90
        0
176
     1
 62
     7
176
     1
 62
   257
176
     1
 90
        1
176
     1
 90
        1
176
     1
 40
1.0
176
     1
 90
        0
176
     1
 62
   257
176
     1
 40
1.0
176
     1
 90
        1
176
     1
 90
        6
176
     1
 90
        2
176
     1
 62
     7
176
     1
 90
        5
176
     1
 90
        0
176
     1
 90
        0
176
     1
290
     0
176
     1
 90
       13
176
     1
 40
0.0
176
     1
 90
        0
176
     1
290
     0
176
     1
290
     1
176
     1
290
     1
176
     1
290
     0
176
     1
290
     0
176
     1
290
     0
176
     1
290
     0
176
     1
290
     0
176
     1
290
     0
176
     1
 90
       50
176
     1
 40
0.0
176
     1
 40
1.0
176
     1
 90
        0
176
     1
 62
    18
420
        0
176
     1
 90
       50
176
     1
 90
        3
176
     1
 62
     5
420
      255
176
     1
290
     0
176
     1
 90
       50
176
     1
 90
       50
176
     1
 90
       50
176
     1
290
     0
176
     1
 90
       50
176
     1
 62
   256
176
     0
 40
1.0
176
     0
 90
        2
176
     1
  1
strokes_ogs.tif
176
     1
290
     0
176
     1
 40
1.0
176
     1
 40
1.0
176
     1
  0
VISUALSTYLE
  5
31
102
{ACAD_REACTORS
330
29
102
}
330
29
100
AcDbVisualStyle
  2
Hidden
 70
     6
177
     3
291
     0
 70
    58
 90
        1
176
     1
 90
        2
176
     1
 90
        2
176
     1
 90
        0
176
     1
 40
0.6
176
     1
 40
30.0
176
     1
 62
     7
420
 16777215
176
     1
 90
        2
176
     1
 90
        2
176
     1
 62
     7
176
     1
 62
   257
176
     1
 90
        2
176
     1
 90
        1
176
     1
 40
40.0
176
     1
 90
        0
176
     1
 62
   257
176
     1
 40
1.0
176
     1
 90
        1
176
     1
 90
        6
176
     1
 90
        2
176
     1
 62
     7
176
     1
 90
        3
176
     1
 90
        0
176
     1
 90
        0
176
     1
290
     0
176
     1
 90
        1
176
     1
 40
0.0
176
     1
 90
        0
176
     1
290
     0
176
     1
290
     1
176
     1
290
     1
176
     1
290
     0
176
     1
290
     0
176
     1
290
     0
176
     1
290
     0
176
     1
290
     0
176
     1
290
     0
176
     1
 90
       50
176
     1
 40
0.0
176
     1
 40
1.0
176
     1
 90
        0
176
     1
 62
    18
420
        0
176
     1
 90
       50
176
     1
 90
        3
176
     1
 62
     5
420
      255
176
     1
290
     0
176
     1
 90
       50
176
     1
 90
       50
176
     1
 90
       50
176
     1
290
     0
176
     1
 90
       50
176
     1
 62
   256
176
     0
 40
1.0
176
     0
 90
        2
176
     1
  1
strokes_ogs.tif
176
     1
290
     0
176
     1
 40
1.0
176
     1
 40
1.0
176
     1
  0
VISUALSTYLE
  5
3F
102
{ACAD_REACTORS
330
29
102
}
330
29
100
AcDbVisualStyle
  2
JitterOff
 70
    20
177
     3
291
     1
 70
    58
 90
        2
176
     0
 90
        2
176
     0
 90
        0
176
     0
 90
        0
176
     0
 40
0.6
176
     0
 40
30.0
176
     0
 62
     7
420
 16777215
176
     0
 90
        1
176
     0
 90
        4
176
     0
 62
     7
176
     0
 62
   257
176
     0
 90
        1
176
     0
 90
        1
176
     0
 40
1.0
176
     0
 90
       10
176
     2
 62
     7
176
     0
 40
1.0
176
     0
 90
        1
176
     0
 90
        6
176
     0
 90
        2
176
     0
 62
     7
176
     0
 90
        5
176
     0
 90
        0
176
     0
 90
        0
176
     0
290
     0
176
     0
 90
        1
176
     0
 40
0.0
176
     0
 90
        0
176
     0
290
     0
176
     0
290
     1
176
     0
290
     1
176
     0
290
     0
176
     0
290
     0
176
     0
290
     0
176
     0
290
     0
176
     0
290
     0
176
     0
290
     0
176
     0
 90
       50
176
     0
 40
0.0
176
     0
 40
1.0
176
     0
 90
        0
176
     0
 62
    18
420
        0
176
     0
 90
       50
176
     0
 90
        3
176
     0
 62
     5
420
      255
176
     0
290
     0
176
     0
 90
       50
176
     0
 90
       50
176
     0
 90
       50
176
     0
290
     0
176
     0
 90
       50
176
     0
 62
   256
176
     0
 40
1.0
176
     0
 90
        2
176
     0
  1
strokes_ogs.tif
176
     0
290
     0
176
     0
 40
1.0
176
     0
 40
1.0
176
     0
  0
VISUALSTYLE
  5
37
102
{ACAD_REACTORS
330
29
102
}
330
29
100
AcDbVisualStyle
  2
Linepattern
 70
    14
177
     3
291
     1
 70
    58
 90
        2
176
     1
 90
        2
176
     1
 90
        0
176
     1
 90
        0
176
     1
 40
0.6
176
     1
 40
30.0
176
     1
 62
     7
420
 16777215
176
     1
 90
        1
176
     1
 90
        4
176
     1
 62
     7
176
     1
 62
   257
176
     1
 90
        7
176
     1
 90
        7
176
     1
 40
1.0
176
     1
 90
        8
176
     1
 62
     7
176
     1
 40
1.0
176
     1
 90
        1
176
     1
 90
        6
176
     1
 90
        2
176
     1
 62
     7
176
     1
 90
        5
176
     1
 90
        0
176
     1
 90
        0
176
     1
290
     0
176
     1
 90
        1
176
     1
 40
0.0
176
     1
 90
        0
176
     1
290
     0
176
     1
290
     1
176
     1
290
     1
176
     1
290
     0
176
     1
290
     0
176
     1
290
     0
176
     1
290
     0
176
     1
290
     0
176
     1
290
     0
176
     1
 90
       50
176
     1
 40
0.0
176
     1
 40
1.0
176
     1
 90
        0
176
     1
 62
    18
420
        0
176
     1
 90
       50
176
     1
 90
        3
176
     1
 62
     5
420
      255
176
     1
290
     0
176
     1
 90
       50
176
     1
 90
       50
176
     1
 90
       50
176
     1
290
     0
176
     1
 90
       50
176
     1
 62
   256
176
     0
 40
1.0
176
     0
 90
        2
176
     1
  1
strokes_ogs.tif
176
     1
290
     0
176
     1
 40
1.0
176
     1
 40
1.0
176
     1
  0
VISUALSTYLE
  5
40
102
{ACAD_REACTORS
330
29
102
}
330
29
100
AcDbVisualStyle
  2
OverhangOff
 70
    21
177
     3
291
     1
 70
    58
 90
        2
176
     0
 90
        2
176
     0
 90
        0
176
     0
 90
        0
176
     0
 40
0.6
176
     0
 40
30.0
176
     0
 62
     7
420
 16777215
176
     0
 90
        1
176
     0
 90
        4
176
     0
 62
     7
176
     0
 62
   257
176
     0
 90
        1
176
     0
 90
        1
176
     0
 40
1.0
176
     0
 90
        9
176
     2
 62
     7
176
     0
 40
1.0
176
     0
 90
        1
176
     0
 90
        6
176
     0
 90
        2
176
     0
 62
     7
176
     0
 90
        5
176
     0
 90
        0
176
     0
 90
        0
176
     0
290
     0
176
     0
 90
        1
176
     0
 40
0.0
176
     0
 90
        0
176
     0
290
     0
176
     0
290
     1
176
     0
290
     1
176
     0
290
     0
176
     0
290
     0
176
     0
290
     0
176
     0
290
     0
176
     0
290
     0
176
     0
290
     0
176
     0
 90
       50
176
     0
 40
0.0
176
     0
 40
1.0
176
     0
 90
        0
176
     0
 62
    18
420
        0
176
     0
 90
       50
176
     0
 90
        3
176
     0
 62
     5
420
      255
176
     0
290
     0
176
     0
 90
       50
176
     0
 90
       50
176
     0
 90
       50
176
     0
290
     0
176
     0
 90
       50
176
     0
 62
   256
176
     0
 40
1.0
176
     0
 90
        2
176
     0
  1
strokes_ogs.tif
176
     0
290
     0
176
     0
 40
1.0
176
     0
 40
1.0
176
     0
  0
VISUALSTYLE
  5
33
102
{ACAD_REACTORS
330
29
102
}
330
29
100
AcDbVisualStyle
  2
Realistic
 70
     8
177
     3
291
     0
 70
    58
 90
        2
176
     1
 90
        3
176
     1
 90
        0
176
     1
 90
        2
176
     1
 40
0.6
176
     1
 40
30.0
176
     1
 62
     7
420
 16777215
176
     1
 90
        0
176
     1
 90
        0
176
     1
 62
     7
176
     1
 62
   257
176
     1
 90
        1
176
     1
 90
        1
176
     1
 40
1.0
176
     1
 90
        8
176
     1
 62
   257
176
     1
 40
1.0
176
     1
 90
        1
176
     1
 90
        6
176
     1
 90
        2
176
     1
 62
     7
176
     1
 90
        3
176
     1
 90
        0
176
     1
 90
        0
176
     1
290
     0
176
     1
 90
       13
176
     1
 40
0.0
176
     1
 90
        0
176
     1
290
     0
176
     1
290
     1
176
     1
290
     1
176
     1
290
     0
176
     1
290
     0
176
     1
290
     0
176
     1
290
     0
176
     1
290
     0
176
     1
290
     0
176
     1
 90
       50
176
     1
 40
0.0
176
     1
 40
1.0
176
     1
 90
        0
176
     1
 62
    18
420
        0
176
     1
 90
       50
176
     1
 90
        3
176
     1
 62
     5
420
      255
176
     1
290
     0
176
     1
 90
       50
176
     1
 90
       50
176
     1
 90
       50
176
     1
290
     0
176
     1
 90
       50
176
     1
 62
   256
176
     0
 40
1.0
176
     0
 90
        2
176
     1
  1
strokes_ogs.tif
176
     1
290
     0
176
     1
 40
1.0
176
     1
 40
1.0
176
     1
  0
VISUALSTYLE
  5
3E
102
{ACAD_REACTORS
330
29
102
}
330
29
100
AcDbVisualStyle
  2
Shaded
 70
    27
177
     3
291
     0
 70
    58
 90
        2
176
     1
 90
        2
176
     1
 90
        1
176
     1
 90
        2
176
     1
 40
0.6
176
     1
 40
30.0
176
     1
 62
     7
420
 16777215
176
     1
 90
        0
176
     1
 90
        4
176
     1
 62
     7
176
     1
 62
   257
176
     1
 90
        1
176
     1
 90
        1
176
     1
 40
1.0
176
     1
 90
        8
176
     1
 62
   257
176
     1
 40
1.0
176
     1
 90
        1
176
     1
 90
        6
176
     1
 90
        2
176
     1
 62
     8
420
  7895160
176
     1
 90
        3
176
     1
 90
        0
176
     1
 90
        0
176
     1
290
     0
176
     1
 90
        5
176
     1
 40
0.0
176
     1
 90
        0
176
     1
290
     0
176
     1
290
     1
176
     1
290
     1
176
     1
290
     0
176
     1
290
     0
176
     1
290
     0
176
     1
290
     0
176
     1
290
     0
176
     1
290
     0
176
     1
 90
       50
176
     1
 40
0.0
176
     1
 40
1.0
176
     1
 90
        0
176
     1
 62
    18
420
        0
176
     1
 90
       50
176
     1
 90
        3
176
     1
 62
     5
420
      255
176
     1
290
     0
176
     1
 90
       50
176
     1
 90
       50
176
     1
 90
       50
176
     1
290
     0
176
     1
 90
       50
176
     1
 62
   256
176
     0
 40
1.0
176
     0
 90
        2
176
     1
  1
strokes_ogs.tif
176
     1
290
     0
176
     1
 40
1.0
176
     1
 40
1.0
176
     1
  0
VISUALSTYLE
  5
3D
102
{ACAD_REACTORS
330
29
102
}
330
29
100
AcDbVisualStyle
  2
Shaded with edges
 70
    26
177
     3
291
     0
 70
    58
 90
        2
176
     1
 90
        2
176
     1
 90
        1
176
     1
 90
        2
176
     1
 40
0.6
176
     1
 40
30.0
176
     1
 62
     7
420
 16777215
176
     1
 90
        1
176
     1
 90
        2
176
     1
 62
     7
176
     1
 62
   257
176
     1
 90
        2
176
     1
 90
        1
176
     1
 40
1.0
176
     1
 90
        8
176
     1
 62
   257
176
     1
 40
1.0
176
     1
 90
        1
176
     1
 90
        6
176
     1
 90
        2
176
     1
 62
     7
176
     1
 90
        3
176
     1
 90
        0
176
     1
 90
        0
176
     1
290
     0
176
     1
 90
        5
176
     1
 40
0.0
176
     1
 90
        0
176
     1
290
     0
176
     1
290
     1
176
     1
290
     1
176
     1
290
     0
176
     1
290
     0
176
     1
290
     0
176
     1
290
     0
176
     1
290
     0
176
     1
290
     0
176
     1
 90
       50
176
     1
 40
0.0
176
     1
 40
1.0
176
     1
 90
        0
176
     1
 62
    18
420
        0
176
     1
 90
       50
176
     1
 90
        3
176
     1
 62
     5
420
      255
176
     1
290
     0
176
     1
 90
       50
176
     1
 90
       50
176
     1
 90
       50
176
     1
290
     0
176
     1
 90
       50
176
     1
 62
   256
176
     0
 40
1.0
176
     0
 90
        2
176
     1
  1
strokes_ogs.tif
176
     1
290
     0
176
     1
 40
1.0
176
     1
 40
1.0
176
     1
  0
VISUALSTYLE
  5
3A
102
{ACAD_REACTORS
330
29
102
}
330
29
100
AcDbVisualStyle
  2
Shades of Gray
 70
    23
177
     3
291
     0
 70
    58
 90
        2
176
     1
 90
        2
176
     1
 90
        3
176
     1
 90
        0
176
     1
 40
0.6
176
     1
 40
30.0
176
     1
 62
     7
420
 16777215
176
     1
 90
        2
176
     1
 90
        2
176
     1
 62
     7
176
     1
 62
     7
176
     1
 90
        1
176
     1
 90
        1
176
     1
 40
40.0
176
     1
 90
        8
176
     1
 62
     7
176
     1
 40
1.0
176
     1
 90
        1
176
     1
 90
        6
176
     1
 90
        2
176
     1
 62
     7
176
     1
 90
        3
176
     1
 90
        0
176
     1
 90
        0
176
     1
290
     0
176
     1
 90
        1
176
     1
 40
0.0
176
     1
 90
        0
176
     1
290
     0
176
     1
290
     1
176
     1
290
     1
176
     1
290
     0
176
     1
290
     0
176
     1
290
     0
176
     1
290
     0
176
     1
290
     0
176
     1
290
     0
176
     1
 90
       50
176
     1
 40
0.0
176
     1
 40
1.0
176
     1
 90
        0
176
     1
 62
    18
420
        0
176
     1
 90
       50
176
     1
 90
        3
176
     1
 62
     5
420
      255
176
     1
290
     0
176
     1
 90
       50
176
     1
 90
       50
176
     1
 90
       50
176
     1
290
     0
176
     1
 90
       50
176
     1
 62
   256
176
     0
 40
1.0
176
     0
 90
        2
176
     1
  1
strokes_ogs.tif
176
     1
290
     0
176
     1
 40
1.0
176
     1
 40
1.0
176
     1
  0
VISUALSTYLE
  5
3B
102
{ACAD_REACTORS
330
29
102
}
330
29
100
AcDbVisualStyle
  2
Sketchy
 70
    24
177
     3
291
     0
 70
    58
 90
        1
176
     1
 90
        2
176
     1
 90
        2
176
     1
 90
        0
176
     1
 40
0.6
176
     1
 40
30.0
176
     1
 62
     7
420
 16777215
176
     1
 90
        2
176
     1
 90
        2
176
     1
 62
     7
176
     1
 62
     7
176
     1
 90
        1
176
     1
 90
        1
176
     1
 40
40.0
176
     1
 90
       11
176
     1
 62
     7
176
     1
 40
1.0
176
     1
 90
        1
176
     1
 90
        6
176
     1
 90
        2
176
     1
 62
     7
176
     1
 90
        6
176
     1
 90
        0
176
     1
 90
        0
176
     1
290
     0
176
     1
 90
        1
176
     1
 40
0.0
176
     1
 90
        0
176
     1
290
     0
176
     1
290
     1
176
     1
290
     1
176
     1
290
     0
176
     1
290
     0
176
     1
290
     0
176
     1
290
     0
176
     1
290
     0
176
     1
290
     0
176
     1
 90
       50
176
     1
 40
0.0
176
     1
 40
1.0
176
     1
 90
        0
176
     1
 62
    18
420
        0
176
     1
 90
       50
176
     1
 90
        3
176
     1
 62
     5
420
      255
176
     1
290
     0
176
     1
 90
       50
176
     1
 90
       50
176
     1
 90
       50
176
     1
290
     0
176
     1
 90
       50
176
     1
 62
   256
176
     0
 40
1.0
176
     0
 90
        2
176
     1
  1
strokes_ogs.tif
176
     1
290
     0
176
     1
 40
1.0
176
     1
 40
1.0
176
     1
  0
VISUALSTYLE
  5
36
102
{ACAD_REACTORS
330
29
102
}
330
29
100
AcDbVisualStyle
  2
Thicken
 70
    13
177
     3
291
     1
 70
    58
 90
        2
176
     1
 90
        2
176
     1
 90
        0
176
     1
 90
        0
176
     1
 40
0.6
176
     1
 40
30.0
176
     1
 62
     7
420
 16777215
176
     1
 90
        1
176
     1
 90
        4
176
     1
 62
     7
176
     1
 62
   257
176
     1
 90
        1
176
     1
 90
        1
176
     1
 40
1.0
176
     1
 90
       12
176
     1
 62
     7
176
     1
 40
1.0
176
     1
 90
        1
176
     1
 90
        6
176
     1
 90
        2
176
     1
 62
     7
176
     1
 90
        5
176
     1
 90
        0
176
     1
 90
        0
176
     1
290
     0
176
     1
 90
        1
176
     1
 40
0.0
176
     1
 90
        0
176
     1
290
     0
176
     1
290
     1
176
     1
290
     1
176
     1
290
     0
176
     1
290
     0
176
     1
290
     0
176
     1
290
     0
176
     1
290
     0
176
     1
290
     0
176
     1
 90
       50
176
     1
 40
0.0
176
     1
 40
1.0
176
     1
 90
        0
176
     1
 62
    18
420
        0
176
     1
 90
       50
176
     1
 90
        3
176
     1
 62
     5
420
      255
176
     1
290
     0
176
     1
 90
       50
176
     1
 90
       50
176
     1
 90
       50
176
     1
290
     0
176
     1
 90
       50
176
     1
 62
   256
176
     0
 40
1.0
176
     0
 90
        2
176
     1
  1
strokes_ogs.tif
176
     1
290
     0
176
     1
 40
1.0
176
     1
 40
1.0
176
     1
  0
VISUALSTYLE
  5
30
102
{ACAD_REACTORS
330
29
102
}
330
29
100
AcDbVisualStyle
  2
Wireframe
 70
     5
177
     3
291
     0
 70
    58
 90
        0
176
     1
 90
        2
176
     1
 90
        0
176
     1
 90
        0
176
     1
 40
0.6
176
     1
 40
30.0
176
     1
 62
     7
420
 16777215
176
     1
 90
        1
176
     1
 90
        4
176
     1
 62
     7
176
     1
 62
   257
176
     1
 90
        1
176
     1
 90
        1
176
     1
 40
1.0
176
     1
 90
        0
176
     1
 62
   257
176
     1
 40
1.0
176
     1
 90
        1
176
     1
 90
        6
176
     1
 90
        2
176
     1
 62
     7
176
     1
 90
        3
176
     1
 90
        0
176
     1
 90
        0
176
     1
290
     0
176
     1
 90
        1
176
     1
 40
0.0
176
     1
 90
        0
176
     1
290
     0
176
     1
290
     1
176
     1
290
     1
176
     1
290
     0
176
     1
290
     0
176
     1
290
     0
176
     1
290
     0
176
     1
290
     0
176
     1
290
     0
176
     1
 90
       50
176
     1
 40
0.0
176
     1
 40
1.0
176
     1
 90
        0
176
     1
 62
    18
420
        0
176
     1
 90
       50
176
     1
 90
        3
176
     1
 62
     5
420
      255
176
     1
290
     0
176
     1
 90
       50
176
     1
 90
       50
176
     1
 90
       50
176
     1
290
     0
176
     1
 90
       50
176
     1
 62
   256
176
     0
 40
1.0
176
     0
 90
        2
176
     1
  1
strokes_ogs.tif
176
     1
290
     0
176
     1
 40
1.0
176
     1
 40
1.0
176
     1
  0
VISUALSTYLE
  5
3C
102
{ACAD_REACTORS
330
29
102
}
330
29
100
AcDbVisualStyle
  2
X-Ray
 70
    25
177
     3
291
     0
 70
    58
 90
        2
176
     1
 90
        2
176
     1
 90
        1
176
     1
 90
        1
176
     1
 40
0.5
176
     1
 40
30.0
176
     1
 62
     7
420
 16777215
176
     1
 90
        1
176
     1
 90
        0
176
     1
 62
     7
176
     1
 62
   257
176
     1
 90
        1
176
     1
 90
        1
176
     1
 40
1.0
176
     1
 90
        8
176
     1
 62
     7
176
     1
 40
1.0
176
     1
 90
        1
176
     1
 90
        6
176
     1
 90
        2
176
     1
 62
     7
176
     1
 90
        3
176
     1
 90
        0
176
     1
 90
        0
176
     1
290
     0
176
     1
 90
       13
176
     1
 40
0.0
176
     1
 90
        0
176
     1
290
     0
176
     1
290
     1
176
     1
290
     1
176
     1
290
     0
176
     1
290
     0
176
     1
290
     0
176
     1
290
     0
176
     1
290
     0
176
     1
290
     0
176
     1
 90
       50
176
     1
 40
0.0
176
     1
 40
1.0
176
     1
 90
        0
176
     1
 62
    18
420
        0
176
     1
 90
       50
176
     1
 90
        3
176
     1
 62
     5
420
      255
176
     1
290
     0
176
     1
 90
       50
176
     1
 90
       50
176
     1
 90
       50
176
     1
290
     0
176
     1
 90
       50
176
     1
 62
   256
176
     0
 40
1.0
176
     0
 90
        2
176
     1
  1
strokes_ogs.tif
176
     1
290
     0
176
     1
 40
1.0
176
     1
 40
1.0
176
     1
  0
DICTIONARYVAR
  5
B0
102
{ACAD_REACTORS
330
AB
102
}
330
AB
100
DictionaryVariables
280
     0
  1
1:1
  0
DICTIONARYVAR
  5
AD
102
{ACAD_REACTORS
330
AB
102
}
330
AB
100
DictionaryVariables
280
     0
  1
STANDARD
  0
DICTIONARYVAR
  5
AC
102
{ACAD_REACTORS
330
AB
102
}
330
AB
100
DictionaryVariables
280
     0
  1
STANDARD
  0
DICTIONARYVAR
  5
AE
102
{ACAD_REACTORS
330
AB
102
}
330
AB
100
DictionaryVariables
280
     0
  1
Imperial24
  0
DICTIONARYVAR
  5
AF
102
{ACAD_REACTORS
330
AB
102
}
330
AB
100
DictionaryVariables
280
     0
  1
Imperial24
  0
DICTIONARY
  5
1A
330
19
100
AcDbDictionary
280
     1
281
     1
  3
BUMPTILE
360
1C
  3
DIFFUSETILE
360
1B
  3
OPACITYTILE
360
1F
  3
REFLECTIONTILE
360
1E
  3
REFRACTIONTILE
360
20
  3
SPECULARTILE
360
1D
  0
DICTIONARY
  5
12
330
11
100
AcDbDictionary
280
     1
281
     1
  3
BUMPTILE
360
14
  3
DIFFUSETILE
360
13
  3
OPACITYTILE
360
17
  3
REFLECTIONTILE
360
16
  3
REFRACTIONTILE
360
18
  3
SPECULARTILE
360
15
  0
DICTIONARY
  5
22
330
21
100
AcDbDictionary
280
     1
281
     1
  3
BUMPTILE
360
24
  3
DIFFUSETILE
360
23
  3
OPACITYTILE
360
27
  3
REFLECTIONTILE
360
26
  3
REFRACTIONTILE
360
28
  3
SPECULARTILE
360
25
  0
DICTIONARY
  5
B1
330
65
100
AcDbDictionary
280
     1
281
     1
  3
ACAD_ROUNDTRIP_2008_TABLESTYLE_CELLSTYLEMAP
360
B2
  0
XRECORD
  5
1C
102
{ACAD_REACTORS
330
1A
102
}
330
1A
100
AcDbXrecord
280
     1
270
     1
271
     1
  0
XRECORD
  5
1B
102
{ACAD_REACTORS
330
1A
102
}
330
1A
100
AcDbXrecord
280
     1
270
     1
271
     1
  0
XRECORD
  5
1F
102
{ACAD_REACTORS
330
1A
102
}
330
1A
100
AcDbXrecord
280
     1
270
     1
271
     1
  0
XRECORD
  5
1E
102
{ACAD_REACTORS
330
1A
102
}
330
1A
100
AcDbXrecord
280
     1
270
     1
271
     1
  0
XRECORD
  5
20
102
{ACAD_REACTORS
330
1A
102
}
330
1A
100
AcDbXrecord
280
     1
270
     1
271
     1
  0
XRECORD
  5
1D
102
{ACAD_REACTORS
330
1A
102
}
330
1A
100
AcDbXrecord
280
     1
270
     1
271
     1
  0
XRECORD
  5
14
102
{ACAD_REACTORS
330
12
102
}
330
12
100
AcDbXrecord
280
     1
270
     1
271
     1
  0
XRECORD
  5
13
102
{ACAD_REACTORS
330
12
102
}
330
12
100
AcDbXrecord
280
     1
270
     1
271
     1
  0
XRECORD
  5
17
102
{ACAD_REACTORS
330
12
102
}
330
12
100
AcDbXrecord
280
     1
270
     1
271
     1
  0
XRECORD
  5
16
102
{ACAD_REACTORS
330
12
102
}
330
12
100
AcDbXrecord
280
     1
270
     1
271
     1
  0
XRECORD
  5
18
102
{ACAD_REACTORS
330
12
102
}
330
12
100
AcDbXrecord
280
     1
270
     1
271
     1
  0
XRECORD
  5
15
102
{ACAD_REACTORS
330
12
102
}
330
12
100
AcDbXrecord
280
     1
270
     1
271
     1
  0
XRECORD
  5
24
102
{ACAD_REACTORS
330
22
102
}
330
22
100
AcDbXrecord
280
     1
270
     1
271
     1
  0
XRECORD
  5
23
102
{ACAD_REACTORS
330
22
102
}
330
22
100
AcDbXrecord
280
     1
270
     1
271
     1
  0
XRECORD
  5
27
102
{ACAD_REACTORS
330
22
102
}
330
22
100
AcDbXrecord
280
     1
270
     1
271
     1
  0
XRECORD
  5
26
102
{ACAD_REACTORS
330
22
102
}
330
22
100
AcDbXrecord
280
     1
270
     1
271
     1
  0
XRECORD
  5
28
102
{ACAD_REACTORS
330
22
102
}
330
22
100
AcDbXrecord
280
     1
270
     1
271
     1
  0
XRECORD
  5
25
102
{ACAD_REACTORS
330
22
102
}
330
22
100
AcDbXrecord
280
     1
270
     1
271
     1
  0
CELLSTYLEMAP
  5
B2
102
{ACAD_REACTORS
330
B1
102
}
330
B1
100
AcDbCellStyleMap
 90
        3
300
CELLSTYLE
  1
TABLEFORMAT_BEGIN
 90
        5
170
     1
 91
        0
 92
    32768
 62
   257
 93
        1
300
CONTENTFORMAT
  1
CONTENTFORMAT_BEGIN
 90
        0
 91
        0
 92
      512
 93
        0
300

 40
0.0
140
1.0
 94
        5
 62
     0
340
55
144
0.25
309
CONTENTFORMAT_END
171
     0
 94
        0
309
TABLEFORMAT_END
  1
CELLSTYLE_BEGIN
 90
        1
 91
        1
300
_TITLE
309
CELLSTYLE_END
300
CELLSTYLE
  1
TABLEFORMAT_BEGIN
 90
        5
170
     1
 91
        0
 92
        0
 62
   257
 93
        1
300
CONTENTFORMAT
  1
CONTENTFORMAT_BEGIN
 90
        0
 91
        0
 92
      512
 93
        0
300

 40
0.0
140
1.0
 94
        5
 62
     0
340
55
144
0.18
309
CONTENTFORMAT_END
171
     0
 94
        0
309
TABLEFORMAT_END
  1
CELLSTYLE_BEGIN
 90
        2
 91
        1
300
_HEADER
309
CELLSTYLE_END
300
CELLSTYLE
  1
TABLEFORMAT_BEGIN
 90
        5
170
     1
 91
        0
 92
        0
 62
   257
 93
        1
300
CONTENTFORMAT
  1
CONTENTFORMAT_BEGIN
 90
        0
 91
        0
 92
      512
 93
        0
300

 40
0.0
140
1.0
 94
        2
 62
     0
340
55
144
0.18
309
CONTENTFORMAT_END
171
     0
 94
        0
309
TABLEFORMAT_END
  1
CELLSTYLE_BEGIN
 90
        3
 91
        2
300
_DATA
309
CELLSTYLE_END
  0
ENDSEC
  0
EOF
