%TF.GenerationSoftware,KiCad,Pcbnew,9.0.7*%
%TF.CreationDate,2026-02-28T12:57:25+01:00*%
%TF.ProjectId,Expresso,45787072-6573-4736-9f2e-6b696361645f,rev?*%
%TF.SameCoordinates,Original*%
%TF.FileFunction,Legend,Bot*%
%TF.FilePolarity,Positive*%
%FSLAX46Y46*%
G04 Gerber Fmt 4.6, Leading zero omitted, Abs format (unit mm)*
G04 Created by KiCad (PCBNEW 9.0.7) date 2026-02-28 12:57:25*
%MOMM*%
%LPD*%
G01*
G04 APERTURE LIST*
%ADD10C,0.025000*%
%ADD11C,0.120000*%
%ADD12C,3.200000*%
%ADD13R,1.700000X1.700000*%
%ADD14C,1.700000*%
%ADD15R,1.800000X1.800000*%
%ADD16C,1.800000*%
%ADD17C,2.000000*%
%ADD18C,0.650000*%
%ADD19O,1.000000X2.100000*%
%ADD20O,1.000000X1.800000*%
%ADD21C,3.500000*%
%ADD22C,2.500000*%
%ADD23C,2.400000*%
G04 APERTURE END LIST*
D10*
G36*
X161000757Y-126843050D02*
G01*
X161062540Y-126837727D01*
X161114658Y-126822660D01*
X161158924Y-126798541D01*
X161196639Y-126765137D01*
X161226569Y-126724409D01*
X161248478Y-126676905D01*
X161262257Y-126621341D01*
X161267128Y-126556065D01*
X161267128Y-126050482D01*
X161264331Y-126042093D01*
X161255941Y-126039296D01*
X161195516Y-126039296D01*
X161187089Y-126042105D01*
X161184281Y-126050531D01*
X161184281Y-126548298D01*
X161180913Y-126600419D01*
X161171573Y-126643218D01*
X161157096Y-126678295D01*
X161137874Y-126706958D01*
X161112807Y-126730563D01*
X161082410Y-126747734D01*
X161045579Y-126758577D01*
X161000757Y-126762450D01*
X160955934Y-126758577D01*
X160919103Y-126747734D01*
X160888706Y-126730563D01*
X160863639Y-126706958D01*
X160844395Y-126678291D01*
X160829904Y-126643214D01*
X160820554Y-126600415D01*
X160817184Y-126548298D01*
X160817184Y-126050531D01*
X160814383Y-126042101D01*
X160805997Y-126039296D01*
X160745572Y-126039296D01*
X160737182Y-126042093D01*
X160734385Y-126050482D01*
X160734385Y-126556065D01*
X160739259Y-126621338D01*
X160753046Y-126676901D01*
X160774971Y-126724406D01*
X160804923Y-126765137D01*
X160842615Y-126798540D01*
X160886863Y-126822659D01*
X160938972Y-126837726D01*
X161000757Y-126843050D01*
G37*
G36*
X160330994Y-126843050D02*
G01*
X160388454Y-126837671D01*
X160440091Y-126821991D01*
X160487114Y-126796058D01*
X160527618Y-126760962D01*
X160559364Y-126718081D01*
X160582808Y-126666219D01*
X160583932Y-126661725D01*
X160582096Y-126656009D01*
X160576067Y-126651662D01*
X160519012Y-126628117D01*
X160513394Y-126626993D01*
X160507826Y-126629240D01*
X160504455Y-126634858D01*
X160488997Y-126672842D01*
X160467623Y-126703843D01*
X160440121Y-126728891D01*
X160407724Y-126747320D01*
X160371307Y-126758559D01*
X160329870Y-126762450D01*
X160278367Y-126757444D01*
X160238373Y-126743697D01*
X160207309Y-126722150D01*
X160183510Y-126692906D01*
X160169202Y-126658729D01*
X160164225Y-126618103D01*
X160168815Y-126577183D01*
X160181780Y-126543795D01*
X160202864Y-126516254D01*
X160230598Y-126494351D01*
X160265373Y-126477083D01*
X160308621Y-126464767D01*
X160365676Y-126453581D01*
X160422963Y-126437407D01*
X160469563Y-126413260D01*
X160507288Y-126381383D01*
X160529701Y-126352251D01*
X160545835Y-126319279D01*
X160555824Y-126281735D01*
X160559312Y-126238647D01*
X160555919Y-126199956D01*
X160545890Y-126163799D01*
X160529124Y-126129568D01*
X160506519Y-126098765D01*
X160478894Y-126072553D01*
X160445739Y-126050629D01*
X160409270Y-126034680D01*
X160369026Y-126024893D01*
X160324253Y-126021515D01*
X160269677Y-126026520D01*
X160221611Y-126040974D01*
X160178782Y-126064648D01*
X160141719Y-126096658D01*
X160111993Y-126135679D01*
X160089242Y-126182715D01*
X160088119Y-126187210D01*
X160089941Y-126192898D01*
X160095934Y-126197272D01*
X160154162Y-126221892D01*
X160159731Y-126223016D01*
X160165348Y-126220769D01*
X160168719Y-126215200D01*
X160184882Y-126182065D01*
X160205519Y-126154691D01*
X160230805Y-126132353D01*
X160259967Y-126115496D01*
X160290897Y-126105494D01*
X160324253Y-126102115D01*
X160368282Y-126106713D01*
X160403668Y-126119569D01*
X160432306Y-126140168D01*
X160454247Y-126167691D01*
X160467437Y-126199687D01*
X160472020Y-126237524D01*
X160468364Y-126271390D01*
X160457893Y-126300133D01*
X160440708Y-126324865D01*
X160417709Y-126344544D01*
X160387315Y-126359967D01*
X160347749Y-126370734D01*
X160290694Y-126381920D01*
X160231010Y-126399375D01*
X160180346Y-126424800D01*
X160137358Y-126458075D01*
X160111382Y-126488443D01*
X160092670Y-126523614D01*
X160081027Y-126564528D01*
X160076932Y-126612485D01*
X160080441Y-126654921D01*
X160090717Y-126693870D01*
X160107707Y-126730015D01*
X160130996Y-126762361D01*
X160160237Y-126789873D01*
X160196123Y-126812862D01*
X160235599Y-126829277D01*
X160280236Y-126839487D01*
X160330994Y-126843050D01*
G37*
G36*
X159906390Y-126043363D02*
G01*
X159909186Y-126051752D01*
X159909186Y-126812813D01*
X159906390Y-126821203D01*
X159898000Y-126824000D01*
X159671880Y-126824000D01*
X159614872Y-126819737D01*
X159567471Y-126807802D01*
X159527970Y-126789020D01*
X159495048Y-126763574D01*
X159467736Y-126731399D01*
X159448355Y-126695484D01*
X159436490Y-126655076D01*
X159432375Y-126609115D01*
X159432768Y-126604621D01*
X159518544Y-126604621D01*
X159523442Y-126646848D01*
X159537173Y-126680514D01*
X159559431Y-126707593D01*
X159588846Y-126727125D01*
X159627981Y-126739828D01*
X159679745Y-126744523D01*
X159820770Y-126744523D01*
X159824943Y-126743123D01*
X159826339Y-126738905D01*
X159826339Y-126470336D01*
X159824943Y-126466119D01*
X159820770Y-126464718D01*
X159679745Y-126464718D01*
X159627981Y-126469413D01*
X159588846Y-126482116D01*
X159559431Y-126501648D01*
X159537173Y-126528727D01*
X159523442Y-126562394D01*
X159518544Y-126604621D01*
X159432768Y-126604621D01*
X159435823Y-126569711D01*
X159445912Y-126533765D01*
X159462613Y-126500573D01*
X159485121Y-126470937D01*
X159512188Y-126446424D01*
X159544288Y-126426665D01*
X159549880Y-126420831D01*
X159544288Y-126414355D01*
X159517216Y-126395785D01*
X159494198Y-126372974D01*
X159474923Y-126345528D01*
X159460684Y-126315173D01*
X159452101Y-126282707D01*
X159449642Y-126253155D01*
X159535348Y-126253155D01*
X159539928Y-126293278D01*
X159552732Y-126325110D01*
X159573401Y-126350559D01*
X159600810Y-126368965D01*
X159636887Y-126380864D01*
X159684190Y-126385242D01*
X159820770Y-126385242D01*
X159824943Y-126383841D01*
X159826339Y-126379624D01*
X159826339Y-126125612D01*
X159824943Y-126121394D01*
X159820770Y-126119994D01*
X159684190Y-126119994D01*
X159636937Y-126124435D01*
X159600858Y-126136522D01*
X159573401Y-126155263D01*
X159552713Y-126181008D01*
X159539917Y-126213020D01*
X159535348Y-126253155D01*
X159449642Y-126253155D01*
X159449179Y-126247586D01*
X159452212Y-126208749D01*
X159461039Y-126173529D01*
X159475509Y-126141292D01*
X159495583Y-126112419D01*
X159521110Y-126087898D01*
X159552738Y-126067433D01*
X159587632Y-126052890D01*
X159627766Y-126043772D01*
X159674127Y-126040566D01*
X159898000Y-126040566D01*
X159906390Y-126043363D01*
G37*
G36*
X158964589Y-126043363D02*
G01*
X158967386Y-126051752D01*
X158967386Y-126812813D01*
X158964589Y-126821203D01*
X158956200Y-126824000D01*
X158722264Y-126824000D01*
X158649672Y-126818421D01*
X158584436Y-126802255D01*
X158525306Y-126775884D01*
X158472113Y-126739312D01*
X158427562Y-126693924D01*
X158390973Y-126638815D01*
X158364728Y-126577793D01*
X158348498Y-126509420D01*
X158342857Y-126432283D01*
X158430149Y-126432283D01*
X158434654Y-126497817D01*
X158447410Y-126554032D01*
X158467665Y-126602422D01*
X158496294Y-126645996D01*
X158531000Y-126681141D01*
X158572299Y-126708717D01*
X158618262Y-126728314D01*
X158669060Y-126740360D01*
X158725634Y-126744523D01*
X158878970Y-126744523D01*
X158883143Y-126743123D01*
X158884539Y-126738905D01*
X158884539Y-126125612D01*
X158883143Y-126121394D01*
X158878970Y-126119994D01*
X158725634Y-126119994D01*
X158669060Y-126124157D01*
X158618262Y-126136203D01*
X158572299Y-126155800D01*
X158531004Y-126183378D01*
X158496297Y-126218538D01*
X158467665Y-126262143D01*
X158447413Y-126310503D01*
X158434655Y-126366715D01*
X158430149Y-126432283D01*
X158342857Y-126432283D01*
X158348498Y-126355146D01*
X158364730Y-126286790D01*
X158390973Y-126225800D01*
X158427565Y-126170660D01*
X158472117Y-126125256D01*
X158525306Y-126088682D01*
X158584436Y-126062310D01*
X158649672Y-126046145D01*
X158722264Y-126040566D01*
X158956200Y-126040566D01*
X158964589Y-126043363D01*
G37*
G36*
X157943862Y-126183106D02*
G01*
X157935472Y-126185903D01*
X157932676Y-126194293D01*
X157932676Y-126390127D01*
X157931271Y-126394340D01*
X157927058Y-126395744D01*
X157730052Y-126395744D01*
X157721662Y-126398541D01*
X157718865Y-126406930D01*
X157718865Y-126459540D01*
X157721662Y-126467930D01*
X157730052Y-126470727D01*
X157927058Y-126470727D01*
X157931271Y-126472131D01*
X157932676Y-126476344D01*
X157932676Y-126673302D01*
X157935472Y-126681691D01*
X157943862Y-126684488D01*
X157996472Y-126684488D01*
X158004862Y-126681691D01*
X158007658Y-126673302D01*
X158007658Y-126476344D01*
X158009054Y-126472127D01*
X158013227Y-126470727D01*
X158209110Y-126470727D01*
X158217499Y-126467930D01*
X158220296Y-126459540D01*
X158220296Y-126406930D01*
X158217499Y-126398541D01*
X158209110Y-126395744D01*
X158013227Y-126395744D01*
X158009054Y-126394344D01*
X158007658Y-126390127D01*
X158007658Y-126194293D01*
X158004862Y-126185903D01*
X157996472Y-126183106D01*
X157943862Y-126183106D01*
G37*
G36*
X156061038Y-124049050D02*
G01*
X156122821Y-124043727D01*
X156174939Y-124028660D01*
X156219205Y-124004541D01*
X156256920Y-123971137D01*
X156286850Y-123930409D01*
X156308759Y-123882905D01*
X156322538Y-123827341D01*
X156327409Y-123762065D01*
X156327409Y-123256482D01*
X156324612Y-123248093D01*
X156316222Y-123245296D01*
X156255797Y-123245296D01*
X156247370Y-123248105D01*
X156244562Y-123256531D01*
X156244562Y-123754298D01*
X156241194Y-123806419D01*
X156231854Y-123849218D01*
X156217377Y-123884295D01*
X156198155Y-123912958D01*
X156173088Y-123936563D01*
X156142691Y-123953734D01*
X156105860Y-123964577D01*
X156061038Y-123968450D01*
X156016215Y-123964577D01*
X155979384Y-123953734D01*
X155948987Y-123936563D01*
X155923920Y-123912958D01*
X155904676Y-123884291D01*
X155890185Y-123849214D01*
X155880835Y-123806415D01*
X155877465Y-123754298D01*
X155877465Y-123256531D01*
X155874664Y-123248101D01*
X155866278Y-123245296D01*
X155805853Y-123245296D01*
X155797463Y-123248093D01*
X155794666Y-123256482D01*
X155794666Y-123762065D01*
X155799540Y-123827338D01*
X155813327Y-123882901D01*
X155835252Y-123930406D01*
X155865204Y-123971137D01*
X155902896Y-124004540D01*
X155947144Y-124028659D01*
X155999253Y-124043726D01*
X156061038Y-124049050D01*
G37*
G36*
X155391275Y-124049050D02*
G01*
X155448735Y-124043671D01*
X155500372Y-124027991D01*
X155547395Y-124002058D01*
X155587899Y-123966962D01*
X155619645Y-123924081D01*
X155643089Y-123872219D01*
X155644213Y-123867725D01*
X155642377Y-123862009D01*
X155636348Y-123857662D01*
X155579293Y-123834117D01*
X155573675Y-123832993D01*
X155568107Y-123835240D01*
X155564736Y-123840858D01*
X155549278Y-123878842D01*
X155527904Y-123909843D01*
X155500402Y-123934891D01*
X155468005Y-123953320D01*
X155431588Y-123964559D01*
X155390151Y-123968450D01*
X155338648Y-123963444D01*
X155298654Y-123949697D01*
X155267590Y-123928150D01*
X155243791Y-123898906D01*
X155229483Y-123864729D01*
X155224506Y-123824103D01*
X155229096Y-123783183D01*
X155242061Y-123749795D01*
X155263145Y-123722254D01*
X155290879Y-123700351D01*
X155325654Y-123683083D01*
X155368902Y-123670767D01*
X155425957Y-123659581D01*
X155483244Y-123643407D01*
X155529844Y-123619260D01*
X155567569Y-123587383D01*
X155589982Y-123558251D01*
X155606116Y-123525279D01*
X155616105Y-123487735D01*
X155619593Y-123444647D01*
X155616200Y-123405956D01*
X155606171Y-123369799D01*
X155589405Y-123335568D01*
X155566800Y-123304765D01*
X155539175Y-123278553D01*
X155506020Y-123256629D01*
X155469551Y-123240680D01*
X155429307Y-123230893D01*
X155384534Y-123227515D01*
X155329958Y-123232520D01*
X155281892Y-123246974D01*
X155239063Y-123270648D01*
X155202000Y-123302658D01*
X155172274Y-123341679D01*
X155149523Y-123388715D01*
X155148400Y-123393210D01*
X155150222Y-123398898D01*
X155156215Y-123403272D01*
X155214443Y-123427892D01*
X155220012Y-123429016D01*
X155225629Y-123426769D01*
X155229000Y-123421200D01*
X155245163Y-123388065D01*
X155265800Y-123360691D01*
X155291086Y-123338353D01*
X155320248Y-123321496D01*
X155351178Y-123311494D01*
X155384534Y-123308115D01*
X155428563Y-123312713D01*
X155463949Y-123325569D01*
X155492587Y-123346168D01*
X155514528Y-123373691D01*
X155527718Y-123405687D01*
X155532301Y-123443524D01*
X155528645Y-123477390D01*
X155518174Y-123506133D01*
X155500989Y-123530865D01*
X155477990Y-123550544D01*
X155447596Y-123565967D01*
X155408030Y-123576734D01*
X155350975Y-123587920D01*
X155291291Y-123605375D01*
X155240627Y-123630800D01*
X155197639Y-123664075D01*
X155171663Y-123694443D01*
X155152951Y-123729614D01*
X155141308Y-123770528D01*
X155137213Y-123818485D01*
X155140722Y-123860921D01*
X155150998Y-123899870D01*
X155167988Y-123936015D01*
X155191277Y-123968361D01*
X155220518Y-123995873D01*
X155256404Y-124018862D01*
X155295880Y-124035277D01*
X155340517Y-124045487D01*
X155391275Y-124049050D01*
G37*
G36*
X154966671Y-123249363D02*
G01*
X154969467Y-123257752D01*
X154969467Y-124018813D01*
X154966671Y-124027203D01*
X154958281Y-124030000D01*
X154732161Y-124030000D01*
X154675153Y-124025737D01*
X154627752Y-124013802D01*
X154588251Y-123995020D01*
X154555329Y-123969574D01*
X154528017Y-123937399D01*
X154508636Y-123901484D01*
X154496771Y-123861076D01*
X154492656Y-123815115D01*
X154493049Y-123810621D01*
X154578825Y-123810621D01*
X154583723Y-123852848D01*
X154597454Y-123886514D01*
X154619712Y-123913593D01*
X154649127Y-123933125D01*
X154688262Y-123945828D01*
X154740026Y-123950523D01*
X154881051Y-123950523D01*
X154885224Y-123949123D01*
X154886620Y-123944905D01*
X154886620Y-123676336D01*
X154885224Y-123672119D01*
X154881051Y-123670718D01*
X154740026Y-123670718D01*
X154688262Y-123675413D01*
X154649127Y-123688116D01*
X154619712Y-123707648D01*
X154597454Y-123734727D01*
X154583723Y-123768394D01*
X154578825Y-123810621D01*
X154493049Y-123810621D01*
X154496104Y-123775711D01*
X154506193Y-123739765D01*
X154522894Y-123706573D01*
X154545402Y-123676937D01*
X154572469Y-123652424D01*
X154604569Y-123632665D01*
X154610161Y-123626831D01*
X154604569Y-123620355D01*
X154577497Y-123601785D01*
X154554479Y-123578974D01*
X154535204Y-123551528D01*
X154520965Y-123521173D01*
X154512382Y-123488707D01*
X154509923Y-123459155D01*
X154595629Y-123459155D01*
X154600209Y-123499278D01*
X154613013Y-123531110D01*
X154633682Y-123556559D01*
X154661091Y-123574965D01*
X154697168Y-123586864D01*
X154744471Y-123591242D01*
X154881051Y-123591242D01*
X154885224Y-123589841D01*
X154886620Y-123585624D01*
X154886620Y-123331612D01*
X154885224Y-123327394D01*
X154881051Y-123325994D01*
X154744471Y-123325994D01*
X154697218Y-123330435D01*
X154661139Y-123342522D01*
X154633682Y-123361263D01*
X154612994Y-123387008D01*
X154600198Y-123419020D01*
X154595629Y-123459155D01*
X154509923Y-123459155D01*
X154509460Y-123453586D01*
X154512493Y-123414749D01*
X154521320Y-123379529D01*
X154535790Y-123347292D01*
X154555864Y-123318419D01*
X154581391Y-123293898D01*
X154613019Y-123273433D01*
X154647913Y-123258890D01*
X154688047Y-123249772D01*
X154734408Y-123246566D01*
X154958281Y-123246566D01*
X154966671Y-123249363D01*
G37*
G36*
X154024870Y-123249363D02*
G01*
X154027667Y-123257752D01*
X154027667Y-124018813D01*
X154024870Y-124027203D01*
X154016481Y-124030000D01*
X153782545Y-124030000D01*
X153709953Y-124024421D01*
X153644717Y-124008255D01*
X153585587Y-123981884D01*
X153532394Y-123945312D01*
X153487843Y-123899924D01*
X153451254Y-123844815D01*
X153425009Y-123783793D01*
X153408779Y-123715420D01*
X153403138Y-123638283D01*
X153490430Y-123638283D01*
X153494935Y-123703817D01*
X153507691Y-123760032D01*
X153527946Y-123808422D01*
X153556575Y-123851996D01*
X153591281Y-123887141D01*
X153632580Y-123914717D01*
X153678543Y-123934314D01*
X153729341Y-123946360D01*
X153785915Y-123950523D01*
X153939251Y-123950523D01*
X153943424Y-123949123D01*
X153944820Y-123944905D01*
X153944820Y-123331612D01*
X153943424Y-123327394D01*
X153939251Y-123325994D01*
X153785915Y-123325994D01*
X153729341Y-123330157D01*
X153678543Y-123342203D01*
X153632580Y-123361800D01*
X153591285Y-123389378D01*
X153556578Y-123424538D01*
X153527946Y-123468143D01*
X153507694Y-123516503D01*
X153494936Y-123572715D01*
X153490430Y-123638283D01*
X153403138Y-123638283D01*
X153408779Y-123561146D01*
X153425011Y-123492790D01*
X153451254Y-123431800D01*
X153487846Y-123376660D01*
X153532398Y-123331256D01*
X153585587Y-123294682D01*
X153644717Y-123268310D01*
X153709953Y-123252145D01*
X153782545Y-123246566D01*
X154016481Y-123246566D01*
X154024870Y-123249363D01*
G37*
G36*
X153018700Y-123731193D02*
G01*
X153021496Y-123739583D01*
X153029886Y-123742379D01*
X153257081Y-123742379D01*
X153265471Y-123739583D01*
X153268267Y-123731193D01*
X153268267Y-123683028D01*
X153265471Y-123674638D01*
X153257081Y-123671842D01*
X153029886Y-123671842D01*
X153021496Y-123674638D01*
X153018700Y-123683028D01*
X153018700Y-123731193D01*
G37*
D11*
%TO.C,TP12*%
X155886000Y-121412000D02*
G75*
G02*
X153486000Y-121412000I-1200000J0D01*
G01*
X153486000Y-121412000D02*
G75*
G02*
X155886000Y-121412000I1200000J0D01*
G01*
%TO.C,TP13*%
X160712000Y-124206000D02*
G75*
G02*
X158312000Y-124206000I-1200000J0D01*
G01*
X158312000Y-124206000D02*
G75*
G02*
X160712000Y-124206000I1200000J0D01*
G01*
%TD*%
%LPC*%
D12*
%TO.C,H2*%
X192278000Y-90424000D03*
%TD*%
D13*
%TO.C,J13*%
X181864000Y-87884000D03*
D14*
X184404000Y-87884000D03*
X186944000Y-87884000D03*
%TD*%
D15*
%TO.C,D2*%
X137500000Y-149500000D03*
D16*
X134960000Y-149500000D03*
%TD*%
D12*
%TO.C,H3*%
X128016000Y-125476000D03*
%TD*%
D13*
%TO.C,J11*%
X166624000Y-87884000D03*
D14*
X169164000Y-87884000D03*
X171704000Y-87884000D03*
%TD*%
D17*
%TO.C,SW1*%
X143966000Y-114010000D03*
X137466000Y-114010000D03*
X143966000Y-109510000D03*
X137466000Y-109510000D03*
%TD*%
%TO.C,SW2*%
X143966000Y-122138000D03*
X137466000Y-122138000D03*
X143966000Y-117638000D03*
X137466000Y-117638000D03*
%TD*%
D13*
%TO.C,J9*%
X151384000Y-87884000D03*
D14*
X153924000Y-87884000D03*
X156464000Y-87884000D03*
%TD*%
D18*
%TO.C,J1*%
X147610000Y-140143000D03*
X153390000Y-140143000D03*
D19*
X146180000Y-139623000D03*
D20*
X146180000Y-143823000D03*
D19*
X154820000Y-139623000D03*
D20*
X154820000Y-143823000D03*
%TD*%
D13*
%TO.C,J7*%
X136144000Y-87884000D03*
D14*
X138684000Y-87884000D03*
X141224000Y-87884000D03*
%TD*%
D21*
%TO.C,J3*%
X163500000Y-138500000D03*
X178500000Y-138500000D03*
D22*
X178500000Y-133500000D03*
X171000000Y-133500000D03*
X163500000Y-133500000D03*
X176000000Y-131000000D03*
X166000000Y-131000000D03*
D23*
X166000000Y-143500000D03*
X168500000Y-143500000D03*
X173500000Y-143500000D03*
X176000000Y-143500000D03*
%TD*%
D13*
%TO.C,J5*%
X197612000Y-87884000D03*
D14*
X197612000Y-90424000D03*
X197612000Y-92964000D03*
X197612000Y-95504000D03*
X197612000Y-98044000D03*
X197612000Y-100584000D03*
X197612000Y-103124000D03*
X197612000Y-105664000D03*
X197612000Y-108204000D03*
X197612000Y-110744000D03*
X197612000Y-113284000D03*
X197612000Y-115824000D03*
X197612000Y-118364000D03*
X197612000Y-120904000D03*
X197612000Y-123444000D03*
X197612000Y-125984000D03*
%TD*%
D12*
%TO.C,H1*%
X128016000Y-90424000D03*
%TD*%
D15*
%TO.C,D1*%
X120275000Y-149500000D03*
D16*
X117735000Y-149500000D03*
%TD*%
D12*
%TO.C,H4*%
X192278000Y-125476000D03*
%TD*%
D17*
%TO.C,TP12*%
X154686000Y-121412000D03*
%TD*%
%TO.C,TP13*%
X159512000Y-124206000D03*
%TD*%
%LPD*%
M02*
