%TF.GenerationSoftware,KiCad,Pcbnew,9.0.4*%
%TF.CreationDate,2026-03-10T16:39:31+01:00*%
%TF.ProjectId,Expresso,45787072-6573-4736-9f2e-6b696361645f,rev?*%
%TF.SameCoordinates,Original*%
%TF.FileFunction,Legend,Bot*%
%TF.FilePolarity,Positive*%
%FSLAX46Y46*%
G04 Gerber Fmt 4.6, Leading zero omitted, Abs format (unit mm)*
G04 Created by KiCad (PCBNEW 9.0.4) date 2026-03-10 16:39:31*
%MOMM*%
%LPD*%
G01*
G04 APERTURE LIST*
%ADD10C,0.000000*%
%ADD11C,0.025000*%
%ADD12C,0.120000*%
%ADD13C,3.200000*%
%ADD14R,1.800000X1.800000*%
%ADD15C,1.800000*%
%ADD16C,3.400000*%
%ADD17C,2.000000*%
%ADD18C,0.650000*%
%ADD19O,1.000000X2.100000*%
%ADD20O,1.000000X1.800000*%
%ADD21C,3.500000*%
%ADD22C,2.500000*%
%ADD23C,2.400000*%
%ADD24R,1.700000X1.700000*%
%ADD25C,1.700000*%
G04 APERTURE END LIST*
D10*
G36*
X190347023Y-130368596D02*
G01*
X190388701Y-130371405D01*
X190430363Y-130376401D01*
X190471925Y-130383682D01*
X190513301Y-130393347D01*
X190554407Y-130405495D01*
X190595156Y-130420225D01*
X190635464Y-130437637D01*
X190675245Y-130457830D01*
X190714414Y-130480902D01*
X190752886Y-130506953D01*
X190752700Y-130506951D01*
X190851970Y-130587896D01*
X190935739Y-130675058D01*
X191005070Y-130768084D01*
X191061028Y-130866620D01*
X191104676Y-130970313D01*
X191137078Y-131078809D01*
X191159297Y-131191754D01*
X191172397Y-131308796D01*
X191177442Y-131429581D01*
X191175496Y-131553754D01*
X191154883Y-131810854D01*
X191119068Y-132077268D01*
X191076560Y-132350168D01*
X191035869Y-132626724D01*
X191005504Y-132904109D01*
X190996853Y-133042229D01*
X190993975Y-133179495D01*
X190997932Y-133315555D01*
X191009790Y-133450053D01*
X191030611Y-133582638D01*
X191061459Y-133712955D01*
X191103398Y-133840651D01*
X191157492Y-133965373D01*
X191224803Y-134086766D01*
X191306397Y-134204477D01*
X191403336Y-134318153D01*
X191516685Y-134427441D01*
X191598564Y-134494887D01*
X191678847Y-134552385D01*
X191757662Y-134600460D01*
X191835133Y-134639638D01*
X191911386Y-134670445D01*
X191986548Y-134693406D01*
X192060744Y-134709048D01*
X192134100Y-134717897D01*
X192206741Y-134720477D01*
X192278795Y-134717316D01*
X192350386Y-134708938D01*
X192421641Y-134695870D01*
X192492686Y-134678637D01*
X192563645Y-134657765D01*
X192705814Y-134607209D01*
X192994676Y-134485566D01*
X193143382Y-134422893D01*
X193296282Y-134364595D01*
X193374619Y-134338400D01*
X193454382Y-134314877D01*
X193535697Y-134294550D01*
X193618689Y-134277946D01*
X193703485Y-134265590D01*
X193790211Y-134258009D01*
X193878992Y-134255727D01*
X193969955Y-134259272D01*
X194185059Y-134281743D01*
X194390601Y-134316962D01*
X194587054Y-134364139D01*
X194774893Y-134422488D01*
X194954592Y-134491221D01*
X195126628Y-134569550D01*
X195291473Y-134656687D01*
X195449604Y-134751845D01*
X195601494Y-134854236D01*
X195747619Y-134963072D01*
X195888454Y-135077565D01*
X196024472Y-135196928D01*
X196283960Y-135447113D01*
X196529881Y-135707323D01*
X196996213Y-136232616D01*
X197224221Y-136485095D01*
X197453853Y-136722392D01*
X197688908Y-136938207D01*
X197809656Y-137036089D01*
X197933184Y-137126238D01*
X198059967Y-137207864D01*
X198190479Y-137280182D01*
X198325195Y-137342402D01*
X198464590Y-137393738D01*
X198515613Y-137408426D01*
X198568064Y-137420275D01*
X198676514Y-137436140D01*
X198788479Y-137442710D01*
X198902498Y-137441360D01*
X199017109Y-137433463D01*
X199130852Y-137420395D01*
X199242264Y-137403531D01*
X199349886Y-137384246D01*
X199713235Y-137310394D01*
X199779983Y-137299628D01*
X199834171Y-137294690D01*
X199874340Y-137296956D01*
X199888711Y-137301220D01*
X199899028Y-137307801D01*
X199906586Y-137317858D01*
X199911297Y-137330851D01*
X199913147Y-137346538D01*
X199912122Y-137364678D01*
X199908209Y-137385026D01*
X199901395Y-137407343D01*
X199891665Y-137431384D01*
X199879006Y-137456908D01*
X199863404Y-137483673D01*
X199844845Y-137511436D01*
X199823317Y-137539956D01*
X199798804Y-137568989D01*
X199771294Y-137598294D01*
X199740773Y-137627629D01*
X199707228Y-137656751D01*
X199670643Y-137685418D01*
X199631007Y-137713387D01*
X199588305Y-137740417D01*
X199542523Y-137766266D01*
X199493648Y-137790690D01*
X199441667Y-137813448D01*
X199386564Y-137834298D01*
X199328328Y-137852997D01*
X199266944Y-137869303D01*
X199202399Y-137882975D01*
X199134678Y-137893768D01*
X199063769Y-137901442D01*
X198989657Y-137905755D01*
X198912329Y-137906463D01*
X198831771Y-137903324D01*
X198747970Y-137896098D01*
X198660912Y-137884540D01*
X198444747Y-137842733D01*
X198219832Y-137784964D01*
X197988742Y-137714158D01*
X197754057Y-137633241D01*
X197284210Y-137452774D01*
X196830914Y-137266963D01*
X196414794Y-137099210D01*
X196227119Y-137029418D01*
X196056471Y-136972916D01*
X195905429Y-136932629D01*
X195776570Y-136911483D01*
X195721265Y-136909001D01*
X195672472Y-136912402D01*
X195630514Y-136922050D01*
X195595714Y-136938311D01*
X195565126Y-136962262D01*
X195538735Y-136992420D01*
X195516353Y-137028439D01*
X195497795Y-137069972D01*
X195482874Y-137116673D01*
X195471403Y-137168196D01*
X195463197Y-137224194D01*
X195458069Y-137284320D01*
X195456304Y-137415575D01*
X195464617Y-137559189D01*
X195481518Y-137712391D01*
X195505517Y-137872409D01*
X195535125Y-138036473D01*
X195568851Y-138201811D01*
X195642699Y-138525228D01*
X195774254Y-139065429D01*
X195778075Y-139099693D01*
X195773777Y-139131930D01*
X195761894Y-139162157D01*
X195742958Y-139190389D01*
X195717501Y-139216642D01*
X195686056Y-139240933D01*
X195649155Y-139263278D01*
X195607330Y-139283691D01*
X195561114Y-139302190D01*
X195511039Y-139318789D01*
X195401441Y-139346356D01*
X195282796Y-139366518D01*
X195159363Y-139379403D01*
X195035400Y-139385139D01*
X194915167Y-139383853D01*
X194802921Y-139375673D01*
X194702923Y-139360726D01*
X194619430Y-139339140D01*
X194585205Y-139325897D01*
X194556703Y-139311042D01*
X194534457Y-139294590D01*
X194518999Y-139276559D01*
X194510862Y-139256964D01*
X194510578Y-139235820D01*
X194549132Y-138987521D01*
X194582068Y-138709542D01*
X194604899Y-138416548D01*
X194611123Y-138269004D01*
X194613137Y-138123205D01*
X194610380Y-137980985D01*
X194602292Y-137844177D01*
X194588311Y-137714615D01*
X194567877Y-137594131D01*
X194540427Y-137484559D01*
X194505402Y-137387732D01*
X194484873Y-137344671D01*
X194462240Y-137305483D01*
X194437432Y-137270398D01*
X194410380Y-137239645D01*
X194394944Y-137228777D01*
X194371320Y-137218735D01*
X194301641Y-137201058D01*
X194205606Y-137186481D01*
X194087478Y-137174869D01*
X193802000Y-137160000D01*
X193479315Y-137155376D01*
X193153530Y-137159919D01*
X192858754Y-137172554D01*
X192629095Y-137192203D01*
X192549343Y-137204322D01*
X192498660Y-137217791D01*
X192433109Y-137248447D01*
X192373931Y-137284325D01*
X192320851Y-137325105D01*
X192273596Y-137370467D01*
X192231893Y-137420090D01*
X192195467Y-137473653D01*
X192164046Y-137530836D01*
X192137356Y-137591318D01*
X192115123Y-137654779D01*
X192097074Y-137720898D01*
X192082934Y-137789354D01*
X192072432Y-137859828D01*
X192065292Y-137931997D01*
X192061241Y-138005542D01*
X192061314Y-138155478D01*
X192070461Y-138307069D01*
X192086494Y-138457752D01*
X192107224Y-138604961D01*
X192130463Y-138746133D01*
X192175713Y-139000105D01*
X192193346Y-139107775D01*
X192204734Y-139199150D01*
X192203706Y-139238435D01*
X192193579Y-139274914D01*
X192174993Y-139308618D01*
X192148586Y-139339577D01*
X192114997Y-139367824D01*
X192074864Y-139393388D01*
X192028826Y-139416301D01*
X191977522Y-139436595D01*
X191921589Y-139454300D01*
X191861666Y-139469448D01*
X191732407Y-139492197D01*
X191594851Y-139505090D01*
X191454108Y-139508378D01*
X191315286Y-139502308D01*
X191183493Y-139487132D01*
X191063838Y-139463097D01*
X191010158Y-139447836D01*
X190961428Y-139430454D01*
X190918287Y-139410982D01*
X190881372Y-139389452D01*
X190851324Y-139365894D01*
X190828779Y-139340339D01*
X190814378Y-139312820D01*
X190808757Y-139283366D01*
X190812556Y-139252010D01*
X190826414Y-139218781D01*
X190917523Y-139046156D01*
X191005545Y-138858694D01*
X191088600Y-138658103D01*
X191164810Y-138446090D01*
X191232293Y-138224360D01*
X191289170Y-137994622D01*
X191333562Y-137758581D01*
X191363587Y-137517944D01*
X191377368Y-137274419D01*
X191373023Y-137029712D01*
X191363466Y-136907448D01*
X191348672Y-136785529D01*
X191328408Y-136664168D01*
X191302437Y-136543578D01*
X191270525Y-136423972D01*
X191232437Y-136305565D01*
X191187937Y-136188568D01*
X191136792Y-136073197D01*
X191078765Y-135959663D01*
X191013622Y-135848180D01*
X190941128Y-135738962D01*
X190861048Y-135632222D01*
X190721704Y-135448765D01*
X190598913Y-135270007D01*
X190491679Y-135095958D01*
X190399006Y-134926628D01*
X190319899Y-134762025D01*
X190253362Y-134602161D01*
X190198398Y-134447043D01*
X190154012Y-134296682D01*
X190119208Y-134151087D01*
X190092991Y-134010268D01*
X190062331Y-133742992D01*
X190054067Y-133494932D01*
X190060230Y-133266163D01*
X190083974Y-132866800D01*
X190085621Y-132696358D01*
X190069829Y-132545509D01*
X190052904Y-132477456D01*
X190028631Y-132414329D01*
X189996016Y-132356139D01*
X189954061Y-132302895D01*
X189901772Y-132254606D01*
X189838152Y-132211281D01*
X189762205Y-132172931D01*
X189672936Y-132139564D01*
X189588531Y-132110585D01*
X189506559Y-132078561D01*
X189427396Y-132043558D01*
X189351418Y-132005644D01*
X189279000Y-131964886D01*
X189210519Y-131921350D01*
X189146349Y-131875104D01*
X189086868Y-131826215D01*
X189032450Y-131774749D01*
X188983471Y-131720774D01*
X188940308Y-131664357D01*
X188921024Y-131635254D01*
X188903335Y-131605565D01*
X188887288Y-131575299D01*
X188872929Y-131544464D01*
X188860306Y-131513069D01*
X188849465Y-131481123D01*
X188840454Y-131448632D01*
X188833319Y-131415607D01*
X188828108Y-131382054D01*
X188824868Y-131347983D01*
X188823506Y-131293263D01*
X188826595Y-131241719D01*
X188833855Y-131193249D01*
X188845006Y-131147749D01*
X188859767Y-131105115D01*
X188877858Y-131065245D01*
X188898999Y-131028034D01*
X188922909Y-130993379D01*
X188949309Y-130961177D01*
X188977917Y-130931324D01*
X189008454Y-130903716D01*
X189040640Y-130878250D01*
X189074193Y-130854823D01*
X189108835Y-130833331D01*
X189144283Y-130813671D01*
X189180259Y-130795739D01*
X189252671Y-130764644D01*
X189323828Y-130739220D01*
X189391489Y-130718637D01*
X189453410Y-130702069D01*
X189551064Y-130677664D01*
X189582313Y-130668170D01*
X189592562Y-130663739D01*
X189598853Y-130659379D01*
X189641594Y-130618939D01*
X189691436Y-130578924D01*
X189747697Y-130540124D01*
X189809695Y-130503332D01*
X189876748Y-130469342D01*
X189948174Y-130438944D01*
X190023291Y-130412933D01*
X190062020Y-130401820D01*
X190101416Y-130392100D01*
X190141394Y-130383873D01*
X190181868Y-130377238D01*
X190222753Y-130372294D01*
X190263964Y-130369139D01*
X190305416Y-130367873D01*
X190347023Y-130368596D01*
G37*
D11*
G36*
X161000512Y-126843050D02*
G01*
X161062349Y-126837725D01*
X161114498Y-126822656D01*
X161158778Y-126798537D01*
X161196493Y-126765137D01*
X161226445Y-126724406D01*
X161248369Y-126676901D01*
X161262156Y-126621338D01*
X161267030Y-126556065D01*
X161267030Y-126050482D01*
X161264233Y-126042093D01*
X161255844Y-126039296D01*
X161195369Y-126039296D01*
X161186983Y-126042101D01*
X161184183Y-126050531D01*
X161184183Y-126548249D01*
X161180813Y-126600367D01*
X161171463Y-126643165D01*
X161156971Y-126678243D01*
X161137728Y-126706909D01*
X161112638Y-126730513D01*
X161082217Y-126747685D01*
X161045360Y-126758528D01*
X161000512Y-126762401D01*
X160955637Y-126758526D01*
X160918774Y-126747681D01*
X160888364Y-126730509D01*
X160863297Y-126706909D01*
X160844032Y-126678239D01*
X160829525Y-126643160D01*
X160820166Y-126600363D01*
X160816793Y-126548249D01*
X160816793Y-126050531D01*
X160813992Y-126042101D01*
X160805606Y-126039296D01*
X160745132Y-126039296D01*
X160736742Y-126042093D01*
X160733946Y-126050482D01*
X160733946Y-126556065D01*
X160738822Y-126621335D01*
X160752618Y-126676897D01*
X160774557Y-126724403D01*
X160804532Y-126765137D01*
X160842247Y-126798537D01*
X160886526Y-126822656D01*
X160938676Y-126837725D01*
X161000512Y-126843050D01*
G37*
G36*
X160330750Y-126843050D02*
G01*
X160388273Y-126837665D01*
X160439958Y-126821968D01*
X160487016Y-126796009D01*
X160527544Y-126760905D01*
X160559307Y-126717994D01*
X160582759Y-126666072D01*
X160583883Y-126661578D01*
X160582061Y-126655890D01*
X160576067Y-126651515D01*
X160518914Y-126628019D01*
X160513345Y-126626896D01*
X160507728Y-126629143D01*
X160504357Y-126634711D01*
X160488869Y-126672728D01*
X160467478Y-126703745D01*
X160439975Y-126728794D01*
X160407544Y-126747253D01*
X160371110Y-126758506D01*
X160329675Y-126762401D01*
X160278137Y-126757395D01*
X160238111Y-126743648D01*
X160207016Y-126722101D01*
X160183191Y-126692822D01*
X160168867Y-126658596D01*
X160163883Y-126617907D01*
X160168474Y-126576955D01*
X160181441Y-126543552D01*
X160202522Y-126516009D01*
X160230291Y-126494079D01*
X160265099Y-126476795D01*
X160308377Y-126464474D01*
X160365481Y-126453288D01*
X160422798Y-126437109D01*
X160469431Y-126412946D01*
X160507191Y-126381041D01*
X160529628Y-126351883D01*
X160545777Y-126318893D01*
X160555773Y-126281341D01*
X160559263Y-126238256D01*
X160555865Y-126199535D01*
X160545820Y-126163345D01*
X160529026Y-126129080D01*
X160506415Y-126098249D01*
X160478775Y-126072021D01*
X160445593Y-126050092D01*
X160409092Y-126034141D01*
X160368831Y-126024355D01*
X160324057Y-126020978D01*
X160269416Y-126025983D01*
X160221301Y-126040439D01*
X160178440Y-126064111D01*
X160141354Y-126096128D01*
X160111611Y-126135179D01*
X160088851Y-126182276D01*
X160087728Y-126186721D01*
X160089562Y-126192446D01*
X160095593Y-126196833D01*
X160153820Y-126221452D01*
X160159389Y-126222576D01*
X160165006Y-126220329D01*
X160168377Y-126214711D01*
X160184570Y-126181576D01*
X160205239Y-126154185D01*
X160230561Y-126131815D01*
X160259724Y-126114961D01*
X160290669Y-126104958D01*
X160324057Y-126101578D01*
X160368083Y-126106181D01*
X160403469Y-126119053D01*
X160432110Y-126139680D01*
X160454076Y-126167208D01*
X160467283Y-126199234D01*
X160471873Y-126237133D01*
X160468211Y-126271028D01*
X160457724Y-126299786D01*
X160440512Y-126324523D01*
X160417514Y-126344206D01*
X160387120Y-126359646D01*
X160347553Y-126370441D01*
X160290449Y-126381627D01*
X160230732Y-126399082D01*
X160180035Y-126424508D01*
X160137016Y-126457782D01*
X160111020Y-126488176D01*
X160092292Y-126523379D01*
X160080640Y-126564332D01*
X160076542Y-126612339D01*
X160080055Y-126654805D01*
X160090348Y-126693787D01*
X160107365Y-126729966D01*
X160130657Y-126762309D01*
X160159912Y-126789822D01*
X160195830Y-126812813D01*
X160235309Y-126829254D01*
X160279961Y-126839481D01*
X160330750Y-126843050D01*
G37*
G36*
X159906292Y-126042777D02*
G01*
X159909089Y-126051166D01*
X159909089Y-126812813D01*
X159906292Y-126821203D01*
X159897902Y-126824000D01*
X159671636Y-126824000D01*
X159614606Y-126819734D01*
X159567180Y-126807790D01*
X159527654Y-126788994D01*
X159494706Y-126763525D01*
X159467375Y-126731348D01*
X159447979Y-126695417D01*
X159436103Y-126654979D01*
X159431985Y-126608968D01*
X159432378Y-126604474D01*
X159518202Y-126604474D01*
X159523100Y-126646735D01*
X159536832Y-126680434D01*
X159559089Y-126707545D01*
X159588535Y-126727076D01*
X159627703Y-126739779D01*
X159679500Y-126744474D01*
X159820624Y-126744474D01*
X159824796Y-126743074D01*
X159826193Y-126738856D01*
X159826193Y-126470092D01*
X159824796Y-126465874D01*
X159820624Y-126464474D01*
X159679500Y-126464474D01*
X159627707Y-126469174D01*
X159588539Y-126481893D01*
X159559089Y-126501452D01*
X159536834Y-126528533D01*
X159523101Y-126562214D01*
X159518202Y-126604474D01*
X159432378Y-126604474D01*
X159435434Y-126569499D01*
X159445525Y-126533522D01*
X159462222Y-126500329D01*
X159484759Y-126470691D01*
X159511860Y-126446161D01*
X159543994Y-126426372D01*
X159549587Y-126420567D01*
X159543994Y-126414062D01*
X159516865Y-126395483D01*
X159493815Y-126372656D01*
X159474532Y-126345186D01*
X159460292Y-126314800D01*
X159451709Y-126282317D01*
X159449252Y-126252764D01*
X159535006Y-126252764D01*
X159539592Y-126292916D01*
X159552412Y-126324763D01*
X159573108Y-126350217D01*
X159600523Y-126368647D01*
X159636629Y-126380564D01*
X159683994Y-126384949D01*
X159820624Y-126384949D01*
X159824796Y-126383548D01*
X159826193Y-126379331D01*
X159826193Y-126125123D01*
X159824796Y-126120906D01*
X159820624Y-126119505D01*
X159683994Y-126119505D01*
X159636674Y-126123948D01*
X159600567Y-126136038D01*
X159573108Y-126154774D01*
X159552392Y-126180554D01*
X159539580Y-126212598D01*
X159535006Y-126252764D01*
X159449252Y-126252764D01*
X159448789Y-126247196D01*
X159451822Y-126208325D01*
X159460649Y-126173073D01*
X159475118Y-126140803D01*
X159495198Y-126111903D01*
X159520740Y-126087367D01*
X159552396Y-126066896D01*
X159587325Y-126052325D01*
X159627492Y-126043191D01*
X159673883Y-126039980D01*
X159897902Y-126039980D01*
X159906292Y-126042777D01*
G37*
G36*
X158964492Y-126042777D02*
G01*
X158967288Y-126051166D01*
X158967288Y-126812813D01*
X158964492Y-126821203D01*
X158956102Y-126824000D01*
X158722020Y-126824000D01*
X158649365Y-126818415D01*
X158584081Y-126802233D01*
X158524916Y-126775835D01*
X158471693Y-126739228D01*
X158427109Y-126693791D01*
X158390484Y-126638619D01*
X158364212Y-126577563D01*
X158347966Y-126509158D01*
X158342320Y-126431990D01*
X158429710Y-126431990D01*
X158434215Y-126497590D01*
X158446972Y-126553853D01*
X158467225Y-126602276D01*
X158495886Y-126645882D01*
X158530626Y-126681060D01*
X158571957Y-126708668D01*
X158617951Y-126728265D01*
X158668783Y-126740311D01*
X158725390Y-126744474D01*
X158878823Y-126744474D01*
X158882996Y-126743074D01*
X158884392Y-126738856D01*
X158884392Y-126125123D01*
X158882996Y-126120906D01*
X158878823Y-126119505D01*
X158725390Y-126119505D01*
X158668785Y-126123673D01*
X158617954Y-126135736D01*
X158571957Y-126155360D01*
X158530631Y-126182943D01*
X158495891Y-126218118D01*
X158467225Y-126261752D01*
X158446974Y-126310144D01*
X158434215Y-126366389D01*
X158429710Y-126431990D01*
X158342320Y-126431990D01*
X158347967Y-126354789D01*
X158364215Y-126286385D01*
X158390484Y-126225360D01*
X158427109Y-126170188D01*
X158471693Y-126124751D01*
X158524916Y-126088145D01*
X158584081Y-126061747D01*
X158649365Y-126045564D01*
X158722020Y-126039980D01*
X158956102Y-126039980D01*
X158964492Y-126042777D01*
G37*
G36*
X157943618Y-126179980D02*
G01*
X157935228Y-126182777D01*
X157932431Y-126191166D01*
X157932431Y-126386951D01*
X157931027Y-126391165D01*
X157926814Y-126392569D01*
X157729710Y-126392569D01*
X157721279Y-126395370D01*
X157718475Y-126403755D01*
X157718475Y-126456414D01*
X157721279Y-126464800D01*
X157729710Y-126467600D01*
X157926814Y-126467600D01*
X157931031Y-126468997D01*
X157932431Y-126473169D01*
X157932431Y-126669052D01*
X157935224Y-126677401D01*
X157943618Y-126680189D01*
X157996228Y-126680189D01*
X158004662Y-126677397D01*
X158007463Y-126669052D01*
X158007463Y-126473169D01*
X158008855Y-126468993D01*
X158013031Y-126467600D01*
X158209061Y-126467600D01*
X158217450Y-126464804D01*
X158220247Y-126456414D01*
X158220247Y-126403755D01*
X158217450Y-126395366D01*
X158209061Y-126392569D01*
X158013031Y-126392569D01*
X158008859Y-126391169D01*
X158007463Y-126386951D01*
X158007463Y-126191166D01*
X158004658Y-126182781D01*
X157996228Y-126179980D01*
X157943618Y-126179980D01*
G37*
G36*
X156060793Y-124049050D02*
G01*
X156122630Y-124043725D01*
X156174779Y-124028656D01*
X156219059Y-124004537D01*
X156256774Y-123971137D01*
X156286726Y-123930406D01*
X156308650Y-123882901D01*
X156322437Y-123827338D01*
X156327311Y-123762065D01*
X156327311Y-123256482D01*
X156324514Y-123248093D01*
X156316125Y-123245296D01*
X156255650Y-123245296D01*
X156247264Y-123248101D01*
X156244464Y-123256531D01*
X156244464Y-123754249D01*
X156241094Y-123806367D01*
X156231744Y-123849165D01*
X156217252Y-123884243D01*
X156198009Y-123912909D01*
X156172919Y-123936513D01*
X156142498Y-123953685D01*
X156105641Y-123964528D01*
X156060793Y-123968401D01*
X156015918Y-123964526D01*
X155979055Y-123953681D01*
X155948645Y-123936509D01*
X155923578Y-123912909D01*
X155904313Y-123884239D01*
X155889806Y-123849160D01*
X155880447Y-123806363D01*
X155877074Y-123754249D01*
X155877074Y-123256531D01*
X155874273Y-123248101D01*
X155865887Y-123245296D01*
X155805413Y-123245296D01*
X155797023Y-123248093D01*
X155794227Y-123256482D01*
X155794227Y-123762065D01*
X155799103Y-123827335D01*
X155812899Y-123882897D01*
X155834838Y-123930403D01*
X155864813Y-123971137D01*
X155902528Y-124004537D01*
X155946807Y-124028656D01*
X155998957Y-124043725D01*
X156060793Y-124049050D01*
G37*
G36*
X155391031Y-124049050D02*
G01*
X155448554Y-124043665D01*
X155500239Y-124027968D01*
X155547297Y-124002009D01*
X155587825Y-123966905D01*
X155619588Y-123923994D01*
X155643040Y-123872072D01*
X155644164Y-123867578D01*
X155642342Y-123861890D01*
X155636348Y-123857515D01*
X155579195Y-123834019D01*
X155573626Y-123832896D01*
X155568009Y-123835143D01*
X155564638Y-123840711D01*
X155549150Y-123878728D01*
X155527759Y-123909745D01*
X155500256Y-123934794D01*
X155467825Y-123953253D01*
X155431391Y-123964506D01*
X155389956Y-123968401D01*
X155338418Y-123963395D01*
X155298392Y-123949648D01*
X155267297Y-123928101D01*
X155243472Y-123898822D01*
X155229148Y-123864596D01*
X155224164Y-123823907D01*
X155228755Y-123782955D01*
X155241722Y-123749552D01*
X155262803Y-123722009D01*
X155290572Y-123700079D01*
X155325380Y-123682795D01*
X155368658Y-123670474D01*
X155425762Y-123659288D01*
X155483079Y-123643109D01*
X155529712Y-123618946D01*
X155567472Y-123587041D01*
X155589909Y-123557883D01*
X155606058Y-123524893D01*
X155616054Y-123487341D01*
X155619544Y-123444256D01*
X155616146Y-123405535D01*
X155606101Y-123369345D01*
X155589307Y-123335080D01*
X155566696Y-123304249D01*
X155539056Y-123278021D01*
X155505874Y-123256092D01*
X155469373Y-123240141D01*
X155429112Y-123230355D01*
X155384338Y-123226978D01*
X155329697Y-123231983D01*
X155281582Y-123246439D01*
X155238721Y-123270111D01*
X155201635Y-123302128D01*
X155171892Y-123341179D01*
X155149132Y-123388276D01*
X155148009Y-123392721D01*
X155149843Y-123398446D01*
X155155874Y-123402833D01*
X155214101Y-123427452D01*
X155219670Y-123428576D01*
X155225287Y-123426329D01*
X155228658Y-123420711D01*
X155244851Y-123387576D01*
X155265520Y-123360185D01*
X155290842Y-123337815D01*
X155320005Y-123320961D01*
X155350950Y-123310958D01*
X155384338Y-123307578D01*
X155428364Y-123312181D01*
X155463750Y-123325053D01*
X155492391Y-123345680D01*
X155514357Y-123373208D01*
X155527564Y-123405234D01*
X155532154Y-123443133D01*
X155528492Y-123477028D01*
X155518005Y-123505786D01*
X155500793Y-123530523D01*
X155477795Y-123550206D01*
X155447401Y-123565646D01*
X155407834Y-123576441D01*
X155350730Y-123587627D01*
X155291013Y-123605082D01*
X155240316Y-123630508D01*
X155197297Y-123663782D01*
X155171301Y-123694176D01*
X155152573Y-123729379D01*
X155140921Y-123770332D01*
X155136823Y-123818339D01*
X155140336Y-123860805D01*
X155150629Y-123899787D01*
X155167646Y-123935966D01*
X155190938Y-123968309D01*
X155220193Y-123995822D01*
X155256111Y-124018813D01*
X155295590Y-124035254D01*
X155340242Y-124045481D01*
X155391031Y-124049050D01*
G37*
G36*
X154966573Y-123248777D02*
G01*
X154969370Y-123257166D01*
X154969370Y-124018813D01*
X154966573Y-124027203D01*
X154958183Y-124030000D01*
X154731917Y-124030000D01*
X154674887Y-124025734D01*
X154627461Y-124013790D01*
X154587935Y-123994994D01*
X154554987Y-123969525D01*
X154527656Y-123937348D01*
X154508260Y-123901417D01*
X154496384Y-123860979D01*
X154492266Y-123814968D01*
X154492659Y-123810474D01*
X154578483Y-123810474D01*
X154583381Y-123852735D01*
X154597113Y-123886434D01*
X154619370Y-123913545D01*
X154648816Y-123933076D01*
X154687984Y-123945779D01*
X154739781Y-123950474D01*
X154880905Y-123950474D01*
X154885077Y-123949074D01*
X154886474Y-123944856D01*
X154886474Y-123676092D01*
X154885077Y-123671874D01*
X154880905Y-123670474D01*
X154739781Y-123670474D01*
X154687988Y-123675174D01*
X154648820Y-123687893D01*
X154619370Y-123707452D01*
X154597115Y-123734533D01*
X154583382Y-123768214D01*
X154578483Y-123810474D01*
X154492659Y-123810474D01*
X154495715Y-123775499D01*
X154505806Y-123739522D01*
X154522503Y-123706329D01*
X154545040Y-123676691D01*
X154572141Y-123652161D01*
X154604275Y-123632372D01*
X154609868Y-123626567D01*
X154604275Y-123620062D01*
X154577146Y-123601483D01*
X154554096Y-123578656D01*
X154534813Y-123551186D01*
X154520573Y-123520800D01*
X154511990Y-123488317D01*
X154509533Y-123458764D01*
X154595287Y-123458764D01*
X154599873Y-123498916D01*
X154612693Y-123530763D01*
X154633389Y-123556217D01*
X154660804Y-123574647D01*
X154696910Y-123586564D01*
X154744275Y-123590949D01*
X154880905Y-123590949D01*
X154885077Y-123589548D01*
X154886474Y-123585331D01*
X154886474Y-123331123D01*
X154885077Y-123326906D01*
X154880905Y-123325505D01*
X154744275Y-123325505D01*
X154696955Y-123329948D01*
X154660848Y-123342038D01*
X154633389Y-123360774D01*
X154612673Y-123386554D01*
X154599861Y-123418598D01*
X154595287Y-123458764D01*
X154509533Y-123458764D01*
X154509070Y-123453196D01*
X154512103Y-123414325D01*
X154520930Y-123379073D01*
X154535399Y-123346803D01*
X154555479Y-123317903D01*
X154581021Y-123293367D01*
X154612677Y-123272896D01*
X154647606Y-123258325D01*
X154687773Y-123249191D01*
X154734164Y-123245980D01*
X154958183Y-123245980D01*
X154966573Y-123248777D01*
G37*
G36*
X154024773Y-123248777D02*
G01*
X154027569Y-123257166D01*
X154027569Y-124018813D01*
X154024773Y-124027203D01*
X154016383Y-124030000D01*
X153782301Y-124030000D01*
X153709646Y-124024415D01*
X153644362Y-124008233D01*
X153585197Y-123981835D01*
X153531974Y-123945228D01*
X153487390Y-123899791D01*
X153450765Y-123844619D01*
X153424493Y-123783563D01*
X153408247Y-123715158D01*
X153402601Y-123637990D01*
X153489991Y-123637990D01*
X153494496Y-123703590D01*
X153507253Y-123759853D01*
X153527506Y-123808276D01*
X153556167Y-123851882D01*
X153590907Y-123887060D01*
X153632238Y-123914668D01*
X153678232Y-123934265D01*
X153729064Y-123946311D01*
X153785671Y-123950474D01*
X153939104Y-123950474D01*
X153943277Y-123949074D01*
X153944673Y-123944856D01*
X153944673Y-123331123D01*
X153943277Y-123326906D01*
X153939104Y-123325505D01*
X153785671Y-123325505D01*
X153729066Y-123329673D01*
X153678235Y-123341736D01*
X153632238Y-123361360D01*
X153590912Y-123388943D01*
X153556172Y-123424118D01*
X153527506Y-123467752D01*
X153507255Y-123516144D01*
X153494496Y-123572389D01*
X153489991Y-123637990D01*
X153402601Y-123637990D01*
X153408248Y-123560789D01*
X153424496Y-123492385D01*
X153450765Y-123431360D01*
X153487390Y-123376188D01*
X153531974Y-123330751D01*
X153585197Y-123294145D01*
X153644362Y-123267747D01*
X153709646Y-123251564D01*
X153782301Y-123245980D01*
X154016383Y-123245980D01*
X154024773Y-123248777D01*
G37*
G36*
X153018456Y-123730997D02*
G01*
X153021252Y-123739387D01*
X153029642Y-123742184D01*
X153257032Y-123742184D01*
X153265422Y-123739387D01*
X153268218Y-123730997D01*
X153268218Y-123682784D01*
X153265422Y-123674394D01*
X153257032Y-123671598D01*
X153029642Y-123671598D01*
X153021252Y-123674394D01*
X153018456Y-123682784D01*
X153018456Y-123730997D01*
G37*
D12*
%TO.C,TP7*%
X155886000Y-121412000D02*
G75*
G02*
X153486000Y-121412000I-1200000J0D01*
G01*
X153486000Y-121412000D02*
G75*
G02*
X155886000Y-121412000I1200000J0D01*
G01*
%TO.C,TP6*%
X160712000Y-124206000D02*
G75*
G02*
X158312000Y-124206000I-1200000J0D01*
G01*
X158312000Y-124206000D02*
G75*
G02*
X160712000Y-124206000I1200000J0D01*
G01*
%TD*%
%LPC*%
D13*
%TO.C,H3*%
X144780000Y-98806000D03*
%TD*%
D14*
%TO.C,D2*%
X201681000Y-141478000D03*
D15*
X199141000Y-141478000D03*
%TD*%
D16*
%TO.C,J9*%
X125997000Y-80341000D03*
X142227000Y-80341000D03*
X125997000Y-73991000D03*
X142227000Y-73991000D03*
X125997000Y-86691000D03*
X142227000Y-86691000D03*
%TD*%
D17*
%TO.C,SW1*%
X143966000Y-114010000D03*
X137466000Y-114010000D03*
X143966000Y-109510000D03*
X137466000Y-109510000D03*
%TD*%
%TO.C,SW2*%
X143966000Y-122138000D03*
X137466000Y-122138000D03*
X143966000Y-117638000D03*
X137466000Y-117638000D03*
%TD*%
D18*
%TO.C,J1*%
X130714000Y-140143000D03*
X136494000Y-140143000D03*
D19*
X129284000Y-139623000D03*
D20*
X129284000Y-143823000D03*
D19*
X137924000Y-139623000D03*
D20*
X137924000Y-143823000D03*
%TD*%
D13*
%TO.C,H1*%
X187452000Y-127254000D03*
%TD*%
D16*
%TO.C,J8*%
X147346000Y-80341000D03*
X163576000Y-80341000D03*
X147346000Y-73991000D03*
X163576000Y-73991000D03*
X147346000Y-86691000D03*
X163576000Y-86691000D03*
%TD*%
D21*
%TO.C,J3*%
X166236000Y-137484000D03*
X181236000Y-137484000D03*
D22*
X181236000Y-132484000D03*
X173736000Y-132484000D03*
X166236000Y-132484000D03*
X178736000Y-129984000D03*
X168736000Y-129984000D03*
D23*
X168736000Y-142484000D03*
X171236000Y-142484000D03*
X176236000Y-142484000D03*
X178736000Y-142484000D03*
%TD*%
D24*
%TO.C,J5*%
X206502000Y-104902000D03*
D25*
X206502000Y-107442000D03*
X206502000Y-109982000D03*
X206502000Y-112522000D03*
X206502000Y-115062000D03*
X206502000Y-117602000D03*
X206502000Y-120142000D03*
X206502000Y-122682000D03*
X206502000Y-125222000D03*
X206502000Y-127762000D03*
X206502000Y-130302000D03*
X206502000Y-132842000D03*
X206502000Y-135382000D03*
X206502000Y-137922000D03*
X206502000Y-140462000D03*
X206502000Y-143002000D03*
%TD*%
D14*
%TO.C,D1*%
X193299000Y-141478000D03*
D15*
X190759000Y-141478000D03*
%TD*%
D16*
%TO.C,J6*%
X189992000Y-80341000D03*
X206222000Y-80341000D03*
X189992000Y-73991000D03*
X206222000Y-73991000D03*
X189992000Y-86691000D03*
X206222000Y-86691000D03*
%TD*%
D13*
%TO.C,H4*%
X187452000Y-98806000D03*
%TD*%
%TO.C,H2*%
X139954000Y-127254000D03*
%TD*%
D16*
%TO.C,J7*%
X168682000Y-80341000D03*
X184912000Y-80341000D03*
X168682000Y-73991000D03*
X184912000Y-73991000D03*
X168682000Y-86691000D03*
X184912000Y-86691000D03*
%TD*%
D21*
%TO.C,J2*%
X145916000Y-137494000D03*
X160916000Y-137494000D03*
D22*
X160916000Y-132494000D03*
X153416000Y-132494000D03*
X145916000Y-132494000D03*
X158416000Y-129994000D03*
X148416000Y-129994000D03*
D23*
X148416000Y-142494000D03*
X150916000Y-142494000D03*
X155916000Y-142494000D03*
X158416000Y-142494000D03*
%TD*%
D17*
%TO.C,TP7*%
X154686000Y-121412000D03*
%TD*%
%TO.C,TP6*%
X159512000Y-124206000D03*
%TD*%
%LPD*%
M02*
