%TF.GenerationSoftware,KiCad,Pcbnew,9.0.7*%
%TF.CreationDate,2026-02-28T12:57:25+01:00*%
%TF.ProjectId,Expresso,45787072-6573-4736-9f2e-6b696361645f,rev?*%
%TF.SameCoordinates,Original*%
%TF.FileFunction,Paste,Top*%
%TF.FilePolarity,Positive*%
%FSLAX46Y46*%
G04 Gerber Fmt 4.6, Leading zero omitted, Abs format (unit mm)*
G04 Created by KiCad (PCBNEW 9.0.7) date 2026-02-28 12:57:25*
%MOMM*%
%LPD*%
G01*
G04 APERTURE LIST*
G04 Aperture macros list*
%AMRoundRect*
0 Rectangle with rounded corners*
0 $1 Rounding radius*
0 $2 $3 $4 $5 $6 $7 $8 $9 X,Y pos of 4 corners*
0 Add a 4 corners polygon primitive as box body*
4,1,4,$2,$3,$4,$5,$6,$7,$8,$9,$2,$3,0*
0 Add four circle primitives for the rounded corners*
1,1,$1+$1,$2,$3*
1,1,$1+$1,$4,$5*
1,1,$1+$1,$6,$7*
1,1,$1+$1,$8,$9*
0 Add four rect primitives between the rounded corners*
20,1,$1+$1,$2,$3,$4,$5,0*
20,1,$1+$1,$4,$5,$6,$7,0*
20,1,$1+$1,$6,$7,$8,$9,0*
20,1,$1+$1,$8,$9,$2,$3,0*%
G04 Aperture macros list end*
%ADD10RoundRect,0.225000X0.375000X-0.225000X0.375000X0.225000X-0.375000X0.225000X-0.375000X-0.225000X0*%
%ADD11RoundRect,0.200000X-0.275000X0.200000X-0.275000X-0.200000X0.275000X-0.200000X0.275000X0.200000X0*%
%ADD12RoundRect,0.200000X0.275000X-0.200000X0.275000X0.200000X-0.275000X0.200000X-0.275000X-0.200000X0*%
%ADD13RoundRect,0.162500X0.650000X0.162500X-0.650000X0.162500X-0.650000X-0.162500X0.650000X-0.162500X0*%
%ADD14RoundRect,0.225000X-0.250000X0.225000X-0.250000X-0.225000X0.250000X-0.225000X0.250000X0.225000X0*%
%ADD15RoundRect,0.225000X0.250000X-0.225000X0.250000X0.225000X-0.250000X0.225000X-0.250000X-0.225000X0*%
%ADD16RoundRect,0.200000X-0.200000X-0.275000X0.200000X-0.275000X0.200000X0.275000X-0.200000X0.275000X0*%
%ADD17RoundRect,0.225000X-0.225000X-0.250000X0.225000X-0.250000X0.225000X0.250000X-0.225000X0.250000X0*%
%ADD18RoundRect,0.218750X0.381250X-0.218750X0.381250X0.218750X-0.381250X0.218750X-0.381250X-0.218750X0*%
%ADD19RoundRect,0.150000X0.150000X-0.512500X0.150000X0.512500X-0.150000X0.512500X-0.150000X-0.512500X0*%
%ADD20RoundRect,0.200000X0.200000X0.275000X-0.200000X0.275000X-0.200000X-0.275000X0.200000X-0.275000X0*%
%ADD21RoundRect,0.150000X0.512500X0.150000X-0.512500X0.150000X-0.512500X-0.150000X0.512500X-0.150000X0*%
%ADD22R,0.600000X1.240000*%
%ADD23R,0.300000X1.240000*%
%ADD24RoundRect,0.250000X0.350000X-0.450000X0.350000X0.450000X-0.350000X0.450000X-0.350000X-0.450000X0*%
%ADD25RoundRect,0.150000X-0.825000X-0.150000X0.825000X-0.150000X0.825000X0.150000X-0.825000X0.150000X0*%
%ADD26RoundRect,0.225000X0.225000X0.250000X-0.225000X0.250000X-0.225000X-0.250000X0.225000X-0.250000X0*%
%ADD27RoundRect,0.075000X0.415425X0.521491X-0.521491X-0.415425X-0.415425X-0.521491X0.521491X0.415425X0*%
%ADD28RoundRect,0.075000X-0.415425X0.521491X-0.521491X0.415425X0.415425X-0.521491X0.521491X-0.415425X0*%
G04 APERTURE END LIST*
D10*
%TO.C,D10*%
X179324000Y-95122000D03*
X179324000Y-91822000D03*
%TD*%
D11*
%TO.C,R27*%
X186436000Y-92647000D03*
X186436000Y-94297000D03*
%TD*%
D12*
%TO.C,R13*%
X174244000Y-127317000D03*
X174244000Y-125667000D03*
%TD*%
D13*
%TO.C,U8*%
X156624000Y-101981000D03*
X156624000Y-100711000D03*
X156624000Y-99441000D03*
X156624000Y-98171000D03*
X151224000Y-98171000D03*
X151224000Y-99441000D03*
X151224000Y-100711000D03*
X151224000Y-101981000D03*
%TD*%
D14*
%TO.C,C16*%
X172212000Y-110561000D03*
X172212000Y-112111000D03*
%TD*%
D15*
%TO.C,C14*%
X155956000Y-112535000D03*
X155956000Y-110985000D03*
%TD*%
D16*
%TO.C,R4*%
X147003000Y-114300000D03*
X148653000Y-114300000D03*
%TD*%
D12*
%TO.C,R14*%
X172212000Y-127317000D03*
X172212000Y-125667000D03*
%TD*%
D17*
%TO.C,C3*%
X133845000Y-125476000D03*
X135395000Y-125476000D03*
%TD*%
D16*
%TO.C,R1*%
X147003000Y-108204000D03*
X148653000Y-108204000D03*
%TD*%
D15*
%TO.C,C13*%
X170180000Y-112111000D03*
X170180000Y-110561000D03*
%TD*%
D11*
%TO.C,R20*%
X157988000Y-92647000D03*
X157988000Y-94297000D03*
%TD*%
D14*
%TO.C,C5*%
X131572000Y-116065000D03*
X131572000Y-117615000D03*
%TD*%
D18*
%TO.C,FB1*%
X132080000Y-129840500D03*
X132080000Y-127715500D03*
%TD*%
D19*
%TO.C,U4*%
X126558000Y-132709500D03*
X127508000Y-132709500D03*
X128458000Y-132709500D03*
X128458000Y-130434500D03*
X127508000Y-130434500D03*
X126558000Y-130434500D03*
%TD*%
D13*
%TO.C,U10*%
X187104000Y-101981000D03*
X187104000Y-100711000D03*
X187104000Y-99441000D03*
X187104000Y-98171000D03*
X181704000Y-98171000D03*
X181704000Y-99441000D03*
X181704000Y-100711000D03*
X181704000Y-101981000D03*
%TD*%
D11*
%TO.C,R24*%
X171196000Y-92647000D03*
X171196000Y-94297000D03*
%TD*%
D12*
%TO.C,R19*%
X138684000Y-94297000D03*
X138684000Y-92647000D03*
%TD*%
D10*
%TO.C,D11*%
X181864000Y-95122000D03*
X181864000Y-91822000D03*
%TD*%
D20*
%TO.C,R5*%
X112000000Y-144500000D03*
X110350000Y-144500000D03*
%TD*%
D14*
%TO.C,C20*%
X184404000Y-119621000D03*
X184404000Y-121171000D03*
%TD*%
D12*
%TO.C,R25*%
X169164000Y-94297000D03*
X169164000Y-92647000D03*
%TD*%
D14*
%TO.C,C8*%
X133604000Y-108445000D03*
X133604000Y-109995000D03*
%TD*%
D20*
%TO.C,R6*%
X143500000Y-154500000D03*
X141850000Y-154500000D03*
%TD*%
D10*
%TO.C,D9*%
X166624000Y-95122000D03*
X166624000Y-91822000D03*
%TD*%
D15*
%TO.C,C19*%
X157104000Y-139459000D03*
X157104000Y-137909000D03*
%TD*%
D13*
%TO.C,U9*%
X171864000Y-101981000D03*
X171864000Y-100711000D03*
X171864000Y-99441000D03*
X171864000Y-98171000D03*
X166464000Y-98171000D03*
X166464000Y-99441000D03*
X166464000Y-100711000D03*
X166464000Y-101981000D03*
%TD*%
D11*
%TO.C,R23*%
X173228000Y-92647000D03*
X173228000Y-94297000D03*
%TD*%
D17*
%TO.C,C25*%
X166116000Y-104140000D03*
X167666000Y-104140000D03*
%TD*%
D11*
%TO.C,R7*%
X157104000Y-141415000D03*
X157104000Y-143065000D03*
%TD*%
D21*
%TO.C,U1*%
X129153500Y-117790000D03*
X129153500Y-115890000D03*
X126878500Y-116840000D03*
%TD*%
D20*
%TO.C,R8*%
X149293000Y-136652000D03*
X147643000Y-136652000D03*
%TD*%
D11*
%TO.C,R21*%
X155956000Y-92647000D03*
X155956000Y-94297000D03*
%TD*%
D17*
%TO.C,C4*%
X127241000Y-119888000D03*
X128791000Y-119888000D03*
%TD*%
D10*
%TO.C,D8*%
X164084000Y-95122000D03*
X164084000Y-91822000D03*
%TD*%
D17*
%TO.C,C23*%
X135623000Y-104140000D03*
X137173000Y-104140000D03*
%TD*%
D16*
%TO.C,R2*%
X147003000Y-109728000D03*
X148653000Y-109728000D03*
%TD*%
D22*
%TO.C,J1*%
X147300000Y-139023000D03*
X148100000Y-139023000D03*
D23*
X149250000Y-139023000D03*
X150250000Y-139023000D03*
X150750000Y-139023000D03*
X151750000Y-139023000D03*
D22*
X152900000Y-139023000D03*
X153700000Y-139023000D03*
X153700000Y-139023000D03*
X152900000Y-139023000D03*
D23*
X152250000Y-139023000D03*
X151250000Y-139023000D03*
X149750000Y-139023000D03*
X148750000Y-139023000D03*
D22*
X148100000Y-139023000D03*
X147300000Y-139023000D03*
%TD*%
D11*
%TO.C,R17*%
X142748000Y-92647000D03*
X142748000Y-94297000D03*
%TD*%
D10*
%TO.C,D4*%
X133604000Y-95122000D03*
X133604000Y-91822000D03*
%TD*%
D14*
%TO.C,C7*%
X131572000Y-108445000D03*
X131572000Y-109995000D03*
%TD*%
D16*
%TO.C,R3*%
X147003000Y-112776000D03*
X148653000Y-112776000D03*
%TD*%
D17*
%TO.C,C24*%
X150876000Y-104140000D03*
X152426000Y-104140000D03*
%TD*%
D24*
%TO.C,Y1*%
X176110000Y-112436000D03*
X176110000Y-110236000D03*
X174410000Y-110236000D03*
X174410000Y-112436000D03*
%TD*%
D12*
%TO.C,R28*%
X184404000Y-94297000D03*
X184404000Y-92647000D03*
%TD*%
D13*
%TO.C,U7*%
X141384000Y-101981000D03*
X141384000Y-100711000D03*
X141384000Y-99441000D03*
X141384000Y-98171000D03*
X135984000Y-98171000D03*
X135984000Y-99441000D03*
X135984000Y-100711000D03*
X135984000Y-101981000D03*
%TD*%
D10*
%TO.C,D6*%
X148844000Y-95122000D03*
X148844000Y-91822000D03*
%TD*%
D16*
%TO.C,R9*%
X152215000Y-136652000D03*
X153865000Y-136652000D03*
%TD*%
D10*
%TO.C,D7*%
X151384000Y-95122000D03*
X151384000Y-91822000D03*
%TD*%
D25*
%TO.C,U5*%
X176849000Y-119634000D03*
X176849000Y-120904000D03*
X176849000Y-122174000D03*
X176849000Y-123444000D03*
X176849000Y-124714000D03*
X176849000Y-125984000D03*
X176849000Y-127254000D03*
X181799000Y-127254000D03*
X181799000Y-125984000D03*
X181799000Y-124714000D03*
X181799000Y-123444000D03*
X181799000Y-122174000D03*
X181799000Y-120904000D03*
X181799000Y-119634000D03*
%TD*%
D17*
%TO.C,C6*%
X127241000Y-112268000D03*
X128791000Y-112268000D03*
%TD*%
D14*
%TO.C,C12*%
X171196000Y-115557000D03*
X171196000Y-117107000D03*
%TD*%
D17*
%TO.C,C2*%
X133845000Y-127000000D03*
X135395000Y-127000000D03*
%TD*%
D12*
%TO.C,R22*%
X153924000Y-94297000D03*
X153924000Y-92647000D03*
%TD*%
D15*
%TO.C,C15*%
X178308000Y-112111000D03*
X178308000Y-110561000D03*
%TD*%
D17*
%TO.C,C1*%
X133845000Y-128524000D03*
X135395000Y-128524000D03*
%TD*%
D15*
%TO.C,C10*%
X154432000Y-112535000D03*
X154432000Y-110985000D03*
%TD*%
D26*
%TO.C,C18*%
X148603000Y-115824000D03*
X147053000Y-115824000D03*
%TD*%
D11*
%TO.C,R26*%
X188468000Y-92647000D03*
X188468000Y-94297000D03*
%TD*%
D26*
%TO.C,C11*%
X161036000Y-122936000D03*
X159486000Y-122936000D03*
%TD*%
%TO.C,C17*%
X148603000Y-111252000D03*
X147053000Y-111252000D03*
%TD*%
D10*
%TO.C,D5*%
X136144000Y-95122000D03*
X136144000Y-91822000D03*
%TD*%
D17*
%TO.C,C26*%
X181222500Y-104140000D03*
X182772500Y-104140000D03*
%TD*%
D15*
%TO.C,C9*%
X157988000Y-111519000D03*
X157988000Y-109969000D03*
%TD*%
D27*
%TO.C,U3*%
X167955876Y-114825212D03*
X167602322Y-114471658D03*
X167248769Y-114118105D03*
X166895215Y-113764551D03*
X166541662Y-113410998D03*
X166188109Y-113057445D03*
X165834555Y-112703891D03*
X165481002Y-112350338D03*
X165127449Y-111996785D03*
X164773895Y-111643231D03*
X164420342Y-111289678D03*
X164066788Y-110936124D03*
D28*
X162069212Y-110936124D03*
X161715658Y-111289678D03*
X161362105Y-111643231D03*
X161008551Y-111996785D03*
X160654998Y-112350338D03*
X160301445Y-112703891D03*
X159947891Y-113057445D03*
X159594338Y-113410998D03*
X159240785Y-113764551D03*
X158887231Y-114118105D03*
X158533678Y-114471658D03*
X158180124Y-114825212D03*
D27*
X158180124Y-116822788D03*
X158533678Y-117176342D03*
X158887231Y-117529895D03*
X159240785Y-117883449D03*
X159594338Y-118237002D03*
X159947891Y-118590555D03*
X160301445Y-118944109D03*
X160654998Y-119297662D03*
X161008551Y-119651215D03*
X161362105Y-120004769D03*
X161715658Y-120358322D03*
X162069212Y-120711876D03*
D28*
X164066788Y-120711876D03*
X164420342Y-120358322D03*
X164773895Y-120004769D03*
X165127449Y-119651215D03*
X165481002Y-119297662D03*
X165834555Y-118944109D03*
X166188109Y-118590555D03*
X166541662Y-118237002D03*
X166895215Y-117883449D03*
X167248769Y-117529895D03*
X167602322Y-117176342D03*
X167955876Y-116822788D03*
%TD*%
D11*
%TO.C,R18*%
X140716000Y-92647000D03*
X140716000Y-94297000D03*
%TD*%
D21*
%TO.C,U2*%
X129153500Y-110170000D03*
X129153500Y-108270000D03*
X126878500Y-109220000D03*
%TD*%
M02*
