M48
; DRILL file {KiCad 9.0.7} date 2026-02-28T12:57:25+0100
; FORMAT={-:-/ absolute / inch / decimal}
; #@! TF.CreationDate,2026-02-28T12:57:25+01:00
; #@! TF.GenerationSoftware,Kicad,Pcbnew,9.0.7
; #@! TF.FileFunction,Plated,1,4,PTH
FMAT,2
INCH
; #@! TA.AperFunction,Plated,PTH,ViaDrill
T1C0.0118
; #@! TA.AperFunction,Plated,PTH,ComponentDrill
T2C0.0236
; #@! TA.AperFunction,Plated,PTH,ComponentDrill
T3C0.0354
; #@! TA.AperFunction,Plated,PTH,ComponentDrill
T4C0.0394
; #@! TA.AperFunction,Plated,PTH,ComponentDrill
T5C0.0433
; #@! TA.AperFunction,Plated,PTH,ComponentDrill
T6C0.0531
; #@! TA.AperFunction,Plated,PTH,ComponentDrill
T7C0.0945
%
G90
G05
T1
X5.1Y-4.52
X5.1Y-5.18
X5.1Y-5.26
X5.12Y-4.18
X5.12Y-4.42
X5.12Y-4.72
X5.13Y-5.23
X5.14Y-4.14
X5.14Y-4.22
X5.14Y-4.38
X5.14Y-4.46
X5.14Y-4.52
X5.14Y-4.68
X5.14Y-4.76
X5.16Y-4.18
X5.16Y-4.42
X5.16Y-4.72
X5.18Y-4.14
X5.18Y-4.22
X5.18Y-4.38
X5.18Y-4.46
X5.18Y-4.52
X5.18Y-4.68
X5.18Y-4.76
X5.19Y-3.74
X5.2Y-4.18
X5.2Y-4.42
X5.2Y-4.72
X5.2Y-4.94
X5.2Y-4.97
X5.22Y-4.14
X5.22Y-4.22
X5.22Y-4.38
X5.22Y-4.52
X5.22Y-4.6
X5.22Y-4.68
X5.24Y-4.18
X5.24Y-4.42
X5.24Y-4.54
X5.24Y-4.58
X5.26Y-4.14
X5.26Y-4.22
X5.26Y-4.38
X5.29Y-4.06
X5.34Y-3.56
X5.38Y-3.56
X5.38Y-4.16
X5.38Y-4.94
X5.38Y-5.0
X5.4Y-4.91
X5.4Y-4.97
X5.4Y-5.03
X5.44Y-3.6
X5.44Y-4.16
X5.48Y-3.6
X5.48Y-3.92
X5.52Y-3.8
X5.56Y-3.8
X5.72Y-4.56
X5.7252Y-5.38
X5.74Y-4.32
X5.74Y-4.38
X5.7452Y-5.34
X5.7452Y-5.42
X5.76Y-4.64
X5.7652Y-5.38
X5.79Y-3.74
X5.8905Y-4.06
X5.9Y-4.34
X5.94Y-3.56
X5.98Y-3.56
X6.04Y-3.6
X6.08Y-3.6
X6.08Y-3.92
X6.08Y-4.32
X6.0852Y-5.34
X6.0852Y-5.42
X6.1052Y-5.38
X6.12Y-3.8
X6.1252Y-5.34
X6.1252Y-5.42
X6.14Y-4.32
X6.1452Y-5.38
X6.16Y-3.8
X6.1652Y-5.34
X6.1652Y-5.68
X6.1834Y-4.4766
X6.1852Y-5.38
X6.2052Y-5.34
X6.2052Y-5.68
X6.22Y-4.28
X6.2408Y-4.8008
X6.26Y-4.16
X6.26Y-4.4
X6.28Y-4.76
X6.3362Y-4.7961
X6.38Y-4.8
X6.39Y-3.74
X6.4905Y-4.06
X6.53Y-5.05
X6.54Y-3.56
X6.58Y-3.56
X6.64Y-3.6
X6.64Y-4.36
X6.66Y-4.6544
X6.68Y-3.6
X6.68Y-3.92
X6.68Y-4.56
X6.68Y-4.61
X6.7Y-4.46
X6.72Y-3.8
X6.72Y-4.26
X6.76Y-3.8
X6.78Y-4.46
X6.99Y-3.74
X7.02Y-4.3033
X7.0853Y-4.06
X7.1Y-4.66
X7.14Y-3.56
X7.14Y-4.66
X7.18Y-3.56
X7.24Y-3.6
X7.28Y-3.6
X7.28Y-3.92
X7.36Y-3.8
X7.4Y-3.8
X7.66Y-3.98
X7.7Y-3.9
T3
X4.6352Y-5.8858
X4.7352Y-5.8858
X5.3134Y-5.8858
X5.4134Y-5.8858
T4
X5.36Y-3.46
X5.46Y-3.46
X5.56Y-3.46
X5.96Y-3.46
X6.06Y-3.46
X6.16Y-3.46
X6.56Y-3.46
X6.66Y-3.46
X6.76Y-3.46
X7.16Y-3.46
X7.26Y-3.46
X7.36Y-3.46
X7.78Y-3.46
X7.78Y-3.56
X7.78Y-3.66
X7.78Y-3.76
X7.78Y-3.86
X7.78Y-3.96
X7.78Y-4.06
X7.78Y-4.16
X7.78Y-4.26
X7.78Y-4.36
X7.78Y-4.46
X7.78Y-4.56
X7.78Y-4.66
X7.78Y-4.76
X7.78Y-4.86
X7.78Y-4.96
T5
X5.412Y-4.3114
X5.412Y-4.4886
X5.412Y-4.6314
X5.412Y-4.8086
X5.668Y-4.3114
X5.668Y-4.4886
X5.668Y-4.6314
X5.668Y-4.8086
T6
X6.437Y-5.2559
X6.5354Y-5.1575
X6.5354Y-5.6496
X6.6339Y-5.6496
X6.7323Y-5.2559
X6.8307Y-5.6496
X6.9291Y-5.1575
X6.9291Y-5.6496
X7.0276Y-5.2559
T7
X6.437Y-5.4528
X7.0276Y-5.4528
T2
G00X5.7551Y-5.4753
M15
G01X5.7551Y-5.5186
M16
G05
G00X5.7551Y-5.6466
M15
G01X5.7551Y-5.6781
M16
G05
G00X6.0953Y-5.4753
M15
G01X6.0953Y-5.5186
M16
G05
G00X6.0953Y-5.6466
M15
G01X6.0953Y-5.6781
M16
G05
M30
