M48
; DRILL file {KiCad 9.0.4} date 2026-03-17T12:13:24+0100
; FORMAT={-:-/ absolute / inch / decimal}
; #@! TF.CreationDate,2026-03-17T12:13:24+01:00
; #@! TF.GenerationSoftware,Kicad,Pcbnew,9.0.4
; #@! TF.FileFunction,Plated,1,4,PTH
FMAT,2
INCH
; #@! TA.AperFunction,Plated,PTH,ViaDrill
T1C0.0118
; #@! TA.AperFunction,Plated,PTH,ComponentDrill
T2C0.0236
; #@! TA.AperFunction,Plated,PTH,ComponentDrill
T3C0.0354
; #@! TA.AperFunction,Plated,PTH,ComponentDrill
T4C0.0394
; #@! TA.AperFunction,Plated,PTH,ComponentDrill
T5C0.0433
; #@! TA.AperFunction,Plated,PTH,ComponentDrill
T6C0.0531
; #@! TA.AperFunction,Plated,PTH,ComponentDrill
T7C0.0591
; #@! TA.AperFunction,Plated,PTH,ComponentDrill
T8C0.0945
%
G90
G05
T1
X4.93Y-3.79
X4.93Y-3.94
X4.93Y-4.09
X4.93Y-4.26
X5.04Y-3.86
X5.07Y-4.09
X5.08Y-5.38
X5.1Y-4.59
X5.1Y-5.18
X5.1Y-5.26
X5.1Y-5.34
X5.1Y-5.42
X5.12Y-2.88
X5.12Y-4.25
X5.12Y-4.49
X5.12Y-4.79
X5.12Y-5.38
X5.13Y-3.44
X5.13Y-5.23
X5.14Y-4.21
X5.14Y-4.29
X5.14Y-4.45
X5.14Y-4.53
X5.14Y-4.59
X5.14Y-4.75
X5.14Y-4.83
X5.16Y-4.25
X5.16Y-4.49
X5.16Y-4.79
X5.1795Y-4.1
X5.18Y-4.21
X5.18Y-4.29
X5.18Y-4.45
X5.18Y-4.53
X5.18Y-4.59
X5.18Y-4.75
X5.18Y-4.83
X5.2Y-4.25
X5.2Y-4.49
X5.2Y-4.79
X5.2Y-4.94
X5.2Y-4.97
X5.22Y-4.21
X5.22Y-4.29
X5.22Y-4.45
X5.22Y-4.53
X5.22Y-4.59
X5.22Y-4.67
X5.22Y-4.75
X5.24Y-4.25
X5.24Y-4.49
X5.24Y-4.61
X5.24Y-4.65
X5.26Y-4.21
X5.26Y-4.29
X5.26Y-4.45
X5.26Y-4.53
X5.28Y-4.49
X5.29Y-4.14
X5.3Y-4.45
X5.32Y-4.63
X5.34Y-4.59
X5.36Y-4.26
X5.37Y-3.1
X5.38Y-4.94
X5.38Y-5.0
X5.4Y-4.21
X5.4Y-4.91
X5.4Y-4.97
X5.4Y-5.03
X5.41Y-5.14
X5.43Y-2.84
X5.44Y-5.34
X5.44Y-5.42
X5.45Y-3.9
X5.46Y-5.38
X5.48Y-5.34
X5.48Y-5.42
X5.5Y-5.38
X5.52Y-5.34
X5.52Y-5.68
X5.53Y-4.12
X5.54Y-5.38
X5.56Y-5.34
X5.56Y-5.68
X5.57Y-3.81
X5.63Y-4.25
X5.64Y-5.47
X5.67Y-4.21
X5.69Y-3.62
X5.74Y-4.32
X5.74Y-4.38
X5.77Y-4.8172
X5.84Y-4.12
X5.88Y-3.86
X5.89Y-4.41
X5.9Y-4.21
X5.9Y-4.32
X5.91Y-4.45
X5.94Y-4.53
X5.94Y-4.7
X5.95Y-4.91
X5.99Y-3.47
X6.0Y-2.84
X6.0195Y-4.09
X6.04Y-4.7
X6.07Y-5.37
X6.08Y-4.32
X6.12Y-3.09
X6.13Y-4.13
X6.14Y-4.32
X6.16Y-4.21
X6.17Y-4.56
X6.17Y-4.78
X6.1834Y-4.4766
X6.2Y-4.75
X6.2195Y-4.38
X6.22Y-4.21
X6.2408Y-4.8008
X6.28Y-4.21
X6.28Y-4.38
X6.28Y-4.76
X6.29Y-3.9
X6.31Y-2.9
X6.3362Y-4.7961
X6.37Y-4.56
X6.38Y-4.8
X6.41Y-3.66
X6.41Y-3.81
X6.42Y-4.44
X6.42Y-4.51
X6.42Y-4.61
X6.43Y-4.8
X6.47Y-4.56
X6.5057Y-5.6496
X6.53Y-4.06
X6.53Y-5.1
X6.59Y-4.75
X6.64Y-4.36
X6.653Y-4.313
X6.6542Y-4.7242
X6.66Y-4.6544
X6.68Y-4.56
X6.68Y-4.61
X6.7Y-4.46
X6.72Y-3.86
X6.78Y-4.46
X6.81Y-4.21
X6.84Y-4.27
X6.86Y-4.09
X6.88Y-5.37
X6.92Y-3.32
X6.97Y-4.13
X6.975Y-4.905
X7.06Y-2.87
X7.06Y-3.13
X7.08Y-4.35
X7.11Y-4.21
X7.13Y-3.9
X7.2Y-4.28
X7.2143Y-5.6201
X7.22Y-4.89
X7.25Y-3.81
X7.28Y-4.89
X7.33Y-4.425
X7.34Y-4.09
X7.45Y-4.21
X7.56Y-3.86
X7.575Y-5.54
X7.6273Y-5.2
X7.7Y-4.09
X7.72Y-5.06
X7.76Y-5.23
X7.81Y-4.13
X7.82Y-3.09
X7.83Y-3.55
X7.87Y-4.33
X7.88Y-5.26
X7.92Y-4.19
X7.92Y-5.24
X7.95Y-2.88
X7.97Y-3.89
X7.98Y-5.67
X8.04Y-4.48
X8.04Y-4.58
X8.09Y-3.81
X8.14Y-3.64
T3
X7.725Y-5.4902
X7.7266Y-5.5902
X7.825Y-5.4902
X7.825Y-5.5902
X7.925Y-5.4902
X7.925Y-5.5902
T4
X8.13Y-4.13
X8.13Y-4.23
X8.13Y-4.33
X8.13Y-4.43
X8.13Y-4.53
X8.13Y-4.63
X8.13Y-4.73
X8.13Y-4.83
X8.13Y-4.93
X8.13Y-5.03
X8.13Y-5.13
X8.13Y-5.23
X8.13Y-5.33
X8.13Y-5.43
T5
X5.412Y-4.3114
X5.412Y-4.4886
X5.412Y-4.6314
X5.412Y-4.8086
X5.668Y-4.3114
X5.668Y-4.4886
X5.668Y-4.6314
X5.668Y-4.8086
T6
X5.8494Y-5.2204
X5.9479Y-5.122
X5.9479Y-5.6141
X6.0463Y-5.6141
X6.1447Y-5.2204
X6.2431Y-5.6141
X6.3416Y-5.122
X6.3416Y-5.6141
X6.44Y-5.2204
X6.64Y-5.22
X6.7384Y-5.1216
X6.7384Y-5.6137
X6.8369Y-5.6137
X6.9353Y-5.22
X7.0337Y-5.6137
X7.1321Y-5.1216
X7.1321Y-5.6137
X7.2306Y-5.22
T7
X4.9605Y-2.913
X4.9605Y-3.163
X4.9605Y-3.413
X5.5995Y-2.913
X5.5995Y-3.163
X5.5995Y-3.413
X5.801Y-2.913
X5.801Y-3.163
X5.801Y-3.413
X6.44Y-2.913
X6.44Y-3.163
X6.44Y-3.413
X6.641Y-2.913
X6.641Y-3.163
X6.641Y-3.413
X7.28Y-2.913
X7.28Y-3.163
X7.28Y-3.413
X7.48Y-2.913
X7.48Y-3.163
X7.48Y-3.413
X8.119Y-2.913
X8.119Y-3.163
X8.119Y-3.413
T8
X5.8494Y-5.4172
X6.44Y-5.4172
X6.64Y-5.4169
X7.2306Y-5.4169
T2
G00X5.1099Y-5.4753
M15
G01X5.1099Y-5.5186
M16
G05
G00X5.1099Y-5.6466
M15
G01X5.1099Y-5.6781
M16
G05
G00X5.4501Y-5.4753
M15
G01X5.4501Y-5.5186
M16
G05
G00X5.4501Y-5.6466
M15
G01X5.4501Y-5.6781
M16
G05
M30
