%TF.GenerationSoftware,KiCad,Pcbnew,9.0.7*%
%TF.CreationDate,2026-02-28T12:57:25+01:00*%
%TF.ProjectId,Expresso,45787072-6573-4736-9f2e-6b696361645f,rev?*%
%TF.SameCoordinates,Original*%
%TF.FileFunction,Soldermask,Bot*%
%TF.FilePolarity,Negative*%
%FSLAX46Y46*%
G04 Gerber Fmt 4.6, Leading zero omitted, Abs format (unit mm)*
G04 Created by KiCad (PCBNEW 9.0.7) date 2026-02-28 12:57:25*
%MOMM*%
%LPD*%
G01*
G04 APERTURE LIST*
%ADD10C,3.200000*%
%ADD11R,1.700000X1.700000*%
%ADD12C,1.700000*%
%ADD13R,1.800000X1.800000*%
%ADD14C,1.800000*%
%ADD15C,2.000000*%
%ADD16C,0.650000*%
%ADD17O,1.000000X2.100000*%
%ADD18O,1.000000X1.800000*%
%ADD19C,3.500000*%
%ADD20C,2.500000*%
%ADD21C,2.400000*%
G04 APERTURE END LIST*
D10*
%TO.C,H2*%
X192278000Y-90424000D03*
%TD*%
D11*
%TO.C,J13*%
X181864000Y-87884000D03*
D12*
X184404000Y-87884000D03*
X186944000Y-87884000D03*
%TD*%
D13*
%TO.C,D2*%
X137500000Y-149500000D03*
D14*
X134960000Y-149500000D03*
%TD*%
D10*
%TO.C,H3*%
X128016000Y-125476000D03*
%TD*%
D11*
%TO.C,J11*%
X166624000Y-87884000D03*
D12*
X169164000Y-87884000D03*
X171704000Y-87884000D03*
%TD*%
D15*
%TO.C,SW1*%
X143966000Y-114010000D03*
X137466000Y-114010000D03*
X143966000Y-109510000D03*
X137466000Y-109510000D03*
%TD*%
%TO.C,SW2*%
X143966000Y-122138000D03*
X137466000Y-122138000D03*
X143966000Y-117638000D03*
X137466000Y-117638000D03*
%TD*%
D11*
%TO.C,J9*%
X151384000Y-87884000D03*
D12*
X153924000Y-87884000D03*
X156464000Y-87884000D03*
%TD*%
D16*
%TO.C,J1*%
X147610000Y-140143000D03*
X153390000Y-140143000D03*
D17*
X146180000Y-139623000D03*
D18*
X146180000Y-143823000D03*
D17*
X154820000Y-139623000D03*
D18*
X154820000Y-143823000D03*
%TD*%
D11*
%TO.C,J7*%
X136144000Y-87884000D03*
D12*
X138684000Y-87884000D03*
X141224000Y-87884000D03*
%TD*%
D19*
%TO.C,J3*%
X163500000Y-138500000D03*
X178500000Y-138500000D03*
D20*
X178500000Y-133500000D03*
X171000000Y-133500000D03*
X163500000Y-133500000D03*
X176000000Y-131000000D03*
X166000000Y-131000000D03*
D21*
X166000000Y-143500000D03*
X168500000Y-143500000D03*
X173500000Y-143500000D03*
X176000000Y-143500000D03*
%TD*%
D11*
%TO.C,J5*%
X197612000Y-87884000D03*
D12*
X197612000Y-90424000D03*
X197612000Y-92964000D03*
X197612000Y-95504000D03*
X197612000Y-98044000D03*
X197612000Y-100584000D03*
X197612000Y-103124000D03*
X197612000Y-105664000D03*
X197612000Y-108204000D03*
X197612000Y-110744000D03*
X197612000Y-113284000D03*
X197612000Y-115824000D03*
X197612000Y-118364000D03*
X197612000Y-120904000D03*
X197612000Y-123444000D03*
X197612000Y-125984000D03*
%TD*%
D10*
%TO.C,H1*%
X128016000Y-90424000D03*
%TD*%
D13*
%TO.C,D1*%
X120275000Y-149500000D03*
D14*
X117735000Y-149500000D03*
%TD*%
D10*
%TO.C,H4*%
X192278000Y-125476000D03*
%TD*%
D15*
%TO.C,TP12*%
X154686000Y-121412000D03*
%TD*%
%TO.C,TP13*%
X159512000Y-124206000D03*
%TD*%
M02*
