%TF.GenerationSoftware,KiCad,Pcbnew,9.0.4*%
%TF.CreationDate,2026-03-17T12:13:24+01:00*%
%TF.ProjectId,Expresso,45787072-6573-4736-9f2e-6b696361645f,rev?*%
%TF.SameCoordinates,Original*%
%TF.FileFunction,Soldermask,Top*%
%TF.FilePolarity,Negative*%
%FSLAX46Y46*%
G04 Gerber Fmt 4.6, Leading zero omitted, Abs format (unit mm)*
G04 Created by KiCad (PCBNEW 9.0.4) date 2026-03-17 12:13:24*
%MOMM*%
%LPD*%
G01*
G04 APERTURE LIST*
G04 Aperture macros list*
%AMRoundRect*
0 Rectangle with rounded corners*
0 $1 Rounding radius*
0 $2 $3 $4 $5 $6 $7 $8 $9 X,Y pos of 4 corners*
0 Add a 4 corners polygon primitive as box body*
4,1,4,$2,$3,$4,$5,$6,$7,$8,$9,$2,$3,0*
0 Add four circle primitives for the rounded corners*
1,1,$1+$1,$2,$3*
1,1,$1+$1,$4,$5*
1,1,$1+$1,$6,$7*
1,1,$1+$1,$8,$9*
0 Add four rect primitives between the rounded corners*
20,1,$1+$1,$2,$3,$4,$5,0*
20,1,$1+$1,$4,$5,$6,$7,0*
20,1,$1+$1,$6,$7,$8,$9,0*
20,1,$1+$1,$8,$9,$2,$3,0*%
%AMFreePoly0*
4,1,23,0.550000,-0.750000,0.000000,-0.750000,0.000000,-0.745722,-0.065263,-0.745722,-0.191342,-0.711940,-0.304381,-0.646677,-0.396677,-0.554381,-0.461940,-0.441342,-0.495722,-0.315263,-0.495722,-0.250000,-0.500000,-0.250000,-0.500000,0.250000,-0.495722,0.250000,-0.495722,0.315263,-0.461940,0.441342,-0.396677,0.554381,-0.304381,0.646677,-0.191342,0.711940,-0.065263,0.745722,0.000000,0.745722,
0.000000,0.750000,0.550000,0.750000,0.550000,-0.750000,0.550000,-0.750000,$1*%
%AMFreePoly1*
4,1,23,0.000000,0.745722,0.065263,0.745722,0.191342,0.711940,0.304381,0.646677,0.396677,0.554381,0.461940,0.441342,0.495722,0.315263,0.495722,0.250000,0.500000,0.250000,0.500000,-0.250000,0.495722,-0.250000,0.495722,-0.315263,0.461940,-0.441342,0.396677,-0.554381,0.304381,-0.646677,0.191342,-0.711940,0.065263,-0.745722,0.000000,-0.745722,0.000000,-0.750000,-0.550000,-0.750000,
-0.550000,0.750000,0.000000,0.750000,0.000000,0.745722,0.000000,0.745722,$1*%
G04 Aperture macros list end*
%ADD10C,2.000000*%
%ADD11RoundRect,0.200000X-0.275000X0.200000X-0.275000X-0.200000X0.275000X-0.200000X0.275000X0.200000X0*%
%ADD12RoundRect,0.200000X0.275000X-0.200000X0.275000X0.200000X-0.275000X0.200000X-0.275000X-0.200000X0*%
%ADD13RoundRect,0.225000X-0.250000X0.225000X-0.250000X-0.225000X0.250000X-0.225000X0.250000X0.225000X0*%
%ADD14RoundRect,0.162500X0.650000X0.162500X-0.650000X0.162500X-0.650000X-0.162500X0.650000X-0.162500X0*%
%ADD15RoundRect,0.225000X0.250000X-0.225000X0.250000X0.225000X-0.250000X0.225000X-0.250000X-0.225000X0*%
%ADD16RoundRect,0.200000X-0.200000X-0.275000X0.200000X-0.275000X0.200000X0.275000X-0.200000X0.275000X0*%
%ADD17RoundRect,0.225000X-0.225000X-0.250000X0.225000X-0.250000X0.225000X0.250000X-0.225000X0.250000X0*%
%ADD18RoundRect,0.218750X0.381250X-0.218750X0.381250X0.218750X-0.381250X0.218750X-0.381250X-0.218750X0*%
%ADD19RoundRect,0.150000X0.150000X-0.512500X0.150000X0.512500X-0.150000X0.512500X-0.150000X-0.512500X0*%
%ADD20R,1.780000X1.520000*%
%ADD21C,3.400000*%
%ADD22FreePoly0,180.000000*%
%ADD23R,1.000000X1.500000*%
%ADD24FreePoly1,180.000000*%
%ADD25R,1.700000X1.700000*%
%ADD26C,1.700000*%
%ADD27RoundRect,0.150000X0.512500X0.150000X-0.512500X0.150000X-0.512500X-0.150000X0.512500X-0.150000X0*%
%ADD28RoundRect,0.200000X0.200000X0.275000X-0.200000X0.275000X-0.200000X-0.275000X0.200000X-0.275000X0*%
%ADD29R,0.600000X1.240000*%
%ADD30R,0.300000X1.240000*%
%ADD31O,1.000000X2.100000*%
%ADD32O,1.000000X1.800000*%
%ADD33R,1.800000X1.800000*%
%ADD34C,1.800000*%
%ADD35RoundRect,0.250000X0.350000X-0.450000X0.350000X0.450000X-0.350000X0.450000X-0.350000X-0.450000X0*%
%ADD36C,3.500000*%
%ADD37C,2.500000*%
%ADD38C,2.400000*%
%ADD39RoundRect,0.100000X0.100000X-0.225000X0.100000X0.225000X-0.100000X0.225000X-0.100000X-0.225000X0*%
%ADD40RoundRect,0.225000X0.225000X0.250000X-0.225000X0.250000X-0.225000X-0.250000X0.225000X-0.250000X0*%
%ADD41RoundRect,0.112500X-0.112500X0.187500X-0.112500X-0.187500X0.112500X-0.187500X0.112500X0.187500X0*%
%ADD42RoundRect,0.075000X0.415425X0.521491X-0.521491X-0.415425X-0.415425X-0.521491X0.521491X0.415425X0*%
%ADD43RoundRect,0.075000X-0.415425X0.521491X-0.521491X0.415425X0.415425X-0.521491X0.521491X-0.415425X0*%
G04 APERTURE END LIST*
%TO.C,JP1*%
G36*
X180074000Y-119876000D02*
G01*
X178574000Y-119876000D01*
X178574000Y-118376000D01*
X180074000Y-118376000D01*
X180074000Y-119876000D01*
G37*
%TO.C,JP2*%
G36*
X184900000Y-119876000D02*
G01*
X183400000Y-119876000D01*
X183400000Y-118376000D01*
X184900000Y-118376000D01*
X184900000Y-119876000D01*
G37*
%TD*%
D10*
%TO.C,TP13*%
X171196000Y-101092000D03*
%TD*%
D11*
%TO.C,R34*%
X196215000Y-134562000D03*
X196215000Y-136212000D03*
%TD*%
D10*
%TO.C,TP1*%
X132334000Y-133096000D03*
%TD*%
D12*
%TO.C,R13*%
X178562000Y-122999000D03*
X178562000Y-121349000D03*
%TD*%
D13*
%TO.C,C16*%
X172212000Y-110561000D03*
X172212000Y-112111000D03*
%TD*%
D14*
%TO.C,U10*%
X136812000Y-102997000D03*
X136812000Y-101727000D03*
X136812000Y-100457000D03*
X136812000Y-99187000D03*
X131412000Y-99187000D03*
X131412000Y-100457000D03*
X131412000Y-101727000D03*
X131412000Y-102997000D03*
%TD*%
D15*
%TO.C,C14*%
X155956000Y-112535000D03*
X155956000Y-110985000D03*
%TD*%
D16*
%TO.C,R4*%
X147003000Y-114300000D03*
X148653000Y-114300000D03*
%TD*%
D12*
%TO.C,R14*%
X183388000Y-122999000D03*
X183388000Y-121349000D03*
%TD*%
D16*
%TO.C,R29*%
X127953000Y-96774000D03*
X129603000Y-96774000D03*
%TD*%
D10*
%TO.C,TP17*%
X128524000Y-101092000D03*
%TD*%
D17*
%TO.C,C3*%
X133845000Y-125476000D03*
X135395000Y-125476000D03*
%TD*%
D16*
%TO.C,R1*%
X147003000Y-108204000D03*
X148653000Y-108204000D03*
%TD*%
D15*
%TO.C,C13*%
X170180000Y-112111000D03*
X170180000Y-110561000D03*
%TD*%
D13*
%TO.C,C5*%
X131572000Y-117843000D03*
X131572000Y-119393000D03*
%TD*%
D18*
%TO.C,FB1*%
X132080000Y-129840500D03*
X132080000Y-127715500D03*
%TD*%
D19*
%TO.C,U4*%
X126558000Y-132709500D03*
X127508000Y-132709500D03*
X128458000Y-132709500D03*
X128458000Y-130434500D03*
X127508000Y-130434500D03*
X126558000Y-130434500D03*
%TD*%
D20*
%TO.C,U6*%
X148336000Y-126602000D03*
X150876000Y-126602000D03*
X153416000Y-126602000D03*
X153416000Y-117602000D03*
X150876000Y-117602000D03*
X148336000Y-117602000D03*
%TD*%
D21*
%TO.C,J9*%
X125997000Y-80341000D03*
X142227000Y-80341000D03*
X125997000Y-73991000D03*
X142227000Y-73991000D03*
X125997000Y-86691000D03*
X142227000Y-86691000D03*
%TD*%
D12*
%TO.C,R16*%
X184912000Y-122999000D03*
X184912000Y-121349000D03*
%TD*%
D22*
%TO.C,JP1*%
X180624000Y-119126000D03*
D23*
X179324000Y-119126000D03*
D24*
X178024000Y-119126000D03*
%TD*%
D16*
%TO.C,R12*%
X150051000Y-114300000D03*
X151701000Y-114300000D03*
%TD*%
D25*
%TO.C,J5*%
X206502000Y-137922000D03*
D26*
X206502000Y-135382000D03*
X206502000Y-132842000D03*
X206502000Y-130302000D03*
X206502000Y-127762000D03*
X206502000Y-125222000D03*
X206502000Y-122682000D03*
X206502000Y-120142000D03*
X206502000Y-117602000D03*
X206502000Y-115062000D03*
X206502000Y-112522000D03*
X206502000Y-109982000D03*
X206502000Y-107442000D03*
X206502000Y-104902000D03*
%TD*%
D16*
%TO.C,R25*%
X149289000Y-96774000D03*
X150939000Y-96774000D03*
%TD*%
D17*
%TO.C,C26*%
X131559000Y-105156000D03*
X133109000Y-105156000D03*
%TD*%
D12*
%TO.C,R5*%
X201295000Y-136212000D03*
X201295000Y-134562000D03*
%TD*%
D13*
%TO.C,C8*%
X133604000Y-110223000D03*
X133604000Y-111773000D03*
%TD*%
D15*
%TO.C,C19*%
X140716000Y-139459000D03*
X140716000Y-137909000D03*
%TD*%
D14*
%TO.C,U8*%
X179484000Y-102997000D03*
X179484000Y-101727000D03*
X179484000Y-100457000D03*
X179484000Y-99187000D03*
X174084000Y-99187000D03*
X174084000Y-100457000D03*
X174084000Y-101727000D03*
X174084000Y-102997000D03*
%TD*%
D16*
%TO.C,R26*%
X152845000Y-96774000D03*
X154495000Y-96774000D03*
%TD*%
D11*
%TO.C,R7*%
X140716000Y-141415000D03*
X140716000Y-143065000D03*
%TD*%
D16*
%TO.C,R23*%
X177737000Y-96774000D03*
X179387000Y-96774000D03*
%TD*%
D27*
%TO.C,U1*%
X129153500Y-119568000D03*
X129153500Y-117668000D03*
X126878500Y-118618000D03*
%TD*%
D16*
%TO.C,R27*%
X156401000Y-96774000D03*
X158051000Y-96774000D03*
%TD*%
D17*
%TO.C,C9*%
X157975000Y-110236000D03*
X159525000Y-110236000D03*
%TD*%
D10*
%TO.C,TP10*%
X203708000Y-100838000D03*
%TD*%
D28*
%TO.C,R8*%
X132905000Y-136652000D03*
X131255000Y-136652000D03*
%TD*%
D10*
%TO.C,SW1*%
X143966000Y-114010000D03*
X137466000Y-114010000D03*
X143966000Y-109510000D03*
X137466000Y-109510000D03*
%TD*%
D17*
%TO.C,C4*%
X127241000Y-121666000D03*
X128791000Y-121666000D03*
%TD*%
D10*
%TO.C,TP14*%
X161036000Y-101092000D03*
%TD*%
%TO.C,SW2*%
X143966000Y-122138000D03*
X137466000Y-122138000D03*
X143966000Y-117638000D03*
X137466000Y-117638000D03*
%TD*%
D16*
%TO.C,R32*%
X138621000Y-96774000D03*
X140271000Y-96774000D03*
%TD*%
%TO.C,R2*%
X147003000Y-109728000D03*
X148653000Y-109728000D03*
%TD*%
D29*
%TO.C,J1*%
X130912000Y-139023000D03*
X131712000Y-139023000D03*
D30*
X132862000Y-139023000D03*
X133862000Y-139023000D03*
X134362000Y-139023000D03*
X135362000Y-139023000D03*
D29*
X136512000Y-139023000D03*
X137312000Y-139023000D03*
X137312000Y-139023000D03*
X136512000Y-139023000D03*
D30*
X135862000Y-139023000D03*
X134862000Y-139023000D03*
X133362000Y-139023000D03*
X132362000Y-139023000D03*
D29*
X131712000Y-139023000D03*
X130912000Y-139023000D03*
D31*
X129792000Y-139623000D03*
D32*
X129792000Y-143823000D03*
D31*
X138432000Y-139623000D03*
D32*
X138432000Y-143823000D03*
%TD*%
D10*
%TO.C,TP12*%
X182372000Y-101092000D03*
%TD*%
D16*
%TO.C,R19*%
X199073000Y-96774000D03*
X200723000Y-96774000D03*
%TD*%
D33*
%TO.C,D4*%
X201295000Y-139451000D03*
D34*
X198755000Y-139451000D03*
X196215000Y-139451000D03*
X196255000Y-141991000D03*
X198755000Y-141991000D03*
X201295000Y-141991000D03*
%TD*%
D10*
%TO.C,TP2*%
X125984000Y-124968000D03*
%TD*%
D17*
%TO.C,C27*%
X157975000Y-108712000D03*
X159525000Y-108712000D03*
%TD*%
D11*
%TO.C,R11*%
X159004000Y-125193000D03*
X159004000Y-126843000D03*
%TD*%
D14*
%TO.C,U9*%
X158148000Y-102997000D03*
X158148000Y-101727000D03*
X158148000Y-100457000D03*
X158148000Y-99187000D03*
X152748000Y-99187000D03*
X152748000Y-100457000D03*
X152748000Y-101727000D03*
X152748000Y-102997000D03*
%TD*%
D11*
%TO.C,R6*%
X198755000Y-134592000D03*
X198755000Y-136242000D03*
%TD*%
D13*
%TO.C,C7*%
X131572000Y-110223000D03*
X131572000Y-111773000D03*
%TD*%
D10*
%TO.C,TP11*%
X192532000Y-100838000D03*
%TD*%
D16*
%TO.C,R3*%
X147003000Y-112776000D03*
X148653000Y-112776000D03*
%TD*%
%TO.C,R21*%
X170625000Y-96774000D03*
X172275000Y-96774000D03*
%TD*%
D10*
%TO.C,TP8*%
X170434000Y-124714000D03*
%TD*%
D17*
%TO.C,C25*%
X152895000Y-104902000D03*
X154445000Y-104902000D03*
%TD*%
D35*
%TO.C,Y1*%
X176110000Y-112436000D03*
X176110000Y-110236000D03*
X174410000Y-110236000D03*
X174410000Y-112436000D03*
%TD*%
D16*
%TO.C,R9*%
X135827000Y-136652000D03*
X137477000Y-136652000D03*
%TD*%
%TO.C,R20*%
X202629000Y-96774000D03*
X204279000Y-96774000D03*
%TD*%
D21*
%TO.C,J8*%
X147346000Y-80341000D03*
X163576000Y-80341000D03*
X147346000Y-73991000D03*
X163576000Y-73991000D03*
X147346000Y-86691000D03*
X163576000Y-86691000D03*
%TD*%
D36*
%TO.C,J3*%
X168656000Y-137588000D03*
X183656000Y-137588000D03*
D37*
X183656000Y-132588000D03*
X176156000Y-132588000D03*
X168656000Y-132588000D03*
X181156000Y-130088000D03*
X171156000Y-130088000D03*
D38*
X171156000Y-142588000D03*
X173656000Y-142588000D03*
X178656000Y-142588000D03*
X181156000Y-142588000D03*
%TD*%
D17*
%TO.C,C23*%
X195567000Y-104902000D03*
X197117000Y-104902000D03*
%TD*%
D39*
%TO.C,U5*%
X178674000Y-126426000D03*
X179324000Y-126426000D03*
X179974000Y-126426000D03*
X179974000Y-124526000D03*
X178674000Y-124526000D03*
%TD*%
D16*
%TO.C,R17*%
X191961000Y-96774000D03*
X193611000Y-96774000D03*
%TD*%
D17*
%TO.C,C6*%
X127241000Y-114046000D03*
X128791000Y-114046000D03*
%TD*%
D13*
%TO.C,C12*%
X171196000Y-115557000D03*
X171196000Y-117107000D03*
%TD*%
D17*
%TO.C,C22*%
X150101000Y-115824000D03*
X151651000Y-115824000D03*
%TD*%
%TO.C,C2*%
X133845000Y-127000000D03*
X135395000Y-127000000D03*
%TD*%
D10*
%TO.C,TP4*%
X128016000Y-107442000D03*
%TD*%
D15*
%TO.C,C15*%
X178308000Y-112111000D03*
X178308000Y-110561000D03*
%TD*%
D17*
%TO.C,C1*%
X133845000Y-128524000D03*
X135395000Y-128524000D03*
%TD*%
D15*
%TO.C,C10*%
X154432000Y-112535000D03*
X154432000Y-110985000D03*
%TD*%
%TO.C,C21*%
X161036000Y-126793000D03*
X161036000Y-125243000D03*
%TD*%
D10*
%TO.C,TP16*%
X139700000Y-101092000D03*
%TD*%
D22*
%TO.C,JP2*%
X185450000Y-119126000D03*
D23*
X184150000Y-119126000D03*
D24*
X182850000Y-119126000D03*
%TD*%
D40*
%TO.C,C18*%
X148603000Y-115824000D03*
X147053000Y-115824000D03*
%TD*%
D16*
%TO.C,R24*%
X181293000Y-96774000D03*
X182943000Y-96774000D03*
%TD*%
D17*
%TO.C,C24*%
X174231000Y-104902000D03*
X175781000Y-104902000D03*
%TD*%
D11*
%TO.C,R15*%
X180086000Y-121349000D03*
X180086000Y-122999000D03*
%TD*%
D12*
%TO.C,R10*%
X163068000Y-126843000D03*
X163068000Y-125193000D03*
%TD*%
D10*
%TO.C,TP5*%
X135636000Y-133096000D03*
%TD*%
D16*
%TO.C,R28*%
X159957000Y-96774000D03*
X161607000Y-96774000D03*
%TD*%
D41*
%TO.C,D3*%
X156972000Y-124934000D03*
X156972000Y-127034000D03*
%TD*%
D10*
%TO.C,TP3*%
X166370000Y-124714000D03*
%TD*%
D21*
%TO.C,J6*%
X189992000Y-80341000D03*
X206222000Y-80341000D03*
X189992000Y-73991000D03*
X206222000Y-73991000D03*
X189992000Y-86691000D03*
X206222000Y-86691000D03*
%TD*%
D40*
%TO.C,C11*%
X161036000Y-122936000D03*
X159486000Y-122936000D03*
%TD*%
%TO.C,C28*%
X144539000Y-143002000D03*
X142989000Y-143002000D03*
%TD*%
%TO.C,C17*%
X148603000Y-111252000D03*
X147053000Y-111252000D03*
%TD*%
D10*
%TO.C,TP9*%
X174498000Y-124714000D03*
%TD*%
%TO.C,TP15*%
X149860000Y-101092000D03*
%TD*%
D21*
%TO.C,J7*%
X168682000Y-80341000D03*
X184912000Y-80341000D03*
X168682000Y-73991000D03*
X184912000Y-73991000D03*
X168682000Y-86691000D03*
X184912000Y-86691000D03*
%TD*%
D16*
%TO.C,R31*%
X135065000Y-96774000D03*
X136715000Y-96774000D03*
%TD*%
%TO.C,R30*%
X131509000Y-96774000D03*
X133159000Y-96774000D03*
%TD*%
D36*
%TO.C,J2*%
X148576000Y-137598000D03*
X163576000Y-137598000D03*
D37*
X163576000Y-132598000D03*
X156076000Y-132598000D03*
X148576000Y-132598000D03*
X161076000Y-130098000D03*
X151076000Y-130098000D03*
D38*
X151076000Y-142598000D03*
X153576000Y-142598000D03*
X158576000Y-142598000D03*
X161076000Y-142598000D03*
%TD*%
D16*
%TO.C,R22*%
X174181000Y-96774000D03*
X175831000Y-96774000D03*
%TD*%
D42*
%TO.C,U3*%
X167955876Y-114825212D03*
X167602322Y-114471658D03*
X167248769Y-114118105D03*
X166895215Y-113764551D03*
X166541662Y-113410998D03*
X166188109Y-113057445D03*
X165834555Y-112703891D03*
X165481002Y-112350338D03*
X165127449Y-111996785D03*
X164773895Y-111643231D03*
X164420342Y-111289678D03*
X164066788Y-110936124D03*
D43*
X162069212Y-110936124D03*
X161715658Y-111289678D03*
X161362105Y-111643231D03*
X161008551Y-111996785D03*
X160654998Y-112350338D03*
X160301445Y-112703891D03*
X159947891Y-113057445D03*
X159594338Y-113410998D03*
X159240785Y-113764551D03*
X158887231Y-114118105D03*
X158533678Y-114471658D03*
X158180124Y-114825212D03*
D42*
X158180124Y-116822788D03*
X158533678Y-117176342D03*
X158887231Y-117529895D03*
X159240785Y-117883449D03*
X159594338Y-118237002D03*
X159947891Y-118590555D03*
X160301445Y-118944109D03*
X160654998Y-119297662D03*
X161008551Y-119651215D03*
X161362105Y-120004769D03*
X161715658Y-120358322D03*
X162069212Y-120711876D03*
D43*
X164066788Y-120711876D03*
X164420342Y-120358322D03*
X164773895Y-120004769D03*
X165127449Y-119651215D03*
X165481002Y-119297662D03*
X165834555Y-118944109D03*
X166188109Y-118590555D03*
X166541662Y-118237002D03*
X166895215Y-117883449D03*
X167248769Y-117529895D03*
X167602322Y-117176342D03*
X167955876Y-116822788D03*
%TD*%
D27*
%TO.C,U2*%
X129153500Y-111948000D03*
X129153500Y-110048000D03*
X126878500Y-110998000D03*
%TD*%
D16*
%TO.C,R18*%
X195517000Y-96774000D03*
X197167000Y-96774000D03*
%TD*%
D14*
%TO.C,U7*%
X200820000Y-102743000D03*
X200820000Y-101473000D03*
X200820000Y-100203000D03*
X200820000Y-98933000D03*
X195420000Y-98933000D03*
X195420000Y-100203000D03*
X195420000Y-101473000D03*
X195420000Y-102743000D03*
%TD*%
M02*
