M48
; DRILL file {KiCad 9.0.4} date 2025-12-28T22:29:46+0100
; FORMAT={-:-/ absolute / inch / decimal}
; #@! TF.CreationDate,2025-12-28T22:29:46+01:00
; #@! TF.GenerationSoftware,Kicad,Pcbnew,9.0.4
; #@! TF.FileFunction,Plated,1,4,PTH
FMAT,2
INCH
; #@! TA.AperFunction,Plated,PTH,ViaDrill
T1C0.0118
; #@! TA.AperFunction,Plated,PTH,ComponentDrill
T2C0.0236
; #@! TA.AperFunction,Plated,PTH,ComponentDrill
T3C0.0394
; #@! TA.AperFunction,Plated,PTH,ComponentDrill
T4C0.0433
; #@! TA.AperFunction,Plated,PTH,ComponentDrill
T5C0.0531
; #@! TA.AperFunction,Plated,PTH,ComponentDrill
T6C0.0945
%
G90
G05
T1
X4.9552Y-5.1352
X4.96Y-5.38
X4.98Y-5.34
X4.98Y-5.42
X5.0Y-5.38
X5.1Y-4.52
X5.1Y-5.18
X5.12Y-4.18
X5.12Y-4.42
X5.12Y-4.72
X5.14Y-4.14
X5.14Y-4.22
X5.14Y-4.38
X5.14Y-4.46
X5.14Y-4.52
X5.14Y-4.68
X5.14Y-4.76
X5.16Y-4.18
X5.16Y-4.42
X5.16Y-4.72
X5.18Y-4.14
X5.18Y-4.22
X5.18Y-4.38
X5.18Y-4.46
X5.18Y-4.52
X5.18Y-4.68
X5.18Y-4.76
X5.19Y-3.74
X5.2Y-4.18
X5.2Y-4.42
X5.2Y-4.72
X5.2Y-4.94
X5.2Y-4.97
X5.22Y-4.14
X5.22Y-4.22
X5.22Y-4.38
X5.22Y-4.52
X5.22Y-4.6
X5.22Y-4.68
X5.24Y-4.18
X5.24Y-4.42
X5.24Y-4.54
X5.24Y-4.58
X5.26Y-4.06
X5.26Y-4.14
X5.26Y-4.22
X5.26Y-4.38
X5.32Y-5.34
X5.32Y-5.42
X5.34Y-3.56
X5.34Y-5.38
X5.36Y-5.34
X5.36Y-5.42
X5.37Y-5.06
X5.38Y-3.56
X5.38Y-4.16
X5.38Y-4.94
X5.38Y-5.0
X5.38Y-5.38
X5.4Y-4.91
X5.4Y-4.97
X5.4Y-5.03
X5.4Y-5.34
X5.4Y-5.68
X5.42Y-5.38
X5.44Y-3.6
X5.44Y-4.16
X5.44Y-5.34
X5.44Y-5.68
X5.48Y-3.6
X5.52Y-3.92
X5.52Y-4.89
X5.56Y-3.8
X5.6Y-3.8
X5.72Y-4.56
X5.74Y-4.32
X5.74Y-4.38
X5.76Y-4.64
X5.79Y-3.74
X5.86Y-4.06
X5.9Y-4.34
X5.94Y-3.56
X5.98Y-3.56
X6.04Y-3.6
X6.08Y-3.6
X6.08Y-4.32
X6.12Y-3.92
X6.14Y-4.32
X6.16Y-3.8
X6.1834Y-4.4766
X6.2Y-3.8
X6.22Y-4.28
X6.2408Y-4.8008
X6.26Y-4.16
X6.26Y-4.4
X6.28Y-4.76
X6.3362Y-4.7961
X6.38Y-4.8
X6.39Y-3.74
X6.46Y-4.06
X6.53Y-5.05
X6.54Y-3.56
X6.58Y-3.56
X6.64Y-3.6
X6.64Y-4.36
X6.66Y-4.6544
X6.68Y-3.6
X6.68Y-4.56
X6.68Y-4.61
X6.7Y-4.46
X6.72Y-3.92
X6.72Y-4.26
X6.76Y-3.8
X6.78Y-4.46
X6.8Y-3.8
X6.99Y-3.74
X7.02Y-4.3033
X7.06Y-4.06
X7.1Y-4.66
X7.14Y-3.56
X7.14Y-4.66
X7.18Y-3.56
X7.24Y-3.6
X7.28Y-3.6
X7.32Y-3.92
X7.36Y-3.8
X7.4Y-3.8
X7.66Y-3.98
X7.7Y-3.9
T3
X5.36Y-3.46
X5.46Y-3.46
X5.56Y-3.46
X5.96Y-3.46
X6.06Y-3.46
X6.16Y-3.46
X6.56Y-3.46
X6.66Y-3.46
X6.76Y-3.46
X7.16Y-3.46
X7.26Y-3.46
X7.36Y-3.46
X7.78Y-3.46
X7.78Y-3.56
X7.78Y-3.66
X7.78Y-3.76
X7.78Y-3.86
X7.78Y-3.96
X7.78Y-4.06
X7.78Y-4.16
X7.78Y-4.26
X7.78Y-4.36
X7.78Y-4.46
X7.78Y-4.56
X7.78Y-4.66
X7.78Y-4.76
X7.78Y-4.86
X7.78Y-4.96
T4
X5.412Y-4.3114
X5.412Y-4.4886
X5.412Y-4.6314
X5.412Y-4.8086
X5.668Y-4.3114
X5.668Y-4.4886
X5.668Y-4.6314
X5.668Y-4.8086
T5
X5.5647Y-5.2563
X5.6631Y-5.1579
X5.7616Y-5.65
X5.86Y-5.2563
X5.9584Y-5.65
X6.0569Y-5.1579
X6.1553Y-5.2563
X6.3647Y-5.2563
X6.4631Y-5.1579
X6.5616Y-5.65
X6.66Y-5.2563
X6.7584Y-5.65
X6.8569Y-5.1579
X6.9553Y-5.2563
X7.1647Y-5.2563
X7.2631Y-5.1579
X7.3616Y-5.65
X7.46Y-5.2563
X7.5584Y-5.65
X7.6569Y-5.1579
X7.7553Y-5.2563
T6
X5.5647Y-5.4531
X6.1553Y-5.4531
X6.3647Y-5.4531
X6.9553Y-5.4531
X7.1647Y-5.4531
X7.7553Y-5.4531
T2
G00X4.9899Y-5.4753
M15
G01X4.9899Y-5.5186
M16
G05
G00X4.9899Y-5.6466
M15
G01X4.9899Y-5.6781
M16
G05
G00X5.3301Y-5.4753
M15
G01X5.3301Y-5.5186
M16
G05
G00X5.3301Y-5.6466
M15
G01X5.3301Y-5.6781
M16
G05
M30
