%TF.GenerationSoftware,KiCad,Pcbnew,9.0.4*%
%TF.CreationDate,2025-12-28T22:29:46+01:00*%
%TF.ProjectId,Midi Expressor,4d696469-2045-4787-9072-6573736f722e,rev?*%
%TF.SameCoordinates,Original*%
%TF.FileFunction,Legend,Bot*%
%TF.FilePolarity,Positive*%
%FSLAX46Y46*%
G04 Gerber Fmt 4.6, Leading zero omitted, Abs format (unit mm)*
G04 Created by KiCad (PCBNEW 9.0.4) date 2025-12-28 22:29:46*
%MOMM*%
%LPD*%
G01*
G04 APERTURE LIST*
%ADD10C,3.200000*%
%ADD11C,3.500000*%
%ADD12C,2.500000*%
%ADD13R,1.700000X1.700000*%
%ADD14C,1.700000*%
%ADD15C,2.000000*%
%ADD16C,0.650000*%
%ADD17O,1.000000X2.100000*%
%ADD18O,1.000000X1.800000*%
G04 APERTURE END LIST*
%LPC*%
D10*
%TO.C,H4*%
X192278000Y-125476000D03*
%TD*%
%TO.C,H2*%
X192278000Y-90424000D03*
%TD*%
D11*
%TO.C,J4*%
X181984000Y-138510000D03*
X196984000Y-138510000D03*
D12*
X196984000Y-133510000D03*
X189484000Y-133510000D03*
X181984000Y-133510000D03*
X194484000Y-131010000D03*
X184484000Y-131010000D03*
X186984000Y-143510000D03*
X191984000Y-143510000D03*
%TD*%
D13*
%TO.C,J13*%
X181864000Y-87884000D03*
D14*
X184404000Y-87884000D03*
X186944000Y-87884000D03*
%TD*%
D10*
%TO.C,H3*%
X128016000Y-125476000D03*
%TD*%
D13*
%TO.C,J11*%
X166624000Y-87884000D03*
D14*
X169164000Y-87884000D03*
X171704000Y-87884000D03*
%TD*%
D15*
%TO.C,SW1*%
X143966000Y-114010000D03*
X137466000Y-114010000D03*
X143966000Y-109510000D03*
X137466000Y-109510000D03*
%TD*%
%TO.C,SW2*%
X143966000Y-122138000D03*
X137466000Y-122138000D03*
X143966000Y-117638000D03*
X137466000Y-117638000D03*
%TD*%
D13*
%TO.C,J9*%
X151384000Y-87884000D03*
D14*
X153924000Y-87884000D03*
X156464000Y-87884000D03*
%TD*%
D16*
%TO.C,J1*%
X128174000Y-140143000D03*
X133954000Y-140143000D03*
D17*
X126744000Y-139623000D03*
D18*
X126744000Y-143823000D03*
D17*
X135384000Y-139623000D03*
D18*
X135384000Y-143823000D03*
%TD*%
D13*
%TO.C,J7*%
X136144000Y-87884000D03*
D14*
X138684000Y-87884000D03*
X141224000Y-87884000D03*
%TD*%
D11*
%TO.C,J3*%
X161664000Y-138510000D03*
X176664000Y-138510000D03*
D12*
X176664000Y-133510000D03*
X169164000Y-133510000D03*
X161664000Y-133510000D03*
X174164000Y-131010000D03*
X164164000Y-131010000D03*
X166664000Y-143510000D03*
X171664000Y-143510000D03*
%TD*%
D13*
%TO.C,J5*%
X197612000Y-87884000D03*
D14*
X197612000Y-90424000D03*
X197612000Y-92964000D03*
X197612000Y-95504000D03*
X197612000Y-98044000D03*
X197612000Y-100584000D03*
X197612000Y-103124000D03*
X197612000Y-105664000D03*
X197612000Y-108204000D03*
X197612000Y-110744000D03*
X197612000Y-113284000D03*
X197612000Y-115824000D03*
X197612000Y-118364000D03*
X197612000Y-120904000D03*
X197612000Y-123444000D03*
X197612000Y-125984000D03*
%TD*%
D10*
%TO.C,H1*%
X128016000Y-90424000D03*
%TD*%
D11*
%TO.C,J2*%
X141344000Y-138510000D03*
X156344000Y-138510000D03*
D12*
X156344000Y-133510000D03*
X148844000Y-133510000D03*
X141344000Y-133510000D03*
X153844000Y-131010000D03*
X143844000Y-131010000D03*
X146344000Y-143510000D03*
X151344000Y-143510000D03*
%TD*%
%LPD*%
M02*
